<?xml version="1.0" encoding="UTF-8" standalone="no"?>
<!-- Generated by IcoMoon.io -->

<svg
   xmlns:dc="http://purl.org/dc/elements/1.1/"
   xmlns:cc="http://creativecommons.org/ns#"
   xmlns:rdf="http://www.w3.org/1999/02/22-rdf-syntax-ns#"
   xmlns:svg="http://www.w3.org/2000/svg"
   xmlns="http://www.w3.org/2000/svg"
   xmlns:sodipodi="http://sodipodi.sourceforge.net/DTD/sodipodi-0.dtd"
   xmlns:inkscape="http://www.inkscape.org/namespaces/inkscape"
   version="1.1"
   width="32"
   height="32"
   viewBox="0 0 32 32"
   id="svg2"
   inkscape:version="0.48.4 r9939"
   sodipodi:docname="binocular.svg">
  <metadata
     id="metadata10">
    <rdf:RDF>
      <cc:Work
         rdf:about="">
        <dc:format>image/svg+xml</dc:format>
        <dc:type
           rdf:resource="http://purl.org/dc/dcmitype/StillImage" />
      </cc:Work>
    </rdf:RDF>
  </metadata>
  <defs
     id="defs8" />
  <sodipodi:namedview
     pagecolor="#ffffff"
     bordercolor="#666666"
     borderopacity="1"
     objecttolerance="10"
     gridtolerance="10"
     guidetolerance="10"
     inkscape:pageopacity="0"
     inkscape:pageshadow="2"
     inkscape:window-width="910"
     inkscape:window-height="614"
     id="namedview6"
     showgrid="false"
     inkscape:zoom="4.9166667"
     inkscape:cx="24"
     inkscape:cy="22.372881"
     inkscape:window-x="0"
     inkscape:window-y="25"
     inkscape:window-maximized="0"
     inkscape:current-layer="svg2" />
  <path
     d="M 1,28.5 C 1,29.88125 2.11875,31 3.5,31 h 8.125 c 1.38125,0 2.5,-1.11875 2.5,-2.5 l 0,-10 h 3.75 v 10 c 0,1.38125 1.11875,2.5 2.5,2.5 H 28.5 c 1.38125,0 2.5,-1.11875 2.5,-2.5 l 0,-16.25 c 0,-1.38125 -1.11875,-2.5 -2.5,-2.5 H 27.25 V 4.125 h 0.3125 c 0.8625,0 1.5625,-0.7 1.5625,-1.5625 C 29.125,1.7 28.425,1 27.5625,1 h -8.125 C 18.575,1 17.875,1.7 17.875,2.5625 c 0,0.8625 0.7,1.5625 1.5625,1.5625 H 19.75 V 9.75 h -7.5 V 4.125 h 0.3125 c 0.8625,0 1.5625,-0.7 1.5625,-1.5625 C 14.125,1.7 13.425,1 12.5625,1 H 4.4375 C 3.575,1 2.875,1.7 2.875,2.5625 c 0,0.8625 0.7,1.5625 1.5625,1.5625 H 4.75 V 9.75 H 3.5 C 2.11875,9.75 1,10.86875 1,12.25 V 28.5 z M 17.25,15.375 h -2.5 c -0.6875,0 -1.25,-0.5625 -1.25,-1.25 0,-0.6875 0.5625,-1.25 1.25,-1.25 h 2.5 c 0.6875,0 1.25,0.5625 1.25,1.25 0,0.6875 -0.5625,1.25 -1.25,1.25 z"
     id="path4"
     inkscape:connector-curvature="0"
     style="fill:#444444" />
</svg>
