<?xml version="1.0" encoding="UTF-8" standalone="no"?>
<!-- Generated by IcoMoon.io -->

<svg
   xmlns:dc="http://purl.org/dc/elements/1.1/"
   xmlns:cc="http://creativecommons.org/ns#"
   xmlns:rdf="http://www.w3.org/1999/02/22-rdf-syntax-ns#"
   xmlns:svg="http://www.w3.org/2000/svg"
   xmlns="http://www.w3.org/2000/svg"
   xmlns:sodipodi="http://sodipodi.sourceforge.net/DTD/sodipodi-0.dtd"
   xmlns:inkscape="http://www.inkscape.org/namespaces/inkscape"
   version="1.1"
   width="32"
   height="32"
   viewBox="0 0 32 32"
   id="svg2"
   inkscape:version="0.48.4 r9939"
   sodipodi:docname="information.svg">
  <metadata
     id="metadata10">
    <rdf:RDF>
      <cc:Work
         rdf:about="">
        <dc:format>image/svg+xml</dc:format>
        <dc:type
           rdf:resource="http://purl.org/dc/dcmitype/StillImage" />
        <dc:title></dc:title>
      </cc:Work>
    </rdf:RDF>
  </metadata>
  <defs
     id="defs8" />
  <sodipodi:namedview
     pagecolor="#ffffff"
     bordercolor="#666666"
     borderopacity="1"
     objecttolerance="10"
     gridtolerance="10"
     guidetolerance="10"
     inkscape:pageopacity="0"
     inkscape:pageshadow="2"
     inkscape:window-width="720"
     inkscape:window-height="480"
     id="namedview6"
     showgrid="false"
     inkscape:zoom="7.375"
     inkscape:cx="18.559322"
     inkscape:cy="14.915254"
     inkscape:window-x="0"
     inkscape:window-y="25"
     inkscape:window-maximized="0"
     inkscape:current-layer="svg2" />
  <path
     d="M 16,1 C 24.293846,1 31,7.7073077 31,16 31,24.292692 24.292692,31 16,31 7.7073077,31 1,24.292692 1,16 1,7.7073077 7.7073077,1 16,1 z m -0.288462,7.5 c -0.793846,0 -1.442307,0.6496154 -1.442307,1.4423077 0,0.7926923 0.649615,1.4423073 1.442307,1.4423073 0.792693,0 1.442308,-0.649615 1.442308,-1.4423073 C 17.153846,9.1496154 16.504231,8.5 15.711538,8.5 z m 2.596154,14.423077 v -0.576923 h -1.153846 v -9.230769 h -3.461538 v 0.576923 h 1.153846 v 8.653846 h -1.153846 v 0.576923 h 4.615384 z"
     id="path4"
     inkscape:connector-curvature="0"
     style="fill:#444444" />
</svg>
