<?xml version="1.0" encoding="UTF-8" standalone="no"?>
<!-- Generated by IcoMoon.io -->

<svg
   xmlns:dc="http://purl.org/dc/elements/1.1/"
   xmlns:cc="http://creativecommons.org/ns#"
   xmlns:rdf="http://www.w3.org/1999/02/22-rdf-syntax-ns#"
   xmlns:svg="http://www.w3.org/2000/svg"
   xmlns="http://www.w3.org/2000/svg"
   xmlns:sodipodi="http://sodipodi.sourceforge.net/DTD/sodipodi-0.dtd"
   xmlns:inkscape="http://www.inkscape.org/namespaces/inkscape"
   version="1.1"
   width="32"
   height="32"
   viewBox="0 0 32 32"
   id="svg3051"
   inkscape:version="0.48.4 r9939"
   sodipodi:docname="globe.svg">
  <metadata
     id="metadata3059">
    <rdf:RDF>
      <cc:Work
         rdf:about="">
        <dc:format>image/svg+xml</dc:format>
        <dc:type
           rdf:resource="http://purl.org/dc/dcmitype/StillImage" />
      </cc:Work>
    </rdf:RDF>
  </metadata>
  <defs
     id="defs3057" />
  <sodipodi:namedview
     pagecolor="#ffffff"
     bordercolor="#666666"
     borderopacity="1"
     objecttolerance="10"
     gridtolerance="10"
     guidetolerance="10"
     inkscape:pageopacity="0"
     inkscape:pageshadow="2"
     inkscape:window-width="929"
     inkscape:window-height="709"
     id="namedview3055"
     showgrid="false"
     inkscape:zoom="7.375"
     inkscape:cx="0.33898305"
     inkscape:cy="14.915254"
     inkscape:window-x="0"
     inkscape:window-y="25"
     inkscape:window-maximized="0"
     inkscape:current-layer="svg3051" />
  <path
     d="M 1,16 Q 1,11.91804 3.0114482,8.4704681 5.0228963,5.0228963 8.4704681,3.0114482 11.91804,1 16,1 q 4.08196,0 7.529532,2.0114482 3.447572,2.0114481 5.45902,5.4590199 Q 31,11.91804 31,16 q 0,4.08196 -2.011448,7.529532 -2.011448,3.447572 -5.45902,5.45902 Q 20.08196,31 16,31 11.91804,31 8.4704681,28.988552 5.0228963,26.977104 3.0114482,23.529532 1,20.08196 1,16 z M 5.414467,9.3782995 q 0.1367216,0.1367216 0.2340673,0.1564096 0.077658,0.019688 0.097346,0.1760974 0.019688,0.1564095 0.04922,0.2143794 0.029532,0.05797 0.2242234,-0.059064 0.1760974,0.1564091 0.059064,0.3707891 0.019688,-0.01969 0.8597055,0.527198 0.3707889,0.332508 0.4101648,0.410166 0.059064,0.214379 -0.1957854,0.351101 Q 7.132784,11.486 6.9763745,11.349278 6.819965,11.212557 6.8002771,11.27162 q -0.059064,0.09735 0.00984,0.360945 0.068908,0.2636 0.2056293,0.243912 -0.1367216,0 -0.1859413,0.312819 -0.04922,0.312819 -0.04922,0.693452 0,0.380632 -0.019688,0.459384 l 0.039376,0.01969 q -0.059064,0.234067 0.1071897,0.673764 0.1662535,0.439697 0.4200088,0.380633 -0.2537553,0.05906 0.3904769,0.840018 0.1170336,0.156409 0.1564095,0.176097 0.059064,0.03938 0.2340673,0.146565 0.1750037,0.10719 0.2931311,0.195786 0.1181275,0.08859 0.1957854,0.205629 0.077658,0.09735 0.1957853,0.439697 0.1181275,0.342351 0.2734432,0.459384 -0.039376,0.117034 0.1859414,0.390477 0.2253172,0.273443 0.2056293,0.449541 -0.019688,0 -0.04922,0.01969 -0.029532,0.01969 -0.04922,0.01969 0.059064,0.136721 0.3029751,0.273443 0.2439113,0.136721 0.302975,0.253755 0.019688,0.05906 0.039376,0.195785 0.01969,0.136722 0.05906,0.21438 0.03938,0.07766 0.15641,0.03938 0.03938,-0.390477 -0.4692288,-1.210807 -0.2931311,-0.487822 -0.332507,-0.566574 -0.059064,-0.09735 -0.1071897,-0.302975 -0.048126,-0.205629 -0.087502,-0.283287 0.039376,0 0.1170337,0.02953 0.077658,0.02953 0.1662534,0.06891 0.088596,0.03938 0.1465656,0.07766 0.05797,0.03828 0.039376,0.05906 -0.059064,0.136721 0.039376,0.342351 0.09844,0.205629 0.2340674,0.360945 0.1356274,0.155316 0.3325064,0.370789 0.19688,0.215473 0.234068,0.253755 0.117034,0.117034 0.273443,0.380633 0.15641,0.263599 0,0.263599 0.176097,0 0.390477,0.195786 0.214379,0.195785 0.332507,0.390476 0.09735,0.15641 0.156409,0.507511 0.05906,0.351101 0.09735,0.469229 0.03938,0.136721 0.166253,0.263599 0.126878,0.126877 0.243912,0.185941 l 0.312819,0.15641 q 0,0 0.253755,0.136721 0.09735,0.03938 0.360945,0.20563 0.263599,0.166253 0.420009,0.224223 0.195785,0.07766 0.312819,0.07766 0.117033,0 0.283287,-0.04922 0.166253,-0.04922 0.263599,-0.06891 0.293131,-0.03937 0.566574,0.293131 0.273444,0.332507 0.410165,0.410165 0.703296,0.370789 1.074085,0.21438 -0.03938,0.01969 0.0098,0.146565 0.04922,0.126878 0.15641,0.302975 0.107189,0.176098 0.176097,0.283288 0.06891,0.107189 0.10719,0.166253 0.09735,0.117034 0.351101,0.293131 0.253755,0.176098 0.351101,0.293131 0.117034,-0.07766 0.136722,-0.176097 -0.05906,0.156409 0.136721,0.390477 0.195785,0.234067 0.351101,0.195785 0.273443,-0.05906 0.273443,-0.624544 -0.60595,0.293131 -0.957051,-0.351101 0,-0.01969 -0.04922,-0.10719 -0.04922,-0.0875 -0.07766,-0.166254 -0.02844,-0.07875 -0.04922,-0.166253 -0.02078,-0.0875 0,-0.146566 0.02078,-0.05906 0.09735,-0.05906 0.176097,0 0.195785,-0.06891 0.01969,-0.06891 -0.03938,-0.243911 -0.05906,-0.175004 -0.07766,-0.253756 -0.01969,-0.156409 -0.214379,-0.390476 -0.194692,-0.234068 -0.234068,-0.293132 -0.09735,0.176098 -0.312819,0.15641 -0.215473,-0.01969 -0.312819,-0.176097 0,0.01969 -0.02953,0.107189 -0.02953,0.0875 -0.02953,0.126878 -0.253756,0 -0.293132,-0.01969 0.01969,-0.05906 0.04922,-0.342351 0.02953,-0.283287 0.06891,-0.439697 0.01969,-0.07766 0.10719,-0.234067 0.0875,-0.156409 0.146565,-0.283287 0.05906,-0.126878 0.07766,-0.243911 0.01859,-0.117034 -0.0875,-0.185942 -0.106096,-0.06891 -0.342351,-0.04922 -0.370789,0.01969 -0.50751,0.390477 -0.01969,0.05906 -0.05906,0.20563 -0.03938,0.146565 -0.09735,0.224223 -0.05797,0.07766 -0.176097,0.136722 -0.136722,0.05906 -0.469229,0.03938 -0.332467,-0.01969 -0.469188,-0.09735 -0.253755,-0.15641 -0.439697,-0.566575 -0.185941,-0.410164 -0.185941,-0.722983 0,-0.195786 0.04922,-0.517355 0.04922,-0.321569 0.05906,-0.487823 0.0098,-0.166253 -0.107189,-0.479072 0.05906,-0.03938 0.176097,-0.185942 0.117034,-0.146565 0.195785,-0.205629 0.03938,-0.01969 0.0875,-0.02953 0.04813,-0.0098 0.0875,0 0.03938,0.0098 0.07766,-0.02953 0.03828,-0.03937 0.05906,-0.117033 -0.01969,-0.01969 -0.07766,-0.05906 -0.05906,-0.05906 -0.07766,-0.05906 0.136721,0.05906 0.55673,-0.02953 0.420009,-0.08859 0.537043,0.02953 0.293131,0.21438 0.429852,-0.03937 0,-0.01969 -0.04922,-0.185942 -0.04922,-0.166253 -0.0098,-0.263599 0.09735,0.527198 0.566574,0.176097 0.05906,0.05906 0.302975,0.09735 0.243911,0.03828 0.342351,0.09735 0.05906,0.03938 0.136721,0.10719 0.07766,0.06781 0.10719,0.0875 0.02953,0.01969 0.09735,-0.0098 0.06781,-0.02953 0.166253,-0.126877 0.195786,0.273443 0.234068,0.469228 0.214379,0.780954 0.370789,0.859706 0.136721,0.05906 0.214379,0.03938 0.07766,-0.01969 0.0875,-0.185942 0.0098,-0.166253 0,-0.273443 -0.0098,-0.10719 -0.02953,-0.243911 l -0.01969,-0.15641 v -0.351101 l -0.01969,-0.156409 q -0.293131,-0.05906 -0.360945,-0.234068 -0.06781,-0.175003 0.02953,-0.360945 0.09735,-0.185941 0.293131,-0.360945 0.01969,-0.01969 0.15641,-0.06891 0.136721,-0.04922 0.302975,-0.126877 0.166253,-0.07766 0.243911,-0.15641 0.410165,-0.370789 0.293131,-0.683608 0.136722,0 0.21438,-0.176097 -0.01969,0 -0.09735,-0.05906 -0.07766,-0.05906 -0.146566,-0.09735 -0.06891,-0.03828 -0.0875,-0.03937 0.176097,-0.09735 0.03937,-0.312819 0.09735,-0.05906 0.146566,-0.21438 0.04922,-0.155316 0.146566,-0.195785 0.176097,0.234067 0.410164,0.03938 0.136722,-0.15641 0.01969,-0.312819 0.09735,-0.136722 0.400321,-0.20563 0.302975,-0.06891 0.360945,-0.185941 0.136722,0.03938 0.15641,-0.03938 0.01969,-0.07875 0.01969,-0.234067 0,-0.155316 0.05906,-0.234068 0.07766,-0.09735 0.293131,-0.176097 0.215474,-0.07875 0.253756,-0.09735 L 21.7642,12.265939 q 0.05906,-0.07766 0,-0.07766 0.351101,0.03938 0.60595,-0.21438 0.195785,-0.214379 -0.117034,-0.390477 0.05906,-0.117033 -0.05906,-0.185941 -0.118127,-0.06891 -0.293131,-0.10719 0.05906,-0.01969 0.224224,-0.0098 0.165159,0.0098 0.205629,-0.02953 0.293131,-0.195785 -0.136722,-0.312819 -0.332507,-0.09735 -0.840017,0.234067 -0.03938,0.01969 -0.185942,0.185941 -0.146565,0.166254 -0.263599,0.185942 0.03938,0 0.0875,-0.09735 0.04813,-0.09735 0.09735,-0.214379 0.04922,-0.117034 0.06891,-0.136722 0.117034,-0.136721 0.429853,-0.293131 0.273443,-0.117034 1.016115,-0.234067 0.66392,-0.15641 0.996427,0.214379 -0.03938,-0.03938 0.185941,-0.253755 0.225318,-0.214379 0.283288,-0.234067 0.05906,-0.03938 0.293131,-0.0875 0.234067,-0.04813 0.293131,-0.146566 l 0.03938,-0.4298527 Q 24.46146,9.650649 24.353177,9.4942395 24.244893,9.33783 24.226299,9.0840747 q 0,0.039376 -0.117034,0.1564095 0,-0.1367216 -0.0875,-0.1564095 -0.0875,-0.019688 -0.224224,0.019688 -0.136756,0.039376 -0.176132,0.019688 -0.195786,-0.059064 -0.293131,-0.1465656 -0.09735,-0.087502 -0.15641,-0.3226629 -0.05906,-0.2351612 -0.07766,-0.2931311 -0.03938,-0.097346 -0.185941,-0.2056293 -0.146566,-0.1082835 -0.185941,-0.2056293 -0.01969,-0.039376 -0.04922,-0.1071897 -0.02953,-0.067814 -0.05906,-0.1268777 -0.02953,-0.059064 -0.07766,-0.1071897 -0.04813,-0.048126 -0.10719,-0.04922 -0.05906,-0.00109 -0.136721,0.097346 -0.07766,0.098439 -0.146566,0.1957853 -0.06891,0.097346 -0.0875,0.097346 -0.05906,-0.039376 -0.117033,-0.029532 -0.05797,0.00984 -0.0875,0.019688 -0.02954,0.00984 -0.08751,0.059064 -0.05797,0.04922 -0.09735,0.068908 -0.05906,0.039376 -0.166253,0.059064 -0.10719,0.019688 -0.166254,0.039376 0.293132,-0.097346 -0.01969,-0.2143795 Q 21.121033,7.8743632 21.004,7.8929572 21.180097,7.8152992 21.150565,7.6588898 21.121035,7.5024803 20.984312,7.3854466 h 0.09735 Q 21.06198,7.3077877 20.915415,7.2191921 20.768849,7.1305965 20.573064,7.0529386 20.377279,6.9752807 20.319309,6.9359049 q -0.15641,-0.097346 -0.66392,-0.1859414 -0.507511,-0.088596 -0.644233,-0.00984 -0.09735,0.1170337 -0.0875,0.2056293 0.0098,0.088596 0.07766,0.2734432 0.06781,0.1848476 0.06891,0.2439113 0.01969,0.1170337 -0.10719,0.2537553 -0.126877,0.1367216 -0.126877,0.2340674 0,0.1367216 0.273443,0.302975 0.273443,0.1662535 0.195785,0.4200088 -0.05906,0.1564095 -0.312819,0.312819 -0.253755,0.1564095 -0.312819,0.2340674 -0.09734,0.1564095 -0.02953,0.360945 0.06781,0.2045355 0.20563,0.322663 0.03938,0.039376 0.02953,0.077658 -0.0098,0.038282 -0.06891,0.087502 -0.05906,0.04922 -0.10719,0.07766 -0.04813,0.02844 -0.126877,0.06891 l -0.05906,0.03938 Q 18.308954,10.352851 18.123013,10.138472 17.937072,9.9240922 17.859414,9.6309611 17.722692,9.1431384 17.546595,9.0446988 17.097054,8.8882893 16.98002,9.0643868 16.882675,8.8106315 16.179379,8.5568762 15.691556,8.3807788 15.04623,8.4792183 q 0.117034,-0.019688 0,-0.2931311 -0.136721,-0.2931311 -0.370789,-0.2340674 0.05906,-0.1170337 0.07766,-0.3423508 0.01859,-0.2253172 0.01969,-0.2635993 0.05906,-0.2537553 0.234067,-0.4495406 0.01969,-0.019688 0.136722,-0.1662535 0.117034,-0.1465655 0.185941,-0.2635992 0.06891,-0.1170337 0.0098,-0.1170337 0.683608,0.077658 0.976739,-0.2143795 0.09735,-0.097346 0.224224,-0.3325069 0.126877,-0.2351611 0.205629,-0.3325069 0.176097,-0.1170337 0.273443,-0.1071898 0.09735,0.00984 0.283287,0.1071898 0.185942,0.097346 0.283288,0.097346 0.273443,0.019688 0.302975,-0.2143795 0.02953,-0.2340674 -0.146566,-0.3904769 0.234067,0.019688 0.05906,-0.3325069 -0.09735,-0.1367216 -0.15641,-0.1760974 -0.234067,-0.077658 -0.527198,0.097346 -0.15641,0.077658 0.03938,0.1564095 -0.01965,-0.019688 -0.185902,0.2056293 -0.166253,0.2253172 -0.322663,0.3423509 -0.156409,0.1170337 -0.312819,-0.097346 -0.01969,-0.019688 -0.107189,-0.2635992 -0.0875,-0.2439113 -0.185942,-0.2635992 -0.156409,0 -0.312819,0.2931311 Q 15.788902,4.7680473 15.515459,4.6313257 15.242015,4.4946041 15.04623,4.4749161 15.417019,4.2408488 14.889821,3.9477177 14.753099,3.8700598 14.4895,3.8503719 q -0.263599,-0.019688 -0.380633,0.077658 -0.09735,0.1367215 -0.10719,0.2242234 -0.0098,0.087502 0.09735,0.1564095 0.10719,0.068908 0.205629,0.1071897 0.09844,0.038282 0.224224,0.077658 0.125783,0.039376 0.166253,0.059064 0.273443,0.1957853 0.15641,0.2734432 -0.03938,0.019688 -0.166254,0.068908 -0.126878,0.04922 -0.224223,0.087502 -0.09735,0.038282 -0.117034,0.077658 -0.05906,0.077658 0,0.2734432 0.05906,0.1957853 -0.03938,0.2734432 -0.09735,-0.097346 -0.176097,-0.3423509 -0.07875,-0.2450051 -0.136722,-0.322663 0.136722,0.1760974 -0.487822,0.1170337 l -0.195786,-0.019688 q -0.07766,0 -0.312819,0.039376 -0.235161,0.039376 -0.400321,0.019688 -0.165159,-0.019688 -0.263599,-0.1564095 -0.07766,-0.1564095 0,-0.3904769 0.01969,-0.077658 0.07766,-0.039376 -0.07766,-0.059065 -0.21438,-0.1859425 -0.136723,-0.1268776 -0.195787,-0.1662534 -0.897987,0.2931311 -1.836444,0.8006417 0.117033,0.019688 0.234067,-0.019688 0.09735,-0.039376 0.253755,-0.1268777 0.15641,-0.087502 0.195786,-0.1071897 0.66392,-0.2734432 0.820329,-0.1367216 l 0.09735,-0.097346 q 0.273439,0.312819 0.390473,0.4878227 -0.136722,-0.077658 -0.586262,-0.019688 -0.390477,0.1170336 -0.429853,0.2340673 0.136722,0.2340674 0.09735,0.3511011 -0.07766,-0.059063 -0.224228,-0.195785 -0.146565,-0.1367216 -0.283287,-0.2143795 -0.136721,-0.077658 -0.293131,-0.097346 -0.312819,0 -0.429853,0.019688 Q 7.1535657,6.6012104 5.4155607,9.3739245 z M 18.129576,27.992125 q 0,0.117034 0.03937,0.312819 4.023991,-0.703296 6.855768,-3.691483 -0.05906,-0.05906 -0.243911,-0.0875 -0.184848,-0.02844 -0.243911,-0.06891 -0.351101,-0.136721 -0.469229,-0.156409 0.01969,-0.136722 -0.04922,-0.253756 -0.06891,-0.117033 -0.156409,-0.176097 -0.0875,-0.05906 -0.243912,-0.15641 -0.156409,-0.09735 -0.214379,-0.136721 -0.03938,-0.03938 -0.136722,-0.117034 -0.09735,-0.07766 -0.136721,-0.10719 -0.03938,-0.02953 -0.146566,-0.0875 -0.107189,-0.05797 -0.166253,-0.03938 -0.05906,0.01859 -0.195786,0.01969 l -0.05906,0.01969 q -0.05906,0.01969 -0.10719,0.04922 -0.04813,0.02953 -0.10719,0.05906 -0.05906,0.02953 -0.07766,0.05906 -0.01859,0.02953 0,0.04922 -0.410164,-0.332507 -0.703296,-0.429853 -0.09735,-0.01969 -0.214379,-0.10719 -0.117034,-0.0875 -0.205629,-0.136721 -0.0886,-0.04922 -0.195786,-0.02953 -0.107189,0.01969 -0.224223,0.136721 -0.09735,0.09735 -0.117034,0.293131 -0.01969,0.195786 -0.03938,0.253756 -0.136721,-0.09735 0,-0.342351 0.136722,-0.245005 0.03938,-0.360945 -0.05906,-0.117034 -0.205629,-0.0875 -0.146566,0.02953 -0.234067,0.0875 -0.0875,0.05797 -0.224224,0.166253 -0.136721,0.108284 -0.176097,0.126878 -0.03938,0.01859 -0.166254,0.10719 -0.126877,0.08859 -0.166253,0.146565 -0.05906,0.07766 -0.117034,0.234068 -0.05797,0.156409 -0.09735,0.214379 -0.03937,-0.07766 -0.224223,-0.126878 -0.184848,-0.04922 -0.185941,-0.107189 0.03937,0.195785 0.07766,0.683608 0.03828,0.487822 0.09735,0.742671 0.136722,0.605951 -0.234067,0.937364 -0.527199,0.487822 -0.566574,0.780953 -0.07766,0.429853 0.234067,0.507511 0,0.136722 -0.15641,0.400321 -0.156409,0.263599 -0.136721,0.420009 z"
     id="path3053"
     inkscape:connector-curvature="0"
     style="fill:#444444" />
</svg>
