<?xml version="1.0" encoding="UTF-8" standalone="no"?>
<!-- Generated by IcoMoon.io -->

<svg
   xmlns:dc="http://purl.org/dc/elements/1.1/"
   xmlns:cc="http://creativecommons.org/ns#"
   xmlns:rdf="http://www.w3.org/1999/02/22-rdf-syntax-ns#"
   xmlns:svg="http://www.w3.org/2000/svg"
   xmlns="http://www.w3.org/2000/svg"
   xmlns:sodipodi="http://sodipodi.sourceforge.net/DTD/sodipodi-0.dtd"
   xmlns:inkscape="http://www.inkscape.org/namespaces/inkscape"
   version="1.1"
   width="32"
   height="32"
   viewBox="0 0 32 32"
   id="svg2"
   inkscape:version="0.48.4 r9939"
   sodipodi:docname="hyperlink.svg">
  <metadata
     id="metadata10">
    <rdf:RDF>
      <cc:Work
         rdf:about="">
        <dc:format>image/svg+xml</dc:format>
        <dc:type
           rdf:resource="http://purl.org/dc/dcmitype/StillImage" />
      </cc:Work>
    </rdf:RDF>
  </metadata>
  <defs
     id="defs8" />
  <sodipodi:namedview
     pagecolor="#ffffff"
     bordercolor="#666666"
     borderopacity="1"
     objecttolerance="10"
     gridtolerance="10"
     guidetolerance="10"
     inkscape:pageopacity="0"
     inkscape:pageshadow="2"
     inkscape:window-width="989"
     inkscape:window-height="765"
     id="namedview6"
     showgrid="false"
     inkscape:zoom="3.6875"
     inkscape:cx="24.946531"
     inkscape:cy="-14.342955"
     inkscape:window-x="0"
     inkscape:window-y="25"
     inkscape:window-maximized="0"
     inkscape:current-layer="svg2" />
  <path
     d="M 29.125,18.8125 V 14.125 c 0,-1.550625 -1.261875,-2.8125 -2.8125,-2.8125 -0.500625,0 -0.97125,0.13125 -1.38,0.361875 C 24.431875,10.8925 23.55625,10.375 22.5625,10.375 c -0.72,0 -1.37625,0.271875 -1.875,0.718125 -0.49875,-0.44625 -1.155,-0.718125 -1.875,-0.718125 -0.328125,0 -0.645,0.05625 -0.9375,0.16125 V 3.8125 C 17.875,2.261875 16.613125,1 15.0625,1 13.511875,1 12.25,2.261875 12.25,3.8125 V 15.375625 L 7.09375,12.626875 C 6.668125,12.38125 6.1825,12.25 5.6875,12.25 c -1.550625,0 -2.8125,1.261875 -2.8125,2.8125 0,0.7725 0.3075,1.4925 0.864375,2.02875 0.0075,0.0075 0.015,0.01313 0.0225,0.02063 L 10.76875,23.5 H 9.4375 C 8.92,23.5 8.5,23.92 8.5,24.4375 v 5.625 C 8.5,30.58 8.92,31 9.4375,31 h 18.75 c 0.5175,0 0.9375,-0.42 0.9375,-0.9375 v -5.625 C 29.125,23.92 28.705,23.5 28.1875,23.5 h -1.295625 l 2.13375,-4.2675 c 0.06562,-0.129375 0.09937,-0.27375 0.09937,-0.42 z m -1.875,7.5 c 0,0.5175 -0.42,0.9375 -0.9375,0.9375 -0.5175,0 -0.9375,-0.42 -0.9375,-0.9375 0,-0.5175 0.42,-0.9375 0.9375,-0.9375 0.5175,0 0.9375,0.42 0.9375,0.9375 z m 0,-7.72125 L 24.795625,23.5 H 13.55125 l -8.52,-7.768125 C 4.849375,15.55375 4.75,15.3175 4.75,15.0625 c 0,-0.5175 0.42,-0.9375 0.9375,-0.9375 0.159375,0 0.31125,0.0375 0.448125,0.114375 0.015,0.0094 0.031875,0.01875 0.046875,0.02625 l 6.5625,3.49875 c 0.290625,0.155625 0.64125,0.14625 0.9225,-0.0225 0.28125,-0.16875 0.455625,-0.474375 0.455625,-0.804375 V 3.8125 c 0,-0.5175 0.42,-0.9375 0.9375,-0.9375 0.5175,0 0.9375,0.42 0.9375,0.9375 v 9.375 c 0,0.5175 0.42,0.9375 0.9375,0.9375 0.5175,0 0.9375,-0.42 0.9375,-0.9375 0,-0.5175 0.42,-0.9375 0.9375,-0.9375 0.5175,0 0.9375,0.42 0.9375,0.9375 0,0.5175 0.42,0.9375 0.9375,0.9375 0.5175,0 0.9375,-0.42 0.9375,-0.9375 0,-0.5175 0.42,-0.9375 0.9375,-0.9375 0.5175,0 0.9375,0.42 0.9375,0.9375 v 0.9375 c 0,0.5175 0.42,0.9375 0.9375,0.9375 0.5175,0 0.9375,-0.42 0.9375,-0.9375 0,-0.5175 0.42,-0.9375 0.9375,-0.9375 0.5175,0 0.9375,0.42 0.9375,0.9375 v 4.46625 z"
     id="path4"
     inkscape:connector-curvature="0"
     style="fill:#444444" />
</svg>
