<?xml version="1.0" encoding="UTF-8" standalone="no"?>
<!-- Generated by IcoMoon.io -->

<svg
   xmlns:dc="http://purl.org/dc/elements/1.1/"
   xmlns:cc="http://creativecommons.org/ns#"
   xmlns:rdf="http://www.w3.org/1999/02/22-rdf-syntax-ns#"
   xmlns:svg="http://www.w3.org/2000/svg"
   xmlns="http://www.w3.org/2000/svg"
   xmlns:sodipodi="http://sodipodi.sourceforge.net/DTD/sodipodi-0.dtd"
   xmlns:inkscape="http://www.inkscape.org/namespaces/inkscape"
   version="1.1"
   width="32"
   height="32"
   viewBox="0 0 32 32"
   id="svg2"
   inkscape:version="0.48.4 r9939"
   sodipodi:docname="topics2.svg">
  <metadata
     id="metadata10">
    <rdf:RDF>
      <cc:Work
         rdf:about="">
        <dc:format>image/svg+xml</dc:format>
        <dc:type
           rdf:resource="http://purl.org/dc/dcmitype/StillImage" />
        <dc:title></dc:title>
      </cc:Work>
    </rdf:RDF>
  </metadata>
  <defs
     id="defs8" />
  <sodipodi:namedview
     pagecolor="#ffffff"
     bordercolor="#666666"
     borderopacity="1"
     objecttolerance="10"
     gridtolerance="10"
     guidetolerance="10"
     inkscape:pageopacity="0"
     inkscape:pageshadow="2"
     inkscape:window-width="1920"
     inkscape:window-height="1028"
     id="namedview6"
     showgrid="false"
     inkscape:zoom="11.313709"
     inkscape:cx="30.483715"
     inkscape:cy="25.403111"
     inkscape:window-x="0"
     inkscape:window-y="25"
     inkscape:window-maximized="1"
     inkscape:current-layer="svg2" />
  <path
     id="path3997"
     style="fill:#444444"
     d="m 10.580001,13.76649 c -0.367928,-0.194974 -0.347394,-0.49033 0.04398,-0.63252 l 7.363195,-2.960749 c 0.174445,-0.07259 0.43027,-0.09749 0.683142,-0.07989 0.252874,0.01759 0.502795,0.07766 0.665515,0.173656 l 6.882684,3.951124 c 0.367926,0.194974 0.347393,0.490332 -0.04398,0.632522 l -7.363198,2.960749 c -0.174441,0.07259 -0.430268,0.09749 -0.683139,0.07987 -0.252877,-0.01758 -0.502794,-0.07766 -0.66552,-0.173653 z m 15.347744,4.624318 c 0.367928,0.194976 0.344487,0.532138 -0.04687,0.674329 l -7.360291,2.918939 c -0.174441,0.0726 -0.433172,0.139287 -0.68605,0.121705 -0.252871,-0.01757 -0.499885,-0.119461 -0.662607,-0.215461 l -6.885586,-3.909319 c -0.3679266,-0.194977 -0.344487,-0.532141 0.04688,-0.674331 0,0 1.176381,-0.469096 1.43802,-0.577616 0.219879,-0.112098 0.30417,-0.106247 0.548231,0.03812 0.244059,0.144354 5.008443,2.889144 5.008443,2.889144 0.162723,0.09603 0.412642,0.156076 0.665517,0.173655 0.252871,0.01758 0.508698,-0.0073 0.683142,-0.07987 0,0 5.272845,-2.132376 5.447286,-2.204947 0.174442,-0.07259 0.216923,-0.06963 0.379648,0.02639 0.16272,0.09603 1.425597,0.819384 1.425597,0.819384 z m -0.292998,4.214558 c 0.367928,0.194975 0.347397,0.49033 -0.04398,0.63252 l -7.363195,2.960749 c -0.174443,0.07259 -0.430269,0.09749 -0.683143,0.07987 -0.252874,-0.01759 -0.502794,-0.07766 -0.665515,-0.173655 l -6.8826775,-3.9511 c -0.3679284,-0.194975 -0.3473955,-0.490332 0.043976,-0.632521 0,0 1.179285,-0.510908 1.440973,-0.620101 0.219876,-0.112109 0.301216,-0.06376 0.545277,0.0806 0.244057,0.144356 5.011345,2.847337 5.011345,2.847337 0.162726,0.09603 0.412645,0.156074 0.66552,0.173655 0.252874,0.01758 0.508702,-0.0072 0.683141,-0.07987 0,0 5.269892,-2.089898 5.444332,-2.162465 0.174443,-0.07259 0.216928,-0.06965 0.379648,0.02638 0.162723,0.09603 1.4256,0.819385 1.4256,0.819385 z M 22.789042,2.001272 1.4818162,3.3902094 C 0.65095122,3.4876644 0.06075508,4.1672757 0.08602426,4.9403671 L 1.1759357,21.859487 c 0.073432,0.769997 0.743987,1.41131 1.5804624,1.401565 l 1.2196245,-0.08035 -0.253779,3.337246 c -0.036089,0.864762 0.6134877,1.643002 1.5366215,1.760035 L 28.932171,29.99777 c 0.933321,0.04529 1.7161,-0.60547 1.752186,-1.470231 L 32.077115,9.5076271 C 32.166736,8.6467925 31.505449,7.8757388 30.575489,7.7843264 L 24.603263,7.3621504 24.334509,3.3661023 C 24.309236,2.593011 23.62847,1.9680064 22.789042,2.001272 z m -0.907919,1.9435003 c 0.383715,-0.044999 0.732285,0.1020484 0.777154,0.4848127 l -0.0025,0.1077835 c 0.06611,0.7659755 0.133093,1.9773094 0.192312,2.7435809 L 6.8663837,6.0637292 C 5.9361048,6.044775 5.2030182,6.7090556 5.1133923,7.5698902 l -1.02036,13.6318448 c -0.084047,0.0074 -0.3257623,0.03561 -0.4099883,0.04082 -0.3863027,0.0045 -0.7081102,-0.235756 -0.7755473,-0.55667 l 0.0016,-0.07186 C 2.62789,15.753689 2.3046773,10.681758 1.9620163,5.9157227 l 8.076e-4,-0.035927 C 1.9888205,5.5528732 2.2745922,5.2575044 2.6583042,5.2124991 8.8898528,4.7899941 15.648159,4.3455102 21.881123,3.9447723 z M 7.7686504,8.2067568 C 14.69895,8.6907596 22.457326,9.2367252 29.38588,9.7450666 c 0.429624,0.0087 0.781856,0.2333 0.773136,0.6644514 l -0.0025,0.107784 c -0.26817,5.290731 -0.745166,11.474218 -1.209624,16.749381 l -0.0025,0.107785 c -0.05387,0.42784 -0.444944,0.57359 -0.871271,0.519551 C 21.14414,27.392323 13.384912,26.80923 6.457632,26.283849 6.031353,26.229793 5.711692,25.913581 5.6861491,25.547545 l 0.0016,-0.07186 C 6.1164074,20.04504 6.5475362,14.205538 6.8941646,8.8700182 l 0.0016,-0.071853 C 6.9740872,8.4397428 7.339027,8.1980034 7.7686504,8.2067568 z" />
</svg>
