<svg display="none" width="0" height="0" version="1.1" xmlns="http://www.w3.org/2000/svg" xmlns:xlink="http://www.w3.org/1999/xlink">
<defs>
<symbol id="icon-arrow-down" viewBox="0 0 1024 1024">
	<title>arrow-down</title>
	<path class="path1" d="M64 329.051q0-11.428 8.998-20.246l44.89-43.988q8.998-8.817 20.661-8.817t20.661 8.817l352.79 345.701 352.79-345.701q8.998-8.817 20.661-8.817t20.661 8.817l44.89 43.988q8.998 8.817 8.998 20.246t-8.998 20.246l-418.291 409.886q-8.998 8.817-20.661 8.817t-20.661-8.817l-418.291-409.886q-8.998-8.817-8.998-20.246z"></path>
</symbol>
<symbol id="icon-arrow-left" viewBox="0 0 1024 1024">
	<title>arrow-left</title>
	<path class="path1" d="M694.949 64q11.428 0 20.246 8.998l43.988 44.89q8.817 8.998 8.817 20.661t-8.817 20.661l-345.701 352.79 345.701 352.79q8.817 8.998 8.817 20.661t-8.817 20.661l-43.988 44.89q-8.817 8.998-20.246 8.998t-20.246-8.998l-409.886-418.291q-8.817-8.998-8.817-20.661t8.817-20.661l409.886-418.291q8.817-8.998 20.246-8.998z"></path>
</symbol>
<symbol id="icon-arrow-right" viewBox="0 0 1024 1024">
	<title>arrow-right</title>
	<path class="path1" d="M329.051 960q-11.428 0-20.246-8.998l-43.988-44.89q-8.817-8.998-8.817-20.661t8.817-20.661l345.701-352.79-345.701-352.79q-8.817-8.998-8.817-20.661t8.817-20.661l43.988-44.89q8.817-8.998 20.246-8.998t20.246 8.998l409.886 418.291q8.817 8.998 8.817 20.661t-8.817 20.661l-409.886 418.291q-8.817 8.998-20.246 8.998z"></path>
</symbol>
<symbol id="icon-arrow-up" viewBox="0 0 1024 1024">
	<title>arrow-up</title>
	<path class="path1" d="M64.101 694.949q0-11.428 8.998-20.246l418.291-409.886q8.998-8.817 20.661-8.817t20.661 8.817l418.291 409.886q8.998 8.817 8.998 20.246t-8.998 20.246l-44.89 43.988q-8.998 8.817-20.661 8.817t-20.661-8.817l-352.79-345.701-352.79 345.701q-8.998 8.817-20.661 8.817t-20.661-8.817l-44.89-43.988q-8.998-8.817-8.998-20.246z"></path>
</symbol>
<symbol id="icon-base-layer" viewBox="0 0 1024 1024">
	<title>base-layer</title>
	<path class="path1" d="M964.482 32c14.999 0 27.518 12.519 27.518 27.519v804.966c0 12.519-7.519 22.519-17.519 24.999l-302.495 102.516-319.973-112.515c0 0-262.498 102.516-269.978 104.996s-17.519 7.52-22.518 7.52c-14.999 0-27.518-12.519-27.518-27.519v-804.966c0-12.519 7.519-22.519 17.519-24.999l302.495-102.516 319.973 112.515c0 0 257.499-99.996 269.978-104.996s17.519-7.52 22.518-7.52zM671.987 884.484v-634.974l-319.973-109.995v634.974z"></path>
</symbol>
<symbol id="icon-binocular" viewBox="0 0 1024 1024">
	<title>binocular</title>
	<path class="path1" d="M32 912c0 44.2 35.8 80 80 80h260c44.2 0 80-35.8 80-80v-320h120v320c0 44.2 35.8 80 80 80h260c44.2 0 80-35.8 80-80v-520c0-44.2-35.8-80-80-80h-40v-180h10c27.6 0 50-22.4 50-50s-22.4-50-50-50h-260c-27.6 0-50 22.4-50 50s22.4 50 50 50h10v180h-240v-180h10c27.6 0 50-22.4 50-50s-22.4-50-50-50h-260c-27.6 0-50 22.4-50 50s22.4 50 50 50h10v180h-40c-44.2 0-80 35.8-80 80v520zM552 492h-80c-22 0-40-18-40-40s18-40 40-40h80c22 0 40 18 40 40s-18 40-40 40z"></path>
</symbol>
<symbol id="icon-check" viewBox="0 0 1024 1024">
	<title>check</title>
	<path class="path1" d="M69.152 530.272q0-22.848 16-38.848l77.728-77.728q16-16 38.848-16t38.848 16l168 168.576 374.848-375.424q16-16 38.848-16t38.848 16l77.728 77.728q16 16 16 38.848t-16 38.848l-491.424 491.424q-16 16-38.848 16t-38.848-16l-284.576-284.576q-16-16-16-38.848z"></path>
</symbol>
<symbol id="icon-checkbox-border" viewBox="0 0 1024 1024">
	<title>checkbox-border</title>
	<path class="path1" d="M32.111 751.919v-479.977q0-68.651 48.75-117.402t117.402-48.75h479.977q68.651 0 117.402 48.75t48.75 117.402v479.977q0 68.651-48.75 117.402t-117.402 48.75h-479.977q-68.651 0-117.402-48.75t-48.75-117.402zM105.964 751.919q0 38.089 27.105 65.194t65.194 27.105h479.977q38.089 0 65.194-27.105t27.105-65.194v-479.977q0-38.089-27.105-65.194t-65.194-27.105h-479.977q-38.089 0-65.194 27.105t-27.105 65.194v479.977z"></path>
</symbol>
<symbol id="icon-checkbox-checked" viewBox="0 0 1024 1024">
	<title>checkbox-checked</title>
	<path class="path1" d="M32.065 752.121v-480.242q0-68.689 48.777-117.467t117.467-48.777h480.242q36.365 0 67.526 14.417 8.663 4.041 10.376 13.285 1.746 9.827-5.204 16.744l-28.284 28.284q-5.786 5.786-13.285 5.786-1.746 0-5.204-1.164-13.285-3.459-25.989-3.459h-480.242q-38.11 0-65.23 27.12t-27.12 65.23v480.242q0 38.11 27.12 65.23t65.23 27.12h480.242q38.11 0 65.23-27.12t27.12-65.23v-146.623q0-7.499 5.204-12.703l36.947-36.947q5.786-5.786 13.285-5.786 3.459 0 6.917 1.746 11.54 4.622 11.54 16.744v183.57q0 68.689-48.777 117.467t-117.467 48.777h-480.242q-68.689 0-117.467-48.777t-48.777-117.467zM180.401 475.037q0-19.039 13.867-32.906l63.485-63.485q13.867-13.867 32.906-13.867t32.906 13.867l151.795 151.795 373.475-373.475q13.867-13.867 32.906-13.867t32.906 13.867l63.485 63.485q13.867 13.867 13.867 32.906t-13.867 32.906l-469.866 469.866q-13.867 13.867-32.906 13.867t-32.906-13.867l-248.218-248.218q-13.867-13.867-13.867-32.906z"></path>
</symbol>
<symbol id="icon-checkbox-indeterminate" viewBox="0 0 1024 1024">
	<title>checkbox-indeterminate</title>
	<path class="path1" d="M198.252 474.944h480v73.971h-480zM32.111 751.919v-479.977q0-68.651 48.75-117.402t117.402-48.75h479.977q68.651 0 117.402 48.75t48.75 117.402v479.977q0 68.651-48.75 117.402t-117.402 48.75h-479.977q-68.651 0-117.402-48.75t-48.75-117.402zM105.964 751.919q0 38.089 27.105 65.194t65.194 27.105h479.977q38.089 0 65.194-27.105t27.105-65.194v-479.977q0-38.089-27.105-65.194t-65.194-27.105h-479.977q-38.089 0-65.194 27.105t-27.105 65.194v479.977z"></path>
</symbol>
<symbol id="icon-circle-i" viewBox="0 0 1024 1024">
	<title>circle-i</title>
	<path class="path1" d="M512 32c265.403 0 480 214.634 480 480s-214.634 480-480 480c-265.366 0-480-214.634-480-480s214.634-480 480-480zM502.769 272c-25.403 0-46.154 20.788-46.154 46.154s20.788 46.154 46.154 46.154c25.366 0 46.154-20.788 46.154-46.154s-20.788-46.154-46.154-46.154zM585.846 733.538v-18.462h-36.923v-295.385h-110.769v18.462h36.923v276.923h-36.923v18.462h147.692z"></path>
</symbol>
<symbol id="icon-circle-i-outline" viewBox="0 0 1024 1024">
	<title>circle-i-outline</title>
	<path class="path1" d="M448.578 291.484c0-8.937 1.49-16.614 4.469-23.031 3.208-6.416 7.448-11.572 12.719-15.469 5.5-4.124 11.802-7.104 18.906-8.938 7.333-2.062 15.239-3.093 23.719-3.094 8.021 0.001 15.698 1.032 23.031 3.094 7.333 1.834 13.75 4.813 19.25 8.938 5.5 3.896 9.854 9.053 13.062 15.469 3.437 6.417 5.156 14.094 5.156 23.031 0 8.709-1.719 16.271-5.156 22.688-3.209 6.417-7.563 11.688-13.062 15.813s-11.917 7.219-19.25 9.281c-7.333 2.063-15.011 3.094-23.031 3.094-8.479 0-16.386-1.031-23.719-3.094-7.104-2.062-13.406-5.156-18.906-9.281-5.271-4.125-9.51-9.395-12.719-15.813-2.979-6.416-4.469-13.979-4.469-22.688zM408.359 745.578c5.271 0 10.771-0.458 16.5-1.375 5.958-1.146 11.344-3.323 16.156-6.531 5.042-3.208 9.167-7.792 12.375-13.75 3.437-5.958 5.156-13.979 5.156-24.063v-213.812c0-9.396-1.719-16.843-5.156-22.344-3.208-5.729-7.333-10.083-12.375-13.062-5.042-3.208-10.542-5.27-16.5-6.188-5.729-0.916-11.115-1.375-16.156-1.375h-8.25v-37.469h165.344v294.25c0 10.083 1.604 18.104 4.813 24.063 3.437 5.958 7.562 10.542 12.375 13.75 5.041 3.208 10.541 5.385 16.5 6.531 5.958 0.917 11.458 1.375 16.5 1.375h8.25v37.469h-223.781v-37.469h8.25zM172.589 172.589c-187.461 187.461-187.461 491.361 0 678.823s491.361 187.461 678.823 0c187.461-187.461 187.461-491.361 0-678.823s-491.361-187.461-678.823 0zM787.772 787.772c-152.311 152.311-399.232 152.311-551.543 0s-152.311-399.232 0-551.543c152.311-152.311 399.232-152.311 551.543 0s152.311 399.232 0 551.543z"></path>
</symbol>
<symbol id="icon-circle-minus-outline" viewBox="0 0 1024 1024">
	<title>circle-minus-outline</title>
	<path class="path1" d="M236.228 448.36v127.279h551.543v-127.279zM172.589 172.589c-187.461 187.461-187.461 491.361 0 678.823s491.361 187.461 678.823 0c187.461-187.461 187.461-491.361 0-678.823s-491.361-187.461-678.823 0zM787.772 787.772c-152.311 152.311-399.232 152.311-551.543 0s-152.311-399.232 0-551.543c152.311-152.311 399.232-152.311 551.543 0s152.311 399.232 0 551.543z"></path>
</symbol>
<symbol id="icon-circle-plus" viewBox="0 0 1024 1024">
	<title>circle-plus</title>
	<path class="path1" d="M512 32c265.403 0 480 214.634 480 480s-214.634 480-480 480c-265.366 0-480-214.634-480-480s214.634-480 480-480zM758.942 560.48v-96.923h-198.462v-198.462h-96.923v198.462h-198.462v96.923h198.462v198.462h96.923v-198.462h198.462z"></path>
</symbol>
<symbol id="icon-circle-plus-outline" viewBox="0 0 1024 1024">
	<title>circle-plus-outline</title>
	<path class="path1" d="M448.36 236.228v212.132h-212.132v127.279h212.132v212.132h127.279v-212.132h212.132v-127.279h-212.132v-212.132zM172.589 172.589c-187.461 187.461-187.461 491.361 0 678.823s491.361 187.461 678.823 0c187.461-187.461 187.461-491.361 0-678.823s-491.361-187.461-678.823 0zM787.772 787.772c-152.311 152.311-399.232 152.311-551.543 0s-152.311-399.232 0-551.543c152.311-152.311 399.232-152.311 551.543 0s152.311 399.232 0 551.543z"></path>
</symbol>
<symbol id="icon-circle-x-outline" viewBox="0 0 1024 1024">
	<title>circle-x-outline</title>
	<path class="path1" d="M662 272l-150 150-150-150-90 90 150 150-150 150 90 90 150-150 150 150 90-90-150-150 150-150zM512 32c-265.11 0-480 214.89-480 480s214.89 480 480 480c265.11 0 480-214.89 480-480s-214.89-480-480-480zM512 902c-215.4 0-390-174.6-390-390s174.6-390 390-390c215.4 0 390 174.6 390 390s-174.6 390-390 390z"></path>
</symbol>
<symbol id="icon-earth" viewBox="0 0 1024 1024">
	<title>earth</title>
	<path class="path1" d="M728.446 233.429c4.286 8.571 15.017 25.714 6.446 32.16-6.446 4.286-21.429 4.286-27.874-10.731s0-23.589-10.731-19.303c-10.731 4.286-15.017-6.446-12.857-8.571 2.16-4.286 6.446-6.446 10.731-8.571 0-4.286-8.571-17.143 4.286-15.017 8.571 2.16 25.714 21.429 30 30zM769.143 329.874v0 0zM895.589 385.589c0 0-4.286 0 0 0v0zM512 32c265.714 0 480 214.286 480 480s-214.286 480-480 480c-265.714 0-480-214.286-480-480s214.286-480 480-480zM334.16 882.731l17.143 8.571c6.446 2.16 12.857 4.286 21.429 6.446 30 10.731 60 17.143 92.16 21.429 60 6.446 120 2.16 177.874-17.143 32.16-10.731 64.286-23.589 92.16-42.857 12.857-8.571 12.857-34.286 21.429-51.429 17.143-34.286-4.286-70.731 25.714-100.731 25.714-30 8.571-40.731 8.571-72.857 0-21.429 17.143-38.571 8.571-62.16-2.16-8.571-15.017 6.446-19.303-2.16-10.731-15.017-45.017-2.16-60-4.286-27.874-4.286-51.429-30-70.731-49.303-10.731-10.731 0-42.857 2.16-55.714 8.571-32.16 0-70.731 40.731-81.429 10.731-2.16 10.731-19.303 21.429-23.589 10.731-2.16 21.429-6.446 32.16-8.571 19.303-2.16 36.446 4.286 55.714 4.286 21.429 0 30 10.731 47.143 23.589 15.017 12.857 27.874 6.446 47.143 10.731 15.017 0 0-10.731-4.286-17.143-6.446-4.286-12.857-4.286-17.143-4.286-34.286-8.571-49.303-47.143-77.143-64.286-12.857-6.446-19.303-4.286-23.589 0-2.16 2.16 2.16 25.714 2.16 25.714-2.16 6.446-21.429 8.571-27.874 10.731-19.303 4.286-62.16-36.446-32.16-47.143 8.571-2.16 57.874-10.731 51.429-32.16-6.446-12.857 4.286-27.874-10.731-30-17.143-2.16-15.017-15.017-32.16-17.143-10.731-2.16-10.731-23.589-10.731-30 0-19.303 4.286-12.857 19.303-15.017-36.446-23.589-79.303-40.731-122.16-51.429-2.16 6.446-10.731 25.714-17.143 25.714-10.731 2.16-12.857 0-19.303 6.446-19.303 21.429-34.286 60-53.589 15.017-8.571-23.589 10.731-40.731 4.286-60h-19.303c12.857 25.714-10.731 38.571-17.143 40.731-17.143 0-21.429-10.731-36.446-8.571-8.571 2.16-15.017-8.571-23.589-4.286s-27.874 17.143-30 25.714c-6.446 25.714 12.857 27.874 30 12.857 12.857-12.857 36.446-25.714 53.589-12.857 12.857 10.731 10.731 19.303 10.731 30s-2.16 38.571-19.303 34.286c-8.571-2.16-15.017-12.857-23.589-6.446-17.143 15.017-38.571 12.857-62.16 19.303-21.429 4.286-34.286 12.857-53.589 19.303-17.143 6.446-23.589 8.571-25.714 25.714 0 4.286 0 30-6.446 32.16-10.731 4.286-17.143-47.143-47.143-42.857-25.714 2.16-64.286 27.874-53.589 60 4.286 10.731 60 6.446 21.429 30-4.286 2.16 4.286 36.446 4.286 42.857 2.16 17.143 27.874 38.571 45.017 21.429 12.857-12.857 12.857-10.731 30-4.286 32.16 17.143 70.731 32.16 96.446 57.874 12.857 12.857 19.303 51.429 36.446 60 19.303 10.731 40.731 10.731 55.714 30 12.857 15.017-4.286 40.731-17.143 49.303-8.571 4.286-25.714 51.429-34.286 62.16-4.286 8.571-25.714 12.857-34.286 15.017-6.446 0-15.017 19.303-19.303 23.589-15.017 15.017-17.143 27.874-36.446 40.731-38.571 25.714-47.143 49.303-38.571 94.286 4.286 17.143 10.731 27.874 23.589 34.286zM246.286 824.857l4.286 4.286c15.017 12.857 32.16 23.589 49.303 34.286-45.017-45.017-49.303-105.017-45.017-167.143l6.446-51.429c2.16-6.446-8.571-15.017-8.571-23.589 0-21.429 0-10.731-17.143-27.874-8.571-8.571-21.429-23.589-25.714-36.446-15.017-34.286 2.16-64.286 21.429-92.16 19.303-30-15.017-42.857-21.429-68.571-2.16-12.857-15.017-12.857-12.857-25.714 2.16-15.017-8.571-10.731-19.303-19.303-25.714-17.143-2.16-42.857-15.017-55.714-92.16 150-77.143 347.143 34.286 480 2.16 2.16 0 2.16 2.16 4.286h2.16c6.446 8.571 12.857 17.143 19.303 23.589s15.017 12.857 21.429 19.303z"></path>
</symbol>
<symbol id="icon-globe" viewBox="0 0 1024 1024">
	<title>globe</title>
	<path class="path1" d="M32 512q0-130.623 64.366-240.945t174.689-174.689 240.945-64.366 240.945 64.366 174.689 174.689 64.366 240.945-64.366 240.945-174.689 174.689-240.945 64.366-240.945-64.366-174.689-174.689-64.366-240.945zM173.263 300.106q4.375 4.375 7.49 5.005 2.485 0.63 3.115 5.635t1.575 6.86 7.175-1.89q5.635 5.005 1.89 11.865 0.63-0.63 27.511 16.87 11.865 10.64 13.125 13.125 1.89 6.86-6.265 11.235-0.63-1.26-5.635-5.635t-5.635-2.485q-1.89 3.115 0.315 11.55t6.58 7.805q-4.375 0-5.95 10.010t-1.575 22.19-0.63 14.7l1.26 0.63q-1.89 7.49 3.43 21.56t13.44 12.18q-8.12 1.89 12.495 26.881 3.745 5.005 5.005 5.635 1.89 1.26 7.49 4.69t9.38 6.265 6.265 6.58q2.485 3.115 6.265 14.070t8.75 14.7q-1.26 3.745 5.95 12.495t6.58 14.385q-0.63 0-1.575 0.63t-1.575 0.63q1.89 4.375 9.695 8.75t9.695 8.12q0.63 1.89 1.26 6.265t1.89 6.86 5.005 1.26q1.26-12.495-15.015-38.746-9.38-15.61-10.64-18.13-1.89-3.115-3.43-9.695t-2.8-9.065q1.26 0 3.745 0.945t5.32 2.205 4.69 2.485 1.26 1.89q-1.89 4.375 1.26 10.955t7.49 11.55 10.64 11.865 7.49 8.12q3.745 3.745 8.75 12.18t0 8.435q5.635 0 12.495 6.265t10.64 12.495q3.115 5.005 5.005 16.24t3.115 15.015q1.26 4.375 5.32 8.435t7.805 5.95l10.010 5.005q0 0 8.12 4.375 3.115 1.26 11.55 6.58t13.44 7.175q6.265 2.485 10.010 2.485t9.065-1.575 8.435-2.205q9.38-1.26 18.13 9.38t13.125 13.125q22.505 11.865 34.371 6.86-1.26 0.63 0.314 4.69 1.575 4.060 5.005 9.695t5.635 9.065 3.43 5.32q3.115 3.745 11.235 9.38t11.235 9.38q3.745-2.485 4.375-5.635-1.89 5.005 4.375 12.495t11.235 6.265q8.75-1.89 8.75-19.985-19.39 9.38-30.626-11.235 0-0.63-1.575-3.43t-2.485-5.32-1.575-5.32 0-4.69 3.115-1.89q5.635 0 6.265-2.205t-1.26-7.805-2.485-8.12q-0.63-5.005-6.86-12.495t-7.49-9.38q-3.115 5.635-10.010 5.005t-10.010-5.635q0 0.63-0.945 3.43t-0.945 4.060q-8.12 0-9.38-0.63 0.63-1.89 1.575-10.955t2.205-14.070q0.63-2.485 3.43-7.49t4.69-9.065 2.485-7.805-2.8-5.95-10.955-1.575q-11.865 0.63-16.24 12.495-0.63 1.89-1.89 6.58t-3.115 7.175-5.635 4.375q-4.375 1.89-15.015 1.26t-15.014-3.115q-8.12-5.005-14.070-18.13t-5.95-23.135q0-6.265 1.575-16.555t1.89-15.61-3.43-15.33q1.89-1.26 5.635-5.95t6.265-6.58q1.26-0.63 2.8-0.945 1.54-0.314 2.8 0t2.485-0.945 1.89-3.745q-0.63-0.63-2.485-1.89-1.89-1.89-2.485-1.89 4.375 1.89 17.815-0.945t17.185 0.945q9.38 6.86 13.755-1.26 0-0.63-1.575-5.95t-0.314-8.435q3.115 16.87 18.13 5.635 1.89 1.89 9.695 3.115t10.955 3.115q1.89 1.26 4.375 3.43t3.43 2.8 3.115-0.314q2.17-0.945 5.32-4.060 6.265 8.75 7.49 15.015 6.86 24.991 11.865 27.511 4.375 1.89 6.86 1.26t2.8-5.95 0-8.75-0.945-7.805l-0.63-5.005v-11.235l-0.63-5.005q-9.38-1.89-11.55-7.49t0.945-11.55 9.38-11.55q0.63-0.63 5.005-2.205t9.695-4.060 7.805-5.005q13.125-11.865 9.38-21.875 4.375 0 6.86-5.635-0.63 0-3.115-1.89t-4.69-3.115-2.8-1.26q5.635-3.115 1.26-10.010 3.115-1.89 4.69-6.86t4.69-6.265q5.635 7.49 13.125 1.26 4.375-5.005 0.63-10.010 3.115-4.375 12.81-6.58t11.55-5.95q4.375 1.26 5.005-1.26t0.63-7.49 1.89-7.49q2.485-3.115 9.38-5.635t8.12-3.115l10.64-6.86q1.89-2.485 0-2.485 11.235 1.26 19.39-6.86 6.265-6.86-3.745-12.495 1.89-3.745-1.89-5.95t-9.38-3.43q1.89-0.63 7.175-0.314 5.285 0.314 6.58-0.945 9.38-6.265-4.375-10.010-10.64-3.115-26.881 7.49-1.26 0.63-5.95 5.95t-8.435 5.95q1.26 0 2.8-3.115t3.115-6.86 2.205-4.375q3.745-4.375 13.755-9.38 8.75-3.745 32.516-7.49 21.245-5.005 31.886 6.86-1.26-1.26 5.95-8.12t9.065-7.49q1.89-1.26 9.38-2.8t9.38-4.69l1.26-13.755q-7.49 0.626-10.955-4.379t-4.060-13.125q0 1.26-3.745 5.005 0-4.375-2.8-5.005t-7.175 0.63-5.636 0.63q-6.265-1.89-9.38-4.69t-5.005-10.325-2.485-9.38q-1.26-3.115-5.95-6.58t-5.95-6.58q-0.63-1.26-1.575-3.43t-1.89-4.060-2.485-3.43-3.43-1.575-4.375 3.115-4.69 6.265-2.8 3.115q-1.89-1.26-3.745-0.945t-2.8 0.63-2.8 1.89-3.115 2.205q-1.89 1.26-5.32 1.89t-5.32 1.26q9.38-3.115-0.63-6.86-6.265-2.485-10.010-1.89 5.635-2.485 4.69-7.49t-5.32-8.75h3.115q-0.63-2.485-5.32-5.32t-10.955-5.32-8.12-3.745q-5.005-3.115-21.245-5.95t-20.615-0.315q-3.115 3.745-2.8 6.58 0.314 2.835 2.485 8.75 2.17 5.915 2.205 7.805 0.63 3.745-3.43 8.12t-4.060 7.49q0 4.375 8.75 9.695t6.265 13.44q-1.89 5.005-10.010 10.010t-10.010 7.49q-3.115 5.005-0.945 11.55t6.58 10.325q1.26 1.26 0.945 2.485t-2.205 2.8-3.43 2.485-4.060 2.205l-1.89 1.26q-6.86 3.115-12.811-3.745t-8.435-16.24q-4.375-15.61-10.010-18.76-14.385-5.005-18.13 0.63-3.115-8.12-25.621-16.24-15.61-5.635-36.261-2.485 3.745-0.63 0-9.38-4.375-9.38-11.865-7.49 1.89-3.745 2.485-10.955t0.63-8.435q1.89-8.12 7.49-14.385 0.63-0.63 4.375-5.32t5.95-8.435 0.314-3.745q21.875 2.485 31.256-6.86 3.115-3.115 7.175-10.64t6.58-10.64q5.635-3.745 8.75-3.43t9.065 3.43 9.065 3.115q8.75 0.63 9.695-6.86t-4.69-12.495q7.49 0.63 1.89-10.64-3.115-4.375-5.005-5.635-7.49-2.485-16.87 3.115-5.005 2.485 1.26 5.005-0.629-0.63-5.949 6.58t-10.325 10.955-10.010-3.115q-0.63-0.63-3.43-8.435t-5.95-8.435q-5.005 0-10.010 9.38 1.89-5.005-6.86-9.38t-15.015-5.005q11.865-7.49-5.005-16.87-4.375-2.485-12.81-3.115t-12.18 2.485q-3.115 4.375-3.43 7.175t3.115 5.005 6.58 3.43 7.175 2.485 5.32 1.89q8.75 6.265 5.005 8.75-1.26 0.63-5.32 2.205t-7.175 2.8-3.745 2.485q-1.89 2.485 0 8.75t-1.26 8.75q-3.115-3.115-5.635-10.955t-4.375-10.325q4.375 5.635-15.61 3.745l-6.265-0.63q-2.485 0-10.010 1.26t-12.81 0.63-8.435-5.005q-2.485-5.005 0-12.495 0.63-2.485 2.485-1.26-2.485-1.89-6.86-5.95t-6.265-5.32q-28.736 9.38-58.766 25.621 3.745 0.63 7.49-0.63 3.115-1.26 8.12-4.060t6.265-3.43q21.245-8.75 26.251-4.375l3.115-3.115q8.75 10.010 12.495 15.61-4.375-2.485-18.76-0.63-12.495 3.745-13.755 7.49 4.375 7.49 3.115 11.235-2.485-1.89-7.175-6.265t-9.065-6.86-9.38-3.115q-10.010 0-13.755 0.63-91.247 50.016-146.863 138.743zM580.146 895.748q0 3.745 1.26 10.010 128.768-22.505 219.385-118.127-1.89-1.89-7.805-2.8t-7.805-2.205q-11.235-4.375-15.015-5.005 0.63-4.375-1.575-8.12t-5.005-5.635-7.805-5.005-6.86-4.375q-1.26-1.26-4.375-3.745t-4.375-3.43-4.69-2.8-5.32-1.26-6.265 0.63l-1.89 0.63q-1.89 0.63-3.43 1.575t-3.43 1.89-2.485 1.89 0 1.575q-13.125-10.64-22.505-13.755-3.115-0.63-6.86-3.43t-6.58-4.375-6.265-0.945-7.175 4.375q-3.115 3.115-3.745 9.38t-1.26 8.12q-4.375-3.115 0-10.955t1.26-11.55q-1.89-3.745-6.58-2.8t-7.49 2.8-7.175 5.32-5.635 4.060-5.32 3.43-5.32 4.69q-1.89 2.485-3.745 7.49t-3.115 6.86q-1.26-2.485-7.175-4.060t-5.95-3.43q1.26 6.265 2.485 21.875t3.115 23.765q4.375 19.39-7.49 29.996-16.87 15.61-18.13 24.99-2.485 13.755 7.49 16.24 0 4.375-5.005 12.81t-4.375 13.44z"></path>
</symbol>
<symbol id="icon-help" viewBox="0 0 1024 1024">
	<title>help</title>
	<path class="path1" d="M718.402 96.887c57.986 44.074 90.448 106.661 90.448 192.472 0 51.012-18.55 97.386-44.074 132.185-16.25 20.887-48.711 48.711-92.748 83.474l-48.711 32.462c-23.187 18.55-39.437 41.737-46.374 64.924-4.637 13.912-6.975 44.074-6.975 67.261 0 4.637-2.337 13.912-16.25 13.912h-143.76c-16.25 0-16.25-6.975-16.25-11.612 2.337-60.286 9.275-113.635 34.799-153.035 34.799-53.349 132.185-111.298 132.185-111.298 13.912-11.612 25.524-20.887 34.799-34.799 16.25-23.187 27.825-48.711 27.825-74.199 0-30.162-6.975-60.287-25.524-83.474-23.187-27.825-48.711-41.737-95.086-41.737s-74.199 25.524-92.748 55.649c-18.55 30.125-16.25 67.261-16.25 99.723h-178.559c0-125.21 32.462-204.047 102.023-250.421 46.374-32.462 104.361-46.374 173.922-46.374 90.448 0 162.31 16.25 227.234 64.924zM479.557 776.251c62.624 2.337 108.998 46.374 106.661 111.298s-51.012 106.661-113.635 104.361c-60.286-2.337-106.661-44.074-104.361-108.998s51.012-108.998 111.298-106.661z"></path>
</symbol>
<symbol id="icon-history" viewBox="0 0 1024 1024">
	<title>history</title>
	<path class="path1" d="M32.070 392.018v-280.006q0-26.251 24.99-36.891 24.36-10.64 43.119 8.75l81.234 80.642q66.884-63.141 152.808-97.827t177.797-34.686q97.508 0 186.232 38.116t153.123 102.517 102.513 153.128 38.114 186.239-38.114 186.239-102.513 153.128-153.123 102.517-186.232 38.116q-107.483 0-204.362-45.326t-164.987-127.823q-4.375-6.265-4.060-14.070t5.32-12.81l85.609-86.242q6.265-5.635 15.61-5.635 10.010 1.26 14.385 7.49 45.639 59.361 111.858 91.877t140.628 32.516q64.994 0 124.073-25.306t102.198-68.426 68.424-102.202 25.305-124.078-25.305-124.078-68.424-102.202-102.198-68.426-124.073-25.306q-61.249 0-117.493 22.19t-99.993 63.456l85.609 86.242q19.39 18.76 8.75 43.121-10.64 24.991-36.889 24.991h-279.996q-16.24 0-28.14-11.865t-11.865-28.141zM352.070 612.032v-40.006q0-8.75 5.635-14.385t14.385-5.635h139.998v-220.015q0-8.75 5.635-14.385t14.385-5.635h40.004q8.75 0 14.385 5.635t5.635 14.385v280.006q0 8.75-5.635 14.385t-14.385 5.635h-199.987q-8.75 0-14.385-5.635t-5.635-14.385z"></path>
</symbol>
<symbol id="icon-hyperlink" viewBox="0 0 1024 1024">
	<title>hyperlink</title>
	<path class="path1" d="M932 602v-150c0-49.62-40.38-90-90-90-16.020 0-31.080 4.2-44.16 11.58-16.020-25.020-44.040-41.58-75.84-41.58-23.040 0-44.040 8.7-60 22.98-15.96-14.28-36.96-22.98-60-22.98-10.5 0-20.64 1.8-30 5.16v-215.16c0-49.62-40.38-90-90-90s-90 40.38-90 90v370.020l-165-87.96c-13.62-7.86-29.16-12.060-45-12.060-49.62 0-90 40.38-90 90 0 24.72 9.84 47.76 27.66 64.92 0.24 0.24 0.48 0.42 0.72 0.66l224.22 204.42h-42.6c-16.56 0-30 13.44-30 30v180c0 16.56 13.44 30 30 30h600c16.56 0 30-13.44 30-30v-180c0-16.56-13.44-30-30-30h-41.46l68.28-136.56c2.1-4.14 3.18-8.76 3.18-13.44zM872 842c0 16.56-13.44 30-30 30s-30-13.44-30-30c0-16.56 13.44-30 30-30s30 13.44 30 30zM872 594.92l-78.54 157.080h-359.82l-272.64-248.58c-5.82-5.7-9-13.26-9-21.42 0-16.56 13.44-30 30-30 5.1 0 9.96 1.2 14.34 3.66 0.48 0.301 1.020 0.6 1.5 0.84l210 111.96c9.3 4.98 20.52 4.68 29.52-0.72s14.58-15.18 14.58-25.74v-420c0-16.56 13.44-30 30-30s30 13.44 30 30v300c0 16.56 13.44 30 30 30s30-13.44 30-30c0-16.56 13.44-30 30-30s30 13.44 30 30c0 16.56 13.44 30 30 30s30-13.44 30-30c0-16.56 13.44-30 30-30s30 13.44 30 30v30c0 16.56 13.44 30 30 30s30-13.44 30-30c0-16.56 13.44-30 30-30s30 13.44 30 30v142.92z"></path>
</symbol>
<symbol id="icon-layers" viewBox="0 0 1024 1024">
	<title>layers</title>
	<path class="path1" d="M48.95 282.019c-22.547-9.999-22.547-27.518 0-37.517l423.022-204.983c10.012-5 25.030-7.519 40.048-7.519s30.036 2.52 40.048 7.519l423.022 204.983c22.547 9.999 22.547 27.518 0 37.517l-423.022 204.983c-10.012 5-25.030 7.519-40.048 7.519s-30.036-2.52-40.048-7.519zM975.050 492.002c22.547 9.999 22.547 29.998 0 39.997l-423.022 202.503c-10.012 5-25.030 9.999-40.048 9.999s-30.036-5-40.048-9.999l-423.022-202.503c-22.547-9.999-22.547-29.998 0-39.997 0 0 67.6-32.517 82.618-39.997 12.535-7.519 17.541-7.519 32.559 0s307.886 149.987 307.886 149.987c10.012 5 25.030 7.519 40.048 7.519s30.036-2.52 40.048-7.519c0 0 302.88-147.508 312.892-152.507s12.535-5 22.547 0c10.012 5 87.624 42.516 87.624 42.516zM975.050 741.981c22.547 9.999 22.547 27.518 0 37.517l-423.022 204.983c-10.012 5-25.030 7.519-40.048 7.519s-30.036-2.52-40.048-7.519l-423.022-204.983c-22.547-9.999-22.547-27.518 0-37.517 0 0 67.6-34.997 82.618-42.516 12.535-7.519 17.541-5 32.559 2.52s307.886 147.508 307.886 147.508c10.012 5 25.030 7.519 40.048 7.519s30.036-2.52 40.048-7.519c0 0 302.88-144.988 312.892-149.987s12.535-5 22.547 0c10.012 5 87.624 42.516 87.624 42.516z"></path>
</symbol>
<symbol id="icon-legend" viewBox="0 0 1024 1024">
	<title>legend</title>
	<path class="path1" d="M64.020 152.736h199.886v160h-199.886zM64.005 432h201.42v160h-201.42zM64 711.264h201.42v160h-201.42zM352 285.103v-104.736c0-4.724 1.428-8.817 4.284-12.279s6.233-5.193 10.13-5.193h547.172c3.897 0 7.274 1.731 10.13 5.193s4.284 7.555 4.284 12.279v104.736c0 4.724-1.428 8.817-4.284 12.279s-6.233 5.192-10.13 5.192h-547.172c-3.897 0-7.274-1.731-10.13-5.192s-4.284-7.555-4.284-12.279zM352 564.368v-104.736c0-4.724 1.428-8.817 4.284-12.279s6.233-5.192 10.13-5.192h419.172c3.897 0 7.274 1.731 10.13 5.192s4.284 7.555 4.284 12.279v104.736c0 4.724-1.428 8.817-4.284 12.279s-6.233 5.192-10.13 5.192h-419.172c-3.897 0-7.274-1.731-10.13-5.192s-4.284-7.555-4.284-12.279zM352 843.632v-104.736c0-4.724 1.428-8.817 4.284-12.279s6.233-5.192 10.13-5.192h547.172c3.897 0 7.274 1.731 10.13 5.192s4.284 7.555 4.284 12.279v104.736c0 4.724-1.428 8.817-4.284 12.279s-6.233 5.192-10.13 5.192h-547.172c-3.897 0-7.274-1.731-10.13-5.192s-4.284-7.555-4.284-12.279z"></path>
</symbol>
<symbol id="icon-line" viewBox="0 0 1024 1024">
	<title>line</title>
	<path class="path1" d="M347 215l-324 322 90 88 232-231 395 415 261-269-91-85-170 174z"></path>
</symbol>
<symbol id="icon-load" viewBox="0 0 1024 1024">
	<title>load</title>
	<path class="path1" d="M992 447.597c0 6.443 0 12.851-2.158 19.294-8.565 17.135-32.137 25.703-49.268 15.010-8.565-4.284-12.848-15.010-15.006-23.578-2.158-10.727-2.158-19.294-4.283-29.987-8.565-42.838-25.696-85.676-47.109-124.23-25.696-44.997-59.957-87.835-100.659-119.946-38.544-32.146-85.653-55.689-132.762-70.7-44.985-12.851-89.936-19.294-137.045-19.294h-8.565c-6.441 0-12.848 2.159-19.289 2.159-12.848 0-29.978 2.159-42.826 4.284-27.854 4.284-53.55 12.851-79.246 23.578-44.985 17.135-85.653 42.838-122.073 74.984s-66.398 70.7-89.936 111.379c-25.696 47.122-42.826 96.403-51.392 149.933-4.283 23.578-4.283 49.281-4.283 72.825 0 12.851 0 23.578 2.158 34.27 2.158 12.851 4.283 27.862 6.441 40.713 10.724 51.406 29.979 100.686 59.957 143.524 27.854 42.838 62.115 81.392 102.783 111.379 42.826 32.146 89.936 55.689 139.203 70.7 53.55 15.010 107.066 19.294 162.741 15.010 53.55-4.284 107.066-19.294 156.334-42.838 23.572-10.727 47.109-25.703 68.522-40.713s40.702-32.146 57.833-51.406c8.565-8.568 17.131-19.294 25.696-29.987s15.006-21.419 21.413-32.146c6.407-10.727 25.696-42.838 36.42-66.416 8.565-17.135 17.131-34.27 23.572-53.565 4.283-8.568 6.441-19.294 8.565-27.862s2.158-15.010 4.283-23.578c2.158 19.294 2.158 38.554-2.158 55.689-2.158 10.727-4.283 23.578-8.565 34.27-2.158 10.727-6.441 21.419-10.724 32.146-8.565 21.419-17.131 40.713-27.854 59.973-12.848 23.578-25.696 44.997-42.826 64.257s-34.261 38.554-53.55 55.689c-38.544 32.146-85.653 57.848-132.762 77.108-49.268 19.294-102.783 29.987-156.334 32.146s-109.225-6.443-160.616-23.578c-49.268-15.010-96.377-40.713-139.203-70.7-40.702-29.987-77.088-66.416-107.066-107.095-15.006-21.419-27.854-42.838-38.544-66.416s-19.289-44.997-27.854-70.7c-12.848-38.554-19.289-79.267-21.413-119.946-2.158-42.838 2.158-83.551 10.724-124.23 10.724-51.406 32.137-100.686 59.957-145.649 25.696-40.713 55.674-74.984 89.936-107.095s74.963-57.848 117.79-77.108c49.268-23.578 102.783-40.713 158.458-44.997 21.413-2.159 40.702-2.159 62.115-2.159 27.854 0 55.674 4.284 81.37 8.568 51.392 10.727 100.659 29.987 145.61 55.689s87.811 62.132 122.073 102.811c32.137 38.554 57.833 79.267 77.088 124.23 8.565 21.419 15.006 44.997 21.413 68.541 4.283 17.135 10.724 36.429 12.848 55.689z"></path>
</symbol>
<symbol id="icon-location" viewBox="0 0 1024 1024">
	<title>location</title>
	<path class="path1" d="M512 32c-176.736 0-320 134.31-320 300 0 300 320 660 320 660s320-360 320-660c0-165.69-143.264-300-320-300zM512 512c-106.048 0-192-80.58-192-180s85.952-180 192-180c106.048 0 192 80.58 192 180s-85.952 180-192 180z"></path>
</symbol>
<symbol id="icon-location-target" viewBox="0 0 1024 1024">
	<title>location-target</title>
	<path class="path1" d="M511.983 340.56c94.282 0 171.422 77.14 171.422 171.422s-77.14 171.422-171.422 171.422c-94.282 0-171.422-77.14-171.422-171.422s77.14-171.422 171.422-171.422zM921.271 467.002h70.729v89.997h-70.729c-21.428 190.725-173.582 342.845-364.273 364.273v70.729h-89.997v-70.729c-190.725-21.428-342.845-173.582-364.273-364.273h-70.729v-89.997h70.729c21.428-190.725 173.582-342.845 364.273-364.273v-70.729h89.997v70.729c190.725 21.428 342.845 173.582 364.273 364.273zM511.983 831.274c175.708 0 319.291-143.583 319.291-319.291s-143.583-319.291-319.291-319.291c-175.708 0-319.291 143.583-319.291 319.291s143.583 319.291 319.291 319.291z"></path>
</symbol>
<symbol id="icon-lock" viewBox="0 0 1024 1024">
	<title>lock</title>
	<path class="path1" d="M96.040 926.557v-392.736q0-27.262 20.223-46.352t49.101-19.091h23.094v-130.925q0-125.465 95.33-215.459t228.233-89.994 228.233 89.994 95.33 215.459v130.925h23.094q28.878 0 49.101 19.091t20.223 46.352v392.736q0 27.262-20.223 46.352t-49.101 19.091h-693.354q-28.878 0-49.101-19.091t-20.223-46.352zM327.145 468.378h369.791v-130.925q0-72.278-54.156-123.403t-130.719-51.125-130.719 51.125-54.156 123.403v130.925z"></path>
</symbol>
<symbol id="icon-menu" viewBox="0 0 1024 1024">
	<title>menu</title>
	<path class="path1" d="M64 886.396v-83.207q0-16.889 11.074-29.264t26.264-12.339h821.325q15.157 0 26.264 12.339t11.074 29.264v83.207q0 16.889-11.074 29.265t-26.264 12.339h-821.325q-15.157 0-26.264-12.339t-11.074-29.265zM64 553.604v-83.207q0-16.889 11.074-29.264t26.264-12.339h821.325q15.157 0 26.264 12.339t11.074 29.264v83.207q0 16.889-11.074 29.264t-26.264 12.339h-821.325q-15.157 0-26.264-12.339t-11.074-29.264zM64 220.811v-83.207q0-16.889 11.074-29.265t26.264-12.339h821.325q15.157 0 26.264 12.339t11.074 29.265v83.207q0 16.889-11.074 29.264t-26.264 12.339h-821.325q-15.157 0-26.264-12.339t-11.074-29.264z"></path>
</symbol>
<symbol id="icon-minus" viewBox="0 0 1024 1024">
	<title>minus</title>
	<path class="path1" d="M112 530.272v-109.728q0-22.848 16-38.848t38.848-16h694.848q22.848 0 38.848 16t16 38.848v109.728q0 22.848-16 38.848t-38.848 16h-694.848q-22.848 0-38.848-16t-16-38.848z"></path>
</symbol>
<symbol id="icon-options" viewBox="0 0 1024 1024">
	<title>options</title>
	<path class="path1" d="M32 854.675q0-30.953 22.243-53.17l398.381-397.906q22.8 57.26 66.992 101.366t101.487 66.912l-398.971 398.495q-21.654 21.628-52.644 21.628-30.433 0-53.233-21.628l-62.013-63.117q-22.243-21.039-22.243-52.581zM169.456 817.276q0 15.182 11.105 26.307t26.338 11.092 26.338-11.092 11.105-26.307-11.105-26.307-26.338-11.092-26.338 11.092-11.105 26.307zM468.971 293.759q0-108.106 76.918-184.933t185.153-76.826q33.938 0 71.087 9.652t62.897 27.157q9.369 6.413 9.369 16.36t-9.369 16.36l-171.395 98.748v130.879l112.887 62.528q2.916-1.767 46.223-28.335t79.277-47.313 41.243-20.744q8.779 0 13.759 5.857t4.979 14.593q0 22.773-13.464 61.939-27.485 78.299-96.246 127.084t-151.215 48.785q-108.235 0-185.153-76.826t-76.918-184.933z"></path>
</symbol>
<symbol id="icon-pen" viewBox="0 0 1024 1024">
	<title>pen</title>
	<path class="path1" d="M847.696 369.006l-535.223 537.361-194.838-194.831 537.381-535.204zM973.992 152.767c25.691 25.69 23.567 68.506-4.282 96.354l-96.357 96.354-194.838-194.831 96.357-96.354c27.849-27.848 70.666-29.971 96.357-4.282zM100.508 741.508l181.993 181.986-250.501 68.506z"></path>
</symbol>
<symbol id="icon-phone" viewBox="0 0 1024 1024">
	<title>phone</title>
	<path class="path1" d="M128 882.915v-741.83q0-45.016 31.323-77.050t75.34-32.034h554.673q44.017 0 75.34 32.034t31.323 77.050v741.83q0 45.016-31.323 77.050t-75.34 32.034h-554.673q-44.017 0-75.34-32.034t-31.323-77.050zM213.346 795.67q0 8.858 6.347 15.349t15.008 6.491h554.673q8.661 0 15.008-6.491t6.347-15.349v-654.547q0-8.858-6.347-15.349t-15.008-6.491h-554.673q-8.662 0-15.008 6.491t-6.347 15.349v654.547zM469.346 904.755q0 17.716 12.656 30.698t30.017 12.944 30.017-12.944 12.656-30.698-12.656-30.698-30.017-12.944-30.017 12.944-12.656 30.698z"></path>
</symbol>
<symbol id="icon-point" viewBox="0 0 1024 1024">
	<title>point</title>
	<path class="path1" d="M141.091 424.727c-59.991 0-109.091 49.1-109.091 109.091s49.1 109.091 109.091 109.091c59.991 0 109.091-49.1 109.091-109.091s-49.1-109.091-109.091-109.091zM533.818 250.182c-59.994 0-109.091 49.097-109.091 109.091s49.097 109.091 109.091 109.091c59.994 0 109.091-49.097 109.091-109.091s-49.097-109.091-109.091-109.091zM882.909 555.636c-59.991 0-109.091 49.1-109.091 109.091s49.1 109.091 109.091 109.091c59.991 0 109.091-49.1 109.091-109.091s-49.1-109.091-109.091-109.091z"></path>
</symbol>
<symbol id="icon-polygon" viewBox="0 0 1024 1024">
	<title>polygon</title>
	<path class="path1" d="M626 219l-299 146-196-52-106 279 232 191 254-122 286 150 206-407z"></path>
</symbol>
<symbol id="icon-printer" viewBox="0 0 1024 1024">
	<title>printer</title>
	<path class="path1" d="M932 272h-840c-33 0-60 27-60 60v300c0 33 27 60 60 60h180v240h480v-240h180c33 0 60-27 60-60v-300c0-33-27-60-60-60zM152 452c-33.12 0-60-26.88-60-60s26.88-60 60-60c33.12 0 60 26.88 60 60s-26.88 60-60 60zM692 872h-360v-300h360v300zM272 92h480v120h-480v-120z"></path>
</symbol>
<symbol id="icon-profiles" viewBox="0 0 1024 1024">
	<title>profiles</title>
	<path class="path1" d="M874.13 661.527c89.997 34.661 111.425 56.324 113.585 71.505 4.286 19.514 4.286 194.967 4.286 194.967h-209.993c0-38.994 0-153.825-2.16-166.823-2.16-21.663-2.16-62.84-117.87-108.315-17.142-6.516-29.999-10.849-40.73-15.181 38.57-17.33 32.159-32.512 32.159-60.657 0-41.177-19.302-23.847-32.159-101.834-4.286-30.328-8.571-10.849-19.302-60.657-6.445-25.996 2.16-25.996 2.16-38.994s-2.16-21.663-4.286-47.659c-2.16-30.328 23.588-112.648 122.156-112.648s126.441 82.32 124.281 112.648c-2.16 25.996-4.286 34.661-4.286 47.659-2.16 12.998 8.571 12.998 2.16 38.994-10.731 49.842-15.017 30.328-19.302 60.657-12.857 77.987-34.284 60.657-34.284 101.834 0 62.84-4.286 49.842 83.586 84.503zM728.421 927.965h-696.421c0 0 0-140.827 4.286-166.823 4.286-21.663 32.159-47.659 147.869-93.168 115.71-43.326 107.139-36.845 107.139-119.164 0-51.991-25.713-17.33-42.856-116.98-6.445-38.994-10.731-15.181-23.588-77.987-6.445-32.512 4.286-34.661 2.16-49.842s-4.286-30.328-6.445-62.84c-4.286-41.177 32.159-145.16 158.566-145.16s165.011 106.166 160.726 145.16c-2.16 32.512-4.286 47.659-6.446 62.84s10.731 17.33 4.286 49.842c-12.857 62.84-19.302 38.994-25.713 77.987-17.142 99.65-42.856 64.989-42.856 116.98 0 69.322-4.286 77.987 66.443 103.983 12.857 4.333 23.588 8.665 40.73 15.181 115.71 45.51 143.583 71.505 147.869 93.168 2.16 12.998 4.286 60.657 4.286 101.834v64.989z"></path>
</symbol>
<symbol id="icon-radio-button-checked" viewBox="0 0 1024 1024">
	<title>radio-button-checked</title>
	<path class="path1" d="M32 752.248v-479.977q0-68.651 48.75-117.402t117.402-48.75h479.977q68.651 0 117.402 48.75t48.75 117.402v479.977q0 68.651-48.75 117.402t-117.402 48.75h-479.977q-68.651 0-117.402-48.75t-48.75-117.402zM105.853 752.248q0 38.089 27.105 65.194t65.194 27.105h479.977q38.089 0 65.194-27.105t27.105-65.194v-479.977q0-38.089-27.105-65.194t-65.194-27.105h-479.977q-38.089 0-65.194 27.105t-27.105 65.194v479.977zM182.141 663.53v-302.541c0-28.848 10.243-53.515 30.729-74.001s45.153-30.729 74.001-30.729h302.541c28.848 0 53.515 10.243 74.001 30.729s30.729 45.153 30.729 74.001v302.541c0 28.848-10.243 53.515-30.729 74.001s-45.153 30.729-74.001 30.729h-302.541c-28.848 0-53.515-10.243-74.001-30.729s-30.729-45.153-30.729-74.001z"></path>
</symbol>
<symbol id="icon-settings" viewBox="0 0 1024 1024">
	<title>settings</title>
	<path class="path1" d="M876.531 560.473l108.45 78.449c6.94 6.94 9.228 23.073 4.614 32.303l-99.221 163.839c-4.614 9.229-16.168 16.17-27.685 11.555l-124.58-48.473c-27.685 18.459-53.080 36.917-83.054 48.473l-18.456 126.922c-2.326 9.229-13.842 18.459-25.396 18.459h-196.117c-11.554 0-23.070-6.94-25.396-18.459l-18.456-126.922c-30.010-11.555-57.695-30.014-83.054-48.473l-124.58 48.473c-9.228 4.615-23.070-2.326-27.685-11.555l-99.221-163.839c-6.94-11.555-4.614-25.399 4.614-32.303l103.835-78.449c0-16.17-2.326-32.303-2.326-48.473s2.326-32.303 2.326-48.473l-106.124-78.449c-6.94-6.94-9.228-23.073-4.614-32.303l99.221-163.839c4.614-9.229 16.168-16.17 27.685-11.555l124.58 48.473c27.685-18.459 53.080-36.917 83.054-48.473l18.456-126.922c2.325-9.229 13.842-18.459 25.396-18.459h196.117c11.554 0 23.070 9.229 25.396 18.459l16.168 126.922c30.010 11.555 57.695 30.014 83.054 48.473l122.292-48.473c9.228-4.615 25.396 2.326 30.010 11.555l99.221 163.839c6.94 11.555 4.614 25.399-4.614 32.303l-103.835 78.449c0 16.17 2.325 32.303 2.325 48.473s0 34.629-2.325 48.473zM509.73 680.454c94.607 0 173.047-73.835 173.047-168.454s-78.439-168.454-173.047-168.454c-94.607 0-170.721 73.835-170.721 168.454s76.151 168.454 170.721 168.454z"></path>
</symbol>
<symbol id="icon-toggle-minus" viewBox="0 0 1024 1024">
	<title>toggle-minus</title>
	<path class="path1" d="M32 811.998v-599.996q0-74.374 52.814-127.188t127.188-52.814h599.996q74.374 0 127.188 52.814t52.814 127.188v599.996q0 74.374-52.814 127.188t-127.188 52.814h-599.996q-74.374 0-127.188-52.814t-52.814-127.188zM191.982 552.022q0 16.24 11.865 28.14t28.14 11.865h559.991q16.24 0 28.14-11.865t11.865-28.14v-80.009q0-16.24-11.865-28.14t-28.14-11.865h-559.991q-16.24 0-28.14 11.865t-11.865 28.14v80.009z"></path>
</symbol>
<symbol id="icon-toggle-plus" viewBox="0 0 1024 1024">
	<title>toggle-plus</title>
	<path class="path1" d="M212.41 32c-49.567 0-92.729 17.284-127.927 52.483s-52.483 78.36-52.483 127.927v599.18c0 49.567 17.284 92.729 52.483 127.927s78.36 52.483 127.927 52.483h599.18c49.567 0 91.635-17.284 126.834-52.483s53.576-78.36 53.576-127.927v-599.18c0-49.567-18.378-92.729-53.576-127.927s-77.266-52.483-126.834-52.483h-599.18zM471.544 191.636h79.818c10.846-0.023 20.521 4.097 28.428 12.027s12.027 17.605 12.027 28.428v200.091h200.091c10.846-0.023 20.521 4.097 28.428 12.027s10.934 16.512 10.934 27.335v80.911c0.023 10.846-3.003 19.427-10.934 27.335s-17.605 12.027-28.428 12.027h-200.091v200.091c0.023 10.846-4.097 20.521-12.027 28.428s-17.605 12.027-28.428 12.027h-79.818c-10.846 0.023-19.427-4.097-27.335-12.027s-12.027-17.605-12.027-28.428v-200.091h-200.091c-10.846 0.023-20.521-4.097-28.428-12.027s-12.027-16.512-12.027-27.335v-80.911c-0.023-10.846 4.097-19.427 12.027-27.335s17.605-12.027 28.428-12.027h200.091v-200.091c-0.023-10.846 4.097-20.521 12.027-28.428s16.512-12.027 27.335-12.027z"></path>
</symbol>
<symbol id="icon-topics" viewBox="0 0 1024 1024">
	<title>topics</title>
	<path class="path1" d="M338.56 440.528c-11.774-6.239-11.117-15.691 1.407-20.241l235.622-94.744c5.582-2.323 13.769-3.12 21.861-2.556s16.089 2.485 21.296 5.557l220.246 126.436c11.774 6.239 11.117 15.691-1.407 20.241l-235.622 94.744c-5.582 2.323-13.769 3.12-21.86 2.556s-16.089-2.485-21.297-5.557zM829.688 588.506c11.774 6.239 11.024 17.028-1.5 21.579l-235.529 93.406c-5.582 2.323-13.862 4.457-21.954 3.895s-15.996-3.823-21.203-6.895l-220.339-125.098c-11.774-6.239-11.024-17.029 1.5-21.579 0 0 37.644-15.011 46.017-18.484 7.036-3.587 9.733-3.4 17.543 1.22s160.27 92.453 160.27 92.453c5.207 3.073 13.205 4.994 21.297 5.557s16.278-0.234 21.861-2.556c0 0 168.731-68.236 174.313-70.558s6.942-2.228 12.149 0.844c5.207 3.073 45.619 26.22 45.619 26.22zM820.312 723.372c11.774 6.239 11.117 15.691-1.407 20.241l-235.622 94.744c-5.582 2.323-13.769 3.12-21.861 2.556s-16.089-2.485-21.296-5.557l-220.246-126.435c-11.774-6.239-11.117-15.691 1.407-20.241 0 0 37.737-16.349 46.111-19.843 7.036-3.587 9.639-2.040 17.449 2.579s160.363 91.115 160.363 91.115c5.207 3.073 13.205 4.994 21.297 5.557s16.278-0.23 21.861-2.556c0 0 168.637-66.877 174.219-69.199s6.942-2.229 12.149 0.844c5.207 3.073 45.619 26.22 45.619 26.22zM729.249 64.041l-681.831 44.446c-26.588 3.119-45.474 24.866-44.665 49.605l34.877 541.412c2.35 24.64 23.808 45.162 50.575 44.85l39.028-2.571-8.121 106.792c-1.155 27.672 19.632 52.576 49.172 56.321l757.546 55.033c29.866 1.449 54.915-19.375 56.070-47.047l44.568-608.637c2.868-27.547-18.293-52.22-48.052-55.146l-191.111-13.51-8.6-127.874c-0.809-24.739-22.593-44.739-49.455-43.675zM700.196 126.233c12.279-1.44 23.433 3.266 24.869 15.514l-0.080 3.449c2.116 24.511 4.259 63.274 6.154 87.795l-511.415-38.951c-29.769-0.607-53.228 20.65-56.096 48.197l-32.652 436.219c-2.69 0.237-10.424 1.14-13.12 1.306-12.362 0.144-22.66-7.544-24.818-17.813l0.051-2.3c-8.999-155.531-19.341-317.833-30.307-470.346l0.026-1.15c0.832-10.462 9.977-19.913 22.255-21.353 199.41-13.52 415.675-27.744 615.13-40.567zM248.597 262.616c221.77 15.488 470.038 32.959 691.751 49.226 13.748 0.278 25.019 7.466 24.74 21.262l-0.080 3.449c-8.581 169.303-23.845 367.175-38.708 535.98l-0.080 3.449c-1.724 13.691-14.238 18.355-27.881 16.626-221.727-16.054-470.023-34.713-691.696-51.525-13.641-1.73-23.87-11.849-24.687-23.562l0.051-2.3c13.717-173.781 27.513-360.645 38.605-531.381l0.051-2.299c2.506-11.47 14.184-19.205 27.932-18.925z"></path>
</symbol>
<symbol id="icon-user" viewBox="0 0 1024 1024">
	<title>user</title>
	<path class="path1" d="M71.971 830.122q0-33.111 2.205-64.681t8.75-68.111 16.555-67.831 26.881-60.936 38.746-50.611 53.446-33.426 69.686-12.495q5.635 0 26.251 13.44t46.551 29.996 67.516 29.996 83.442 13.44 83.442-13.44 67.516-29.996 46.551-29.996 26.251-13.44q38.116 0 69.686 12.495t53.446 33.426 38.746 50.611 26.881 60.936 16.555 67.831 8.75 68.111 2.205 64.681q0 75.007-45.641 118.442t-121.243 43.436h-546.256q-75.637 0-121.243-43.436t-45.641-118.442zM271.965 272q0-99.367 70.316-169.684t169.684-70.316 169.684 70.316 70.316 169.684-70.316 169.684-169.684 70.316-169.684-70.316-70.316-169.684z"></path>
</symbol>
<symbol id="icon-users" viewBox="0 0 1024 1024">
	<title>users</title>
	<path class="path1" d="M304.667 751.058c46.080-30.51 103.387-53.703 166.48-67.851-12.533-15.012-23.92-31.752-33.733-49.788-25.333-46.602-38.747-97.929-38.747-148.419 0-72.603 0-141.156 25.493-197.235 24.747-54.432 69.28-88.155 132.693-100.818-14.107-64.53-51.627-106.947-151.52-106.947-160 0-160 108.783-160 243 0 83.592 47.92 167.157 106.667 200.664v44.523c-180.907 14.985-320 104.976-320 213.786h232.507c12.107-10.881 25.493-21.249 40.16-30.942zM672 730.214v-44.523c58.747-33.507 106.667-117.099 106.667-200.664 0-134.217 0-243-160-243s-160 108.783-160 243c0 83.592 47.92 167.157 106.667 200.664v44.523c-180.907 14.985-320 104.976-320 213.786h746.667c0-108.81-139.093-198.828-320-213.786z"></path>
</symbol>
<symbol id="icon-zoom-max" viewBox="0 0 1024 1024">
	<title>zoom-max</title>
	<path class="path1" d="M35.775 36.077c2.689-2.716 5.958-4.073 9.808-4.073l212.58 8.733c5.764 0.391 9.7 3.204 11.808 8.44 1.914 5.431 0.952 10.085-2.888 13.963l-64.526 65.172 45.627 46.082c2.689 2.716 4.033 5.822 4.033 9.32s-1.345 6.604-4.033 9.32l-55.315 55.869c-2.689 2.716-5.764 4.073-9.227 4.073s-6.539-1.358-9.227-4.073l-45.627-46.082-64.526 65.172c-4.033 4.073-8.641 5.045-13.825 2.917s-8.066-6.007-8.647-11.633l-9.792-213.552c0-3.889 1.247-7.093 3.742-9.613zM988.225 987.927c-2.689 2.716-5.958 4.073-9.808 4.073l-212.58-8.733c-5.764-0.391-9.7-3.204-11.808-8.44-1.915-5.431-0.952-10.085 2.888-13.963l64.526-65.172-45.627-46.082c-2.689-2.716-4.033-5.822-4.033-9.32s1.345-6.604 4.033-9.32l55.315-55.869c2.689-2.716 5.764-4.073 9.227-4.073s6.539 1.358 9.227 4.073l45.627 46.082 64.526-65.172c4.033-4.073 8.641-5.045 13.825-2.916s8.066 6.007 8.647 11.633l9.792 213.552c0 3.889-1.248 7.093-3.742 9.613zM987.941 35.792c2.704 2.701 4.055 5.985 4.055 9.852l-8.694 213.535c-0.389 5.79-3.19 9.744-8.402 11.861-5.407 1.923-10.040 0.956-13.901-2.901l-64.881-64.816-45.877 45.831c-2.703 2.701-5.796 4.051-9.278 4.051s-6.575-1.35-9.278-4.051l-55.618-55.563c-2.704-2.701-4.055-5.79-4.055-9.269s1.352-6.568 4.055-9.269l45.877-45.831-64.88-64.816c-4.055-4.051-5.023-8.68-2.904-13.887s5.98-8.102 11.581-8.685l212.597-9.836c3.871 0 7.061 1.253 9.57 3.759zM853.538 494.876c-1.863-46.375-12.601-90.354-32.214-131.935s-45.291-77.079-77.035-106.493c-31.744-29.414-69.036-52.264-111.876-68.552s-87.343-23.495-133.51-21.624c-46.166 1.871-89.947 12.658-131.341 32.359s-76.732 45.496-106.013 77.383c-29.281 31.887-52.029 69.348-68.242 112.382s-23.389 87.738-21.526 134.114c2.866 71.342 25.475 135.219 67.826 191.629l-159.372 173.557c-11.466 12.487-16.854 27.319-16.164 44.496s7.335 31.603 19.935 43.278c12.6 11.675 27.449 17.166 44.549 16.473 17.425-0.706 31.702-7.46 42.829-20.26l159.392-173.066c59.386 37.86 124.59 55.351 195.61 52.472 46.166-1.871 89.947-12.658 131.341-32.359s76.732-45.496 106.013-77.383c29.281-31.887 52.029-69.348 68.243-112.382s23.389-87.738 21.526-134.114zM729.599 499.899c2.41 59.994-16.75 112.168-57.48 156.523s-90.957 67.743-150.68 70.164c-59.723 2.421-111.663-16.826-155.818-57.74s-67.438-91.368-69.848-151.362c-2.41-59.994 16.75-112.168 57.48-156.523s90.957-67.743 150.68-70.164c59.723-2.421 111.663 16.826 155.818 57.74s67.438 91.368 69.848 151.362z"></path>
</symbol>
</defs>
</svg>
