<?xml version="1.0" encoding="UTF-8" standalone="no"?>
<!-- Generated by IcoMoon.io -->

<svg
   xmlns:dc="http://purl.org/dc/elements/1.1/"
   xmlns:cc="http://creativecommons.org/ns#"
   xmlns:rdf="http://www.w3.org/1999/02/22-rdf-syntax-ns#"
   xmlns:svg="http://www.w3.org/2000/svg"
   xmlns="http://www.w3.org/2000/svg"
   xmlns:sodipodi="http://sodipodi.sourceforge.net/DTD/sodipodi-0.dtd"
   xmlns:inkscape="http://www.inkscape.org/namespaces/inkscape"
   version="1.1"
   width="32"
   height="32"
   viewBox="0 0 32 32"
   id="svg2"
   inkscape:version="0.48.4 r9939"
   sodipodi:docname="base-layer.svg">
  <metadata
     id="metadata10">
    <rdf:RDF>
      <cc:Work
         rdf:about="">
        <dc:format>image/svg+xml</dc:format>
        <dc:type
           rdf:resource="http://purl.org/dc/dcmitype/StillImage" />
      </cc:Work>
    </rdf:RDF>
  </metadata>
  <defs
     id="defs8" />
  <sodipodi:namedview
     pagecolor="#ffffff"
     bordercolor="#666666"
     borderopacity="1"
     objecttolerance="10"
     gridtolerance="10"
     guidetolerance="10"
     inkscape:pageopacity="0"
     inkscape:pageshadow="2"
     inkscape:window-width="1291"
     inkscape:window-height="670"
     id="namedview6"
     showgrid="false"
     inkscape:zoom="7.375"
     inkscape:cx="-19.322034"
     inkscape:cy="13.830508"
     inkscape:window-x="0"
     inkscape:window-y="25"
     inkscape:window-maximized="0"
     inkscape:current-layer="svg2" />
  <path
     d="M 30.140072,1 C 30.608782,1 31,1.3912337 31,1.8599642 V 27.015166 c 0,0.391233 -0.234981,0.703721 -0.547454,0.781217 L 20.999583,31 11.000417,27.483897 c 0,0 -8.2030668,3.203616 -8.4367973,3.281113 C 2.3298892,30.842507 2.0161653,31 1.8599283,31 1.3912174,31 1,30.608766 1,30.140036 V 4.984834 C 1,4.5936002 1.2349804,4.2811133 1.5474543,4.2036166 L 11.000417,1 20.999583,4.5161035 c 0,0 8.04683,-3.1248698 8.436797,-3.2811133 C 29.826347,1.0787467 29.983834,1 30.140072,1 z M 20.999583,27.64014 V 7.7972168 L 11.000417,4.35986 v 19.842923 z"
     id="path4"
     inkscape:connector-curvature="0"
     style="fill:#444444" />
</svg>
