<?xml version="1.0" encoding="UTF-8" standalone="no"?>
<!-- Generated by IcoMoon.io -->

<svg
   xmlns:dc="http://purl.org/dc/elements/1.1/"
   xmlns:cc="http://creativecommons.org/ns#"
   xmlns:rdf="http://www.w3.org/1999/02/22-rdf-syntax-ns#"
   xmlns:svg="http://www.w3.org/2000/svg"
   xmlns="http://www.w3.org/2000/svg"
   xmlns:sodipodi="http://sodipodi.sourceforge.net/DTD/sodipodi-0.dtd"
   xmlns:inkscape="http://www.inkscape.org/namespaces/inkscape"
   version="1.1"
   width="32"
   height="32"
   viewBox="0 0 32 32"
   id="svg2"
   inkscape:version="0.48.4 r9939"
   sodipodi:docname="circle-plus.svg">
  <metadata
     id="metadata12">
    <rdf:RDF>
      <cc:Work
         rdf:about="">
        <dc:format>image/svg+xml</dc:format>
        <dc:type
           rdf:resource="http://purl.org/dc/dcmitype/StillImage" />
        <dc:title></dc:title>
      </cc:Work>
    </rdf:RDF>
  </metadata>
  <defs
     id="defs10" />
  <sodipodi:namedview
     pagecolor="#ffffff"
     bordercolor="#666666"
     borderopacity="1"
     objecttolerance="10"
     gridtolerance="10"
     guidetolerance="10"
     inkscape:pageopacity="0"
     inkscape:pageshadow="2"
     inkscape:window-width="1339"
     inkscape:window-height="793"
     id="namedview8"
     showgrid="false"
     showguides="true"
     inkscape:guide-bbox="true"
     inkscape:zoom="14.75"
     inkscape:cx="15.275349"
     inkscape:cy="14.613616"
     inkscape:window-x="0"
     inkscape:window-y="25"
     inkscape:window-maximized="0"
     inkscape:current-layer="svg2" />
  <g
     style="font-size:22px;font-style:normal;font-variant:normal;font-weight:bold;font-stretch:normal;line-height:125%;letter-spacing:0px;word-spacing:0px;fill:#000000;fill-opacity:1;stroke:none;font-family:Noto Serif;-inkscape-font-specification:Noto Serif Bold"
     id="text2988">
    <path
       id="path2993"
       style="fill:#444444;fill-opacity:1"
       d="m 14.018066,9.1088867 c -10e-7,-0.2792812 0.04655,-0.5191898 0.139649,-0.7197265 0.100258,-0.2005046 0.232745,-0.3616372 0.397461,-0.4833985 0.171872,-0.1288895 0.368812,-0.2219884 0.59082,-0.2792969 0.229164,-0.064436 0.476234,-0.096663 0.741211,-0.09668 0.250647,1.69e-5 0.490556,0.032243 0.719727,0.09668 0.229162,0.057309 0.429682,0.1504074 0.601562,0.2792969 0.17187,0.1217613 0.307937,0.2828939 0.408203,0.4833985 0.107416,0.2005367 0.161127,0.4404453 0.161133,0.7197265 -6e-6,0.2721505 -0.05372,0.5084784 -0.161133,0.7089844 -0.100266,0.2005349 -0.236333,0.3652489 -0.408203,0.4941409 -0.17188,0.12892 -0.3724,0.2256 -0.601562,0.290039 -0.229171,0.06447 -0.46908,0.09669 -0.719727,0.09668 -0.264977,1.4e-5 -0.512047,-0.03221 -0.741211,-0.09668 -0.222008,-0.06444 -0.418948,-0.161119 -0.59082,-0.290039 C 14.39046,10.18312 14.257973,10.018406 14.157715,9.8178711 14.064614,9.6173651 14.018065,9.3810372 14.018066,9.1088867 M 12.76123,23.299316 c 0.164713,2e-6 0.336588,-0.01432 0.515625,-0.04297 0.186197,-0.03581 0.354491,-0.10384 0.504883,-0.204102 0.157551,-0.100259 0.286457,-0.243488 0.386719,-0.429687 0.10742,-0.186196 0.161131,-0.436847 0.161133,-0.751954 l 0,-6.68164 c -2e-6,-0.29361 -0.05371,-0.526358 -0.161133,-0.698242 -0.100262,-0.179027 -0.229168,-0.315094 -0.386719,-0.408203 -0.157553,-0.10025 -0.329428,-0.164703 -0.515625,-0.19336 -0.179037,-0.02863 -0.347331,-0.04296 -0.504883,-0.04297 l -0.257812,0 0,-1.170898 5.166992,0 0,9.195312 c -5e-6,0.315107 0.05013,0.565758 0.150391,0.751954 0.107416,0.186199 0.236322,0.329428 0.386719,0.429687 0.157545,0.100262 0.32942,0.168296 0.515625,0.204102 0.186191,0.02865 0.358065,0.04297 0.515625,0.04297 l 0.257812,0 0,1.170899 -6.993164,0 0,-1.170899 0.257812,0 M 5.3933983,5.3933983 c -5.85815873,5.8581587 -5.85815873,15.3550447 0,21.2132037 5.8581587,5.858158 15.3550447,5.858158 21.2132037,0 5.858158,-5.858159 5.858158,-15.355045 0,-21.2132037 -5.858159,-5.85815873 -15.355045,-5.85815838 -21.2132037,0 z M 24.617864,24.617864 c -4.759713,4.759712 -12.476015,4.759712 -17.2357279,0 -4.7597125,-4.759713 -4.7597125,-12.476015 0,-17.2357279 4.7597129,-4.7597125 12.4760149,-4.7597125 17.2357279,0 4.759712,4.7597129 4.759712,12.4760149 0,17.2357279 z" />
  </g>
</svg>
