<?xml version="1.0" encoding="UTF-8" standalone="no"?>
<!-- Generated by IcoMoon.io -->

<svg
   xmlns:dc="http://purl.org/dc/elements/1.1/"
   xmlns:cc="http://creativecommons.org/ns#"
   xmlns:rdf="http://www.w3.org/1999/02/22-rdf-syntax-ns#"
   xmlns:svg="http://www.w3.org/2000/svg"
   xmlns="http://www.w3.org/2000/svg"
   xmlns:sodipodi="http://sodipodi.sourceforge.net/DTD/sodipodi-0.dtd"
   xmlns:inkscape="http://www.inkscape.org/namespaces/inkscape"
   version="1.1"
   width="32"
   height="32"
   viewBox="0 0 32 32"
   id="svg2"
   inkscape:version="0.48.4 r9939"
   sodipodi:docname="circle-i.svg">
  <metadata
     id="metadata10">
    <rdf:RDF>
      <cc:Work
         rdf:about="">
        <dc:format>image/svg+xml</dc:format>
        <dc:type
           rdf:resource="http://purl.org/dc/dcmitype/StillImage" />
        <dc:title />
      </cc:Work>
    </rdf:RDF>
  </metadata>
  <defs
     id="defs8" />
  <sodipodi:namedview
     pagecolor="#ffffff"
     bordercolor="#666666"
     borderopacity="1"
     objecttolerance="10"
     gridtolerance="10"
     guidetolerance="10"
     inkscape:pageopacity="0"
     inkscape:pageshadow="2"
     inkscape:window-width="720"
     inkscape:window-height="480"
     id="namedview6"
     showgrid="false"
     inkscape:zoom="3.6875"
     inkscape:cx="44.772782"
     inkscape:cy="10.878076"
     inkscape:window-x="0"
     inkscape:window-y="25"
     inkscape:window-maximized="0"
     inkscape:current-layer="svg2" />
  <path
     style="fill:#444444"
     d="M 16 1 C 7.7073077 1 1 7.7073077 1 16 C 1 24.292692 7.7073077 31 16 31 C 24.292692 31 31 24.292692 31 16 C 31 7.7073077 24.293846 1 16 1 z M 15.875 7.53125 C 16.125647 7.531267 16.364579 7.56056 16.59375 7.625 C 16.822912 7.68231 17.04687 7.77736 17.21875 7.90625 C 17.39062 8.028011 17.524734 8.174496 17.625 8.375 C 17.732416 8.575537 17.781244 8.814469 17.78125 9.09375 C 17.781244 9.3659 17.732413 9.611994 17.625 9.8125 C 17.524734 10.013035 17.39062 10.183608 17.21875 10.3125 C 17.04687 10.44142 16.822912 10.529311 16.59375 10.59375 C 16.364579 10.65822 16.125647 10.68751 15.875 10.6875 C 15.610023 10.687514 15.385414 10.65822 15.15625 10.59375 C 14.934242 10.52931 14.734372 10.44142 14.5625 10.3125 C 14.397784 10.183608 14.256508 10.013035 14.15625 9.8125 C 14.06315 9.611994 14.031249 9.3659 14.03125 9.09375 C 14.031249 8.814469 14.063151 8.575537 14.15625 8.375 C 14.256508 8.174496 14.397784 8.028011 14.5625 7.90625 C 14.734372 7.77736 14.934242 7.682308 15.15625 7.625 C 15.385414 7.56056 15.610023 7.53127 15.875 7.53125 z M 12.5 12.6875 L 17.65625 12.6875 L 17.65625 21.875 C 17.656245 22.190107 17.712239 22.438804 17.8125 22.625 C 17.919916 22.811199 18.068353 22.962241 18.21875 23.0625 C 18.376295 23.162762 18.532545 23.214194 18.71875 23.25 C 18.904941 23.27865 19.09244 23.3125 19.25 23.3125 L 19.5 23.3125 L 19.5 24.46875 L 12.5 24.46875 L 12.5 23.3125 L 12.75 23.3125 C 12.914713 23.312502 13.102213 23.27865 13.28125 23.25 C 13.467447 23.21419 13.630858 23.162762 13.78125 23.0625 C 13.938801 22.962241 14.055988 22.811199 14.15625 22.625 C 14.26367 22.438804 14.343748 22.190107 14.34375 21.875 L 14.34375 15.1875 C 14.343748 14.89389 14.263673 14.671884 14.15625 14.5 C 14.055988 14.320973 13.938801 14.186859 13.78125 14.09375 C 13.623697 13.9935 13.467447 13.903657 13.28125 13.875 C 13.102213 13.84637 12.907552 13.84376 12.75 13.84375 L 12.5 13.84375 L 12.5 12.6875 z "
     id="path4" />
</svg>
