<?xml version="1.0" encoding="UTF-8" standalone="no"?>
<!-- Created with Inkscape (http://www.inkscape.org/) -->

<svg
   xmlns:dc="http://purl.org/dc/elements/1.1/"
   xmlns:cc="http://creativecommons.org/ns#"
   xmlns:rdf="http://www.w3.org/1999/02/22-rdf-syntax-ns#"
   xmlns:svg="http://www.w3.org/2000/svg"
   xmlns="http://www.w3.org/2000/svg"
   xmlns:xlink="http://www.w3.org/1999/xlink"
   xmlns:sodipodi="http://sodipodi.sourceforge.net/DTD/sodipodi-0.dtd"
   xmlns:inkscape="http://www.inkscape.org/namespaces/inkscape"
   width="744.09448819"
   height="1052.3622047"
   id="svg2"
   version="1.1"
   inkscape:version="0.48.3.1 r9886"
   sodipodi:docname="bg_2.svg">
  <defs
     id="defs4">
    <inkscape:perspective
       sodipodi:type="inkscape:persp3d"
       inkscape:vp_x="0 : 526.18109 : 1"
       inkscape:vp_y="0 : 1000 : 0"
       inkscape:vp_z="744.09448 : 526.18109 : 1"
       inkscape:persp3d-origin="372.04724 : 350.78739 : 1"
       id="perspective10" />
    <inkscape:perspective
       id="perspective2902"
       inkscape:persp3d-origin="0.5 : 0.33333333 : 1"
       inkscape:vp_z="1 : 0.5 : 1"
       inkscape:vp_y="0 : 1000 : 0"
       inkscape:vp_x="0 : 0.5 : 1"
       sodipodi:type="inkscape:persp3d" />
    <inkscape:perspective
       id="perspective3015"
       inkscape:persp3d-origin="0.5 : 0.33333333 : 1"
       inkscape:vp_z="1 : 0.5 : 1"
       inkscape:vp_y="0 : 1000 : 0"
       inkscape:vp_x="0 : 0.5 : 1"
       sodipodi:type="inkscape:persp3d" />
    <inkscape:perspective
       id="perspective3089"
       inkscape:persp3d-origin="0.5 : 0.33333333 : 1"
       inkscape:vp_z="1 : 0.5 : 1"
       inkscape:vp_y="0 : 1000 : 0"
       inkscape:vp_x="0 : 0.5 : 1"
       sodipodi:type="inkscape:persp3d" />
    <inkscape:perspective
       id="perspective3199"
       inkscape:persp3d-origin="0.5 : 0.33333333 : 1"
       inkscape:vp_z="1 : 0.5 : 1"
       inkscape:vp_y="0 : 1000 : 0"
       inkscape:vp_x="0 : 0.5 : 1"
       sodipodi:type="inkscape:persp3d" />
    <inkscape:perspective
       id="perspective3293"
       inkscape:persp3d-origin="0.5 : 0.33333333 : 1"
       inkscape:vp_z="1 : 0.5 : 1"
       inkscape:vp_y="0 : 1000 : 0"
       inkscape:vp_x="0 : 0.5 : 1"
       sodipodi:type="inkscape:persp3d" />
    <inkscape:perspective
       id="perspective3100"
       inkscape:persp3d-origin="0.5 : 0.33333333 : 1"
       inkscape:vp_z="1 : 0.5 : 1"
       inkscape:vp_y="0 : 1000 : 0"
       inkscape:vp_x="0 : 0.5 : 1"
       sodipodi:type="inkscape:persp3d" />
    <inkscape:perspective
       id="perspective2873"
       inkscape:persp3d-origin="0.5 : 0.33333333 : 1"
       inkscape:vp_z="1 : 0.5 : 1"
       inkscape:vp_y="0 : 1000 : 0"
       inkscape:vp_x="0 : 0.5 : 1"
       sodipodi:type="inkscape:persp3d" />
    <filter
       id="filter2879"
       inkscape:label="Desaturate"
       x="0"
       y="0"
       width="1"
       height="1"
       inkscape:menu="Color"
       inkscape:menu-tooltip="Render in shades of gray by reducing saturation to zero"
       color-interpolation-filters="sRGB">
      <feColorMatrix
         id="feColorMatrix2881"
         type="saturate"
         values="0" />
    </filter>
    <filter
       id="filter2883"
       inkscape:label="Desaturate"
       x="0"
       y="0"
       width="1"
       height="1"
       inkscape:menu="Color"
       inkscape:menu-tooltip="Render in shades of gray by reducing saturation to zero"
       color-interpolation-filters="sRGB">
      <feColorMatrix
         id="feColorMatrix2885"
         type="saturate"
         values="0" />
    </filter>
    <filter
       id="filter2887"
       inkscape:label="Desaturate"
       x="0"
       y="0"
       width="1"
       height="1"
       inkscape:menu="Color"
       inkscape:menu-tooltip="Render in shades of gray by reducing saturation to zero"
       color-interpolation-filters="sRGB">
      <feColorMatrix
         id="feColorMatrix2889"
         type="saturate"
         values="0" />
    </filter>
  </defs>
  <sodipodi:namedview
     id="base"
     pagecolor="#ffffff"
     bordercolor="#666666"
     borderopacity="1.0"
     inkscape:pageopacity="0.0"
     inkscape:pageshadow="2"
     inkscape:zoom="0.38849294"
     inkscape:cx="876.86599"
     inkscape:cy="941.04026"
     inkscape:document-units="px"
     inkscape:current-layer="layer1"
     showgrid="false"
     inkscape:window-width="1920"
     inkscape:window-height="1176"
     inkscape:window-x="1920"
     inkscape:window-y="0"
     inkscape:window-maximized="1" />
  <metadata
     id="metadata7">
    <rdf:RDF>
      <cc:Work
         rdf:about="">
        <dc:format>image/svg+xml</dc:format>
        <dc:type
           rdf:resource="http://purl.org/dc/dcmitype/StillImage" />
        <dc:title></dc:title>
      </cc:Work>
    </rdf:RDF>
  </metadata>
  <g
     inkscape:label="Vrstva 1"
     inkscape:groupmode="layer"
     id="layer1">
    <g
       id="g3105">
      <image
         sodipodi:absref="/home/rasto/My documets/Composition/wallpapers/bg.png"
         xlink:href="bg.png"
         y="-791.40277"
         x="46.831715"
         id="image3102"
         height="1050"
         width="1680"
         inkscape:export-filename="/home/rasto/Desktop/bg_2.png"
         inkscape:export-xdpi="90"
         inkscape:export-ydpi="90" />
      <g
         id="g3077">
        <g
           transform="matrix(0.84019176,0,0,0.84019176,140.12164,23.293289)"
           style="font-size:4.01997519px;font-style:normal;font-weight:normal;line-height:125%;fill:#000000;fill-opacity:1;stroke:none;filter:url(#filter2887);font-family:Bitstream Vera Sans"
           id="text2841">
          <path
             d="m 833.65099,84.314603 0.38592,12.285044 c -1.1578,-0.514526 -2.93731,-1.007643 -5.33853,-1.479351 -2.91586,-0.600284 -5.5744,-0.900442 -7.97563,-0.900474 -4.20225,3.2e-5 -7.61118,1.007705 -10.22682,3.023021 -2.95872,2.272653 -4.43807,5.617267 -4.43805,10.033857 -2e-5,2.83008 0.77181,4.9955 2.3155,6.49628 1.58653,1.45792 3.73051,2.18688 6.43196,2.18687 l 4.05214,-0.51456 0.25728,-3.66622 -4.18078,0 0.51456,-10.87001 20.0034,0 c -5e-5,2.74433 -0.25733,6.86078 -0.77184,12.34936 -0.5146,5.48862 -0.77188,9.60507 -0.77183,12.34937 -2.95875,0.55743 -6.26049,0.96479 -9.90522,1.22207 -3.60194,0.30016 -6.83935,0.45024 -9.71226,0.45024 -8.19005,0 -14.42905,-1.73663 -18.71701,-5.20989 -4.2451,-3.51613 -6.36764,-8.61881 -6.36764,-15.30807 0,-7.675441 2.57278,-13.635718 7.71835,-17.880845 5.14556,-4.245052 12.11351,-6.367597 20.90388,-6.367641 2.22971,4.4e-5 4.52377,0.128683 6.88219,0.385918 2.35835,0.257321 5.33849,0.728998 8.94043,1.415031"
             style="fill:#000000"
             id="path3027" />
          <path
             d="m 843.10396,82.513654 15.17943,0 c -0.12866,1.543713 -0.2573,3.216021 -0.38592,5.016929 -0.0858,1.800986 -0.12866,3.065937 -0.12864,3.794857 l -14.92215,0 c 0,-0.986198 0.0429,-2.637066 0.12864,-4.95261 0.0858,-2.315463 0.12864,-3.601854 0.12864,-3.859176 m 15.30807,11.706168 c -0.51458,4.931197 -0.85762,9.776598 -1.02912,14.536228 -0.17154,4.75967 -0.2573,10.63418 -0.25728,17.62357 l -16.53013,0 c 0.60031,-4.88828 1.05055,-10.1196 1.35071,-15.69398 0.34303,-5.57434 0.51455,-11.062945 0.51456,-16.465818 l 15.95126,0"
             style="fill:#000000"
             id="path3029" />
          <path
             d="m 892.33559,94.60574 0.6432,10.54841 c -1.32931,-0.55741 -2.63714,-0.94333 -3.9235,-1.15775 -1.24354,-0.25725 -2.48705,-0.38589 -3.73054,-0.38592 -1.28641,3e-5 -2.25121,0.0858 -2.89438,0.25728 -0.60034,0.12866 -0.90049,0.4717 -0.90047,1.02912 2.7014,1.67233 5.05978,3.45183 7.07515,5.33852 2.22972,2.10112 3.34459,4.37375 3.34462,6.81788 -3e-5,3.43039 -1.5437,6.04605 -4.63101,7.84699 -2.74433,1.58655 -6.34622,2.37983 -10.80569,2.37983 -2.144,0 -4.28799,-0.19296 -6.43196,-0.57888 -2.10112,-0.38592 -3.90206,-0.70751 -5.40285,-0.96479 l -1.09343,-11.19161 c 2.27262,0.8576 4.095,1.47936 5.46716,1.86526 1.41502,0.38593 2.80861,0.57889 4.18078,0.57888 1.0291,10e-6 1.80093,-0.0858 2.3155,-0.25728 0.55742,-0.21439 0.83614,-0.55742 0.83616,-1.02911 -2.70144,-1.84382 -5.05982,-3.73052 -7.07516,-5.66013 -2.22975,-2.10108 -3.34462,-4.39515 -3.34462,-6.88219 0,-2.61564 0.77183,-4.716746 2.31551,-6.303324 2.27261,-2.358354 6.15323,-3.537545 11.64185,-3.537579 1.37213,3.4e-5 3.15163,0.107233 5.33852,0.321599 2.18684,0.171551 4.54523,0.493149 7.07516,0.964794"
             style="fill:#000000"
             id="path3031" />
          <path
             d="m 903.66589,88.431058 14.53623,-3.151661 -0.38592,8.940425 6.5606,0 -0.38592,10.934328 -6.5606,0 c -0.12866,1.07202 -0.21442,2.42273 -0.25727,4.05214 -0.0429,1.58657 -0.0643,2.44416 -0.0643,2.57278 -3e-5,1.45793 0.21437,2.52992 0.64319,3.21598 0.47165,0.64321 1.28637,0.96481 2.44415,0.9648 0.55741,1e-5 1.2006,-0.0858 1.92958,-0.25728 0.77181,-0.17151 1.52221,-0.38591 2.25119,-0.6432 l -1.99391,10.93434 c -2.87296,0.85759 -6.0675,1.28639 -9.58362,1.28639 -3.55903,0 -6.21757,-0.55744 -7.97563,-1.67231 -2.22975,-1.41503 -3.34463,-3.79485 -3.34462,-7.13948 -10e-6,-0.64319 0.12863,-2.61565 0.38592,-5.9174 0.25727,-3.30172 0.38591,-5.76731 0.38592,-7.39676 l -5.14557,0 0.51456,-10.934328 5.66012,0 0.38592,-5.788764"
             style="font-size:64.31960297px;font-variant:normal;font-weight:bold;font-stretch:normal;text-align:start;line-height:125%;writing-mode:lr-tb;text-anchor:start;fill:#000000;font-family:'AT*Erie Black';-inkscape-font-specification:'AT*Erie Black, Bold'"
             id="path3033" />
          <path
             d="m 933.54636,95.506214 c 2.78717,-0.643165 5.74587,-1.157721 8.8761,-1.54367 3.1302,-0.428765 5.9817,-0.643163 8.55451,-0.643197 4.28794,3.4e-5 7.58968,0.750428 9.90522,2.251187 2.35835,1.45794 3.53754,3.430406 3.53758,5.917406 -4e-5,1.67233 -0.27876,6.79645 -0.83616,15.37238 -0.25731,3.94494 -0.38595,7.11804 -0.38591,9.5193 l -15.24375,0 c 0.30013,-2.3155 0.51453,-4.48092 0.6432,-6.49628 0.17149,-2.01534 0.25725,-3.9878 0.25727,-5.9174 -1.28641,0.34305 -2.5728,0.68609 -3.85917,1.02911 -1.62945,0.55745 -2.44416,1.24353 -2.44415,2.05823 -10e-6,0.94336 0.68606,1.41504 2.05823,1.41503 0.34302,1e-5 1.09341,-0.12863 2.25119,-0.38592 l -2.76575,8.81179 c -0.64321,0.0858 -1.43648,0.17152 -2.37982,0.25728 -0.90049,0.0858 -1.60801,0.12864 -2.12255,0.12864 -3.94494,0 -6.96796,-0.90048 -9.06906,-2.70143 -2.10111,-1.80094 -3.15167,-4.13788 -3.15166,-7.01083 -10e-6,-3.90205 1.82238,-6.79642 5.46716,-8.68315 2.1011,-1.07197 5.51004,-2.01533 10.22682,-2.83006 3.68764,-0.64318 5.53146,-1.37213 5.53149,-2.18687 -3e-5,-0.72893 -0.21443,-1.20061 -0.6432,-1.41503 -0.38594,-0.21437 -1.05058,-0.32157 -1.99391,-0.3216 -1.62945,3e-5 -3.66623,0.23587 -6.11036,0.70752 -2.40128,0.42882 -5.01694,1.15777 -7.84699,2.18687 l 1.54367,-9.519306"
             style="font-size:64.31960297px;font-variant:normal;font-weight:bold;font-stretch:normal;text-align:start;line-height:125%;writing-mode:lr-tb;text-anchor:start;fill:#000000;font-family:'AT*Erie Black';-inkscape-font-specification:'AT*Erie Black, Bold'"
             id="path3035" />
        </g>
        <g
           transform="matrix(0.84019176,0,0,0.84019176,140.12164,23.293289)"
           style="font-size:2.45917797px;font-style:normal;font-weight:normal;line-height:125%;fill:#000000;fill-opacity:1;stroke:none;filter:url(#filter2883);font-family:Bitstream Vera Sans"
           id="text2851">
          <path
             d="m 848.78125,136.98137 c -10e-6,-1.27367 -0.32838,-2.30852 -0.9851,-3.10457 -0.6866,-0.82589 -1.60205,-1.23884 -2.74635,-1.23885 -1.15427,1e-5 -2.06475,0.40301 -2.73143,1.209 -0.66669,0.79605 -1.00003,1.84085 -1.00003,3.13442 0,1.29357 0.33334,2.34833 1.00003,3.16427 0.66668,0.806 1.57716,1.20899 2.73143,1.20899 1.1443,0 2.0498,-0.40299 2.7165,-1.20899 0.67662,-0.81594 1.01494,-1.8707 1.01495,-3.16427 m 1.47766,0 c -10e-6,1.43288 -0.36818,2.66675 -1.10451,3.7016 -0.93536,1.30352 -2.30356,1.95528 -4.1046,1.95528 -1.80106,0 -3.16926,-0.65176 -4.1046,-1.95528 -0.7463,-1.03485 -1.11944,-2.26872 -1.11944,-3.7016 0,-1.42292 0.36817,-2.64684 1.10451,-3.67175 0.93535,-1.30352 2.30852,-1.95528 4.11953,-1.95529 1.79109,1e-5 3.15431,0.6468 4.08967,1.94036 0.74628,1.03486 1.11943,2.26376 1.11944,3.68668"
             style="font-size:14.92582035px;font-variant:normal;font-stretch:normal;text-align:start;line-height:125%;writing-mode:lr-tb;text-anchor:start;fill:#000000;font-family:'AT*Switzerland';-inkscape-font-specification:'AT*Switzerland'"
             id="path3041" />
          <path
             d="m 851.69692,145.42938 0,-10.89585 1.25377,0 0,1.13437 c 0.16915,-0.37812 0.47264,-0.70649 0.91047,-0.98511 0.44777,-0.27861 0.94032,-0.41791 1.47766,-0.41792 1.01495,1e-5 1.82592,0.45276 2.43291,1.35825 0.53732,0.79605 0.80598,1.72145 0.80599,2.7762 -10e-6,1.07466 -0.2836,2.01996 -0.85077,2.83591 -0.63684,0.91545 -1.48264,1.37317 -2.53739,1.37317 -0.46768,0 -0.86073,-0.0796 -1.17914,-0.23881 -0.31842,-0.15921 -0.64679,-0.45275 -0.9851,-0.88062 l 0,3.94041 -1.3284,0 m 1.25377,-6.67184 c -10e-6,0.9254 0.23383,1.62194 0.70151,2.08961 0.38807,0.38808 0.89057,0.58211 1.50751,0.58211 0.60698,0 1.09953,-0.27861 1.47765,-0.83584 0.37812,-0.56718 0.56718,-1.35328 0.56719,-2.35828 -1e-5,-0.93535 -0.1841,-1.62691 -0.55226,-2.07469 -0.36818,-0.44777 -0.9055,-0.67166 -1.61199,-0.67166 -0.71644,0 -1.25377,0.32837 -1.61199,0.9851 -0.31842,0.57714 -0.47763,1.33835 -0.47762,2.28365"
             style="font-size:14.92582035px;font-variant:normal;font-stretch:normal;text-align:start;line-height:125%;writing-mode:lr-tb;text-anchor:start;fill:#000000;font-family:'AT*Switzerland';-inkscape-font-specification:'AT*Switzerland'"
             id="path3043" />
          <path
             d="m 865.42331,139.8919 1.34332,0 c -0.0498,0.31842 -0.16419,0.64181 -0.34329,0.97018 -0.25872,0.48758 -0.61197,0.88062 -1.05973,1.17914 -0.22887,0.15921 -0.46769,0.27862 -0.71644,0.35822 -0.37813,0.11941 -0.85078,0.17911 -1.41796,0.17911 -0.59703,0 -1.13436,-0.11941 -1.61198,-0.35822 -0.46768,-0.23881 -0.85078,-0.57713 -1.14929,-1.01496 -0.48758,-0.70648 -0.73137,-1.55228 -0.73137,-2.53738 0,-0.69654 0.0945,-1.33337 0.28359,-1.91051 0.19901,-0.57713 0.49255,-1.05973 0.88063,-1.4478 0.33831,-0.34827 0.73136,-0.61693 1.17914,-0.806 0.44777,-0.199 0.90052,-0.29851 1.35825,-0.29852 0.56717,1e-5 1.09953,0.1443 1.59706,0.43285 0.50747,0.28858 0.91047,0.7065 1.20899,1.25377 0.40796,0.79605 0.61195,1.79111 0.61196,2.98517 l -5.71659,0 c 0,0.81594 0.18906,1.4478 0.56718,1.89558 0.38807,0.43782 0.95525,0.65673 1.70154,0.65673 0.57713,0 1.06968,-0.18408 1.47766,-0.55225 0.35821,-0.31842 0.53732,-0.64679 0.53733,-0.98511 m -4.28371,-2.07469 4.34341,0 c 0,-0.67663 -0.15921,-1.21396 -0.47762,-1.61199 -0.37813,-0.47761 -0.94034,-0.71643 -1.68662,-0.71643 -0.59704,0 -1.10949,0.23384 -1.53736,0.70151 -0.42788,0.46768 -0.64181,1.00998 -0.64181,1.62691"
             style="font-size:14.92582035px;font-variant:normal;font-stretch:normal;text-align:start;line-height:125%;writing-mode:lr-tb;text-anchor:start;fill:#000000;font-family:'AT*Switzerland';-inkscape-font-specification:'AT*Switzerland'"
             id="path3045" />
          <path
             d="m 868.41803,142.33974 0,-7.80621 1.25377,0 0,1.13437 c 0.17911,-0.34827 0.5025,-0.65673 0.97018,-0.92541 0.47762,-0.2786 0.9652,-0.41791 1.46273,-0.41792 0.86569,1e-5 1.5274,0.23385 1.98514,0.70151 0.45771,0.46769 0.68658,1.13935 0.68658,2.01499 l 0,5.29867 -1.31347,0 0,-4.83597 c 0,-0.61693 -0.0945,-1.0846 -0.28359,-1.40303 -0.24877,-0.40796 -0.66669,-0.61195 -1.25377,-0.61195 -0.65674,0 -1.18909,0.22389 -1.59706,0.67166 -0.39802,0.43783 -0.59704,1.00998 -0.59703,1.71647 l 0,4.46282 -1.31348,0"
             style="font-size:14.92582035px;font-variant:normal;font-stretch:normal;text-align:start;line-height:125%;writing-mode:lr-tb;text-anchor:start;fill:#000000;font-family:'AT*Switzerland';-inkscape-font-specification:'AT*Switzerland'"
             id="path3047" />
          <path
             d="m 881.0749,141.39941 0,-5.64196 -1.04481,0 0,-1.28362 1.04481,0 0,-2.13439 1.31347,0 0,2.13439 1.28362,0 0,1.28362 -1.28362,0 0,4.95537 c 0.0299,0.27862 0.0945,0.46768 0.19403,0.56718 0.0995,0.0995 0.23881,0.15921 0.41793,0.17911 0.10945,-0.01 0.21393,-0.0199 0.31344,-0.0299 0.10945,-0.0199 0.22886,-0.0299 0.35822,-0.0299 l 0,1.17914 c -0.26867,0.0199 -0.46768,0.0348 -0.59703,0.0448 -0.12936,0.01 -0.24877,0.0149 -0.35822,0.0149 -0.50748,0 -0.90053,-0.0945 -1.17914,-0.28359 -0.26867,-0.18906 -0.4229,-0.50747 -0.4627,-0.95525"
             style="font-size:14.92582035px;font-variant:normal;font-stretch:normal;text-align:start;line-height:125%;writing-mode:lr-tb;text-anchor:start;fill:#000000;font-family:'AT*Switzerland';-inkscape-font-specification:'AT*Switzerland'"
             id="path3049" />
          <path
             d="m 890.31911,139.8919 1.34332,0 c -0.0498,0.31842 -0.16419,0.64181 -0.34329,0.97018 -0.25872,0.48758 -0.61196,0.88062 -1.05973,1.17914 -0.22887,0.15921 -0.46768,0.27862 -0.71644,0.35822 -0.37813,0.11941 -0.85078,0.17911 -1.41795,0.17911 -0.59704,0 -1.13437,-0.11941 -1.61199,-0.35822 -0.46768,-0.23881 -0.85078,-0.57713 -1.14929,-1.01496 -0.48758,-0.70648 -0.73137,-1.55228 -0.73137,-2.53738 0,-0.69654 0.0945,-1.33337 0.28359,-1.91051 0.19901,-0.57713 0.49255,-1.05973 0.88063,-1.4478 0.33831,-0.34827 0.73136,-0.61693 1.17914,-0.806 0.44777,-0.199 0.90052,-0.29851 1.35825,-0.29852 0.56717,1e-5 1.09953,0.1443 1.59706,0.43285 0.50747,0.28858 0.91047,0.7065 1.20899,1.25377 0.40797,0.79605 0.61195,1.79111 0.61196,2.98517 l -5.71659,0 c 0,0.81594 0.18906,1.4478 0.56718,1.89558 0.38807,0.43782 0.95525,0.65673 1.70155,0.65673 0.57712,0 1.06967,-0.18408 1.47765,-0.55225 0.35821,-0.31842 0.53732,-0.64679 0.53733,-0.98511 m -4.28371,-2.07469 4.34341,0 c 0,-0.67663 -0.15921,-1.21396 -0.47762,-1.61199 -0.37813,-0.47761 -0.94033,-0.71643 -1.68662,-0.71643 -0.59704,0 -1.10949,0.23384 -1.53736,0.70151 -0.42788,0.46768 -0.64181,1.00998 -0.64181,1.62691"
             style="font-size:14.92582035px;font-variant:normal;font-stretch:normal;text-align:start;line-height:125%;writing-mode:lr-tb;text-anchor:start;fill:#000000;font-family:'AT*Switzerland';-inkscape-font-specification:'AT*Switzerland'"
             id="path3051" />
          <path
             d="m 892.85114,137.78736 c 0.10945,-1.0647 0.47762,-1.90552 1.10451,-2.52246 0.63683,-0.62688 1.45277,-0.94032 2.44783,-0.94033 0.77614,1e-5 1.41795,0.17912 1.92543,0.53733 0.66668,0.46768 1.04978,1.2289 1.14929,2.28365 l -1.25377,0 c -0.0796,-0.54727 -0.28857,-0.95524 -0.62688,-1.22392 -0.33833,-0.26865 -0.77117,-0.40299 -1.29855,-0.40299 -0.68659,0 -1.20899,0.27364 -1.56721,0.82092 -0.35822,0.54728 -0.53733,1.34333 -0.53733,2.38813 0,0.93535 0.21394,1.63687 0.64181,2.10454 0.35822,0.39802 0.82589,0.59703 1.40303,0.59703 0.49752,0 0.93037,-0.16418 1.29855,-0.49255 0.36816,-0.32837 0.58707,-0.77614 0.65673,-1.34332 l 1.28362,0 c -0.11941,0.9453 -0.45773,1.68164 -1.01495,2.20902 -0.54729,0.51743 -1.2886,0.77614 -2.22395,0.77614 -0.79605,0 -1.49259,-0.22389 -2.08962,-0.67166 -0.9055,-0.67664 -1.35825,-1.78115 -1.35825,-3.31353 0,-0.0896 0.01,-0.22389 0.0299,-0.403 0.0199,-0.17911 0.0299,-0.31344 0.0299,-0.403"
             style="font-size:14.92582035px;font-variant:normal;font-stretch:normal;text-align:start;line-height:125%;writing-mode:lr-tb;text-anchor:start;fill:#000000;font-family:'AT*Switzerland';-inkscape-font-specification:'AT*Switzerland'"
             id="path3053" />
          <path
             d="m 907.13515,137.04107 0,5.29867 -1.31348,0 0,-5.10463 c 0,-0.57713 -0.0995,-1.00003 -0.29851,-1.2687 -0.23882,-0.31841 -0.65177,-0.47762 -1.23884,-0.47762 -0.61694,0 -1.11447,0.18409 -1.49259,0.55225 -0.46767,0.45773 -0.70151,1.13934 -0.70151,2.04484 l 0,4.25386 -1.31347,0 0,-10.73167 1.31347,0 0,3.97027 c 0.47762,-0.57712 0.86072,-0.93037 1.14929,-1.05973 0.28856,-0.12935 0.67663,-0.19403 1.16421,-0.19404 0.75624,1e-5 1.36322,0.17414 1.82095,0.52241 0.60698,0.45773 0.91047,1.18909 0.91048,2.19409"
             style="font-size:14.92582035px;font-variant:normal;font-stretch:normal;text-align:start;line-height:125%;writing-mode:lr-tb;text-anchor:start;fill:#000000;font-family:'AT*Switzerland';-inkscape-font-specification:'AT*Switzerland'"
             id="path3055" />
          <path
             d="m 909.08507,142.33974 0,-7.80621 1.25377,0 0,1.13437 c 0.1791,-0.34827 0.5025,-0.65673 0.97017,-0.92541 0.47763,-0.2786 0.9652,-0.41791 1.46273,-0.41792 0.8657,1e-5 1.52741,0.23385 1.98514,0.70151 0.45772,0.46769 0.68658,1.13935 0.68659,2.01499 l 0,5.29867 -1.31348,0 0,-4.83597 c 0,-0.61693 -0.0945,-1.0846 -0.28359,-1.40303 -0.24877,-0.40796 -0.66669,-0.61195 -1.25377,-0.61195 -0.65674,0 -1.18909,0.22389 -1.59706,0.67166 -0.39802,0.43783 -0.59703,1.00998 -0.59703,1.71647 l 0,4.46282 -1.31347,0"
             style="font-size:14.92582035px;font-variant:normal;font-stretch:normal;text-align:start;line-height:125%;writing-mode:lr-tb;text-anchor:start;fill:#000000;font-family:'AT*Switzerland';-inkscape-font-specification:'AT*Switzerland'"
             id="path3057" />
          <path
             d="m 916.96054,138.42917 c 0,-1.11445 0.28856,-2.0498 0.86569,-2.80605 0.65674,-0.86569 1.57219,-1.29854 2.74636,-1.29855 1.17415,1e-5 2.09458,0.43286 2.76127,1.29855 0.58708,0.7662 0.88062,1.70155 0.88063,2.80605 -10e-6,1.11447 -0.29355,2.05977 -0.88063,2.83591 -0.66669,0.87565 -1.58712,1.31347 -2.76127,1.31347 -1.17417,0 -2.08962,-0.43782 -2.74636,-1.31347 -0.57713,-0.76619 -0.86569,-1.71149 -0.86569,-2.83591 m 1.34332,0 c 0,0.99506 0.23384,1.76623 0.70151,2.3135 0.39802,0.45773 0.92043,0.68659 1.56722,0.68659 0.83584,0 1.45277,-0.36817 1.8508,-1.10451 0.28856,-0.53733 0.43284,-1.16918 0.43285,-1.89558 -10e-6,-0.73633 -0.13932,-1.35824 -0.41793,-1.86573 -0.39802,-0.73633 -1.01993,-1.1045 -1.86572,-1.10451 -0.83585,1e-5 -1.44781,0.36321 -1.83588,1.08959 -0.28857,0.53733 -0.43285,1.16422 -0.43285,1.88065"
             style="font-size:14.92582035px;font-variant:normal;font-stretch:normal;text-align:start;line-height:125%;writing-mode:lr-tb;text-anchor:start;fill:#000000;font-family:'AT*Switzerland';-inkscape-font-specification:'AT*Switzerland'"
             id="path3059" />
          <path
             d="m 927.04503,131.60807 0,10.73167 -1.31347,0 0,-10.73167 1.31347,0"
             style="font-size:14.92582035px;font-variant:normal;font-stretch:normal;text-align:start;line-height:125%;writing-mode:lr-tb;text-anchor:start;fill:#000000;font-family:'AT*Switzerland';-inkscape-font-specification:'AT*Switzerland'"
             id="path3061" />
          <path
             d="m 928.59218,138.42917 c 0,-1.11445 0.28857,-2.0498 0.8657,-2.80605 0.65673,-0.86569 1.57218,-1.29854 2.74635,-1.29855 1.17416,1e-5 2.09458,0.43286 2.76128,1.29855 0.58707,0.7662 0.88061,1.70155 0.88062,2.80605 -10e-6,1.11447 -0.29355,2.05977 -0.88062,2.83591 -0.6667,0.87565 -1.58712,1.31347 -2.76128,1.31347 -1.17417,0 -2.08962,-0.43782 -2.74635,-1.31347 -0.57713,-0.76619 -0.8657,-1.71149 -0.8657,-2.83591 m 1.34333,0 c -10e-6,0.99506 0.23383,1.76623 0.70151,2.3135 0.39802,0.45773 0.92042,0.68659 1.56721,0.68659 0.83584,0 1.45277,-0.36817 1.8508,-1.10451 0.28856,-0.53733 0.43284,-1.16918 0.43285,-1.89558 -10e-6,-0.73633 -0.13931,-1.35824 -0.41792,-1.86573 -0.39803,-0.73633 -1.01994,-1.1045 -1.86573,-1.10451 -0.83585,1e-5 -1.44781,0.36321 -1.83588,1.08959 -0.28856,0.53733 -0.43285,1.16422 -0.43284,1.88065"
             style="font-size:14.92582035px;font-variant:normal;font-stretch:normal;text-align:start;line-height:125%;writing-mode:lr-tb;text-anchor:start;fill:#000000;font-family:'AT*Switzerland';-inkscape-font-specification:'AT*Switzerland'"
             id="path3063" />
          <path
             d="m 936.8408,138.69784 c 0,-1.38312 0.31841,-2.47271 0.95525,-3.26876 0.64678,-0.79603 1.50751,-1.19406 2.58217,-1.19406 0.42787,0 0.83086,0.13434 1.20899,0.40299 0.27861,0.18907 0.53235,0.45276 0.76122,0.79107 l 0,-0.95525 1.31347,0 0,7.52261 c -10e-6,1.35328 -0.36818,2.34833 -1.10451,2.98517 -0.59704,0.51742 -1.40303,0.77614 -2.41799,0.77614 -0.72639,0 -1.35327,-0.14429 -1.88065,-0.43285 -0.78609,-0.42788 -1.17914,-1.10451 -1.17914,-2.02991 l 1.28362,0 c 0,0.35822 0.16916,0.65673 0.50748,0.89555 0.33832,0.23881 0.73136,0.35822 1.17914,0.35822 0.64678,0 1.16918,-0.17414 1.56721,-0.52241 0.48757,-0.42787 0.73136,-1.06968 0.73137,-1.92543 l 0,-0.4627 c -0.34828,0.36817 -0.7264,0.63684 -1.13437,0.806 -0.40797,0.17911 -0.8259,0.26866 -1.25377,0.26866 -0.85575,0 -1.58213,-0.36319 -2.17917,-1.08958 -0.62688,-0.76619 -0.94032,-1.74135 -0.94032,-2.92546 m 1.40303,-0.35822 c -10e-6,1.07466 0.20398,1.90553 0.61195,2.49261 0.35822,0.51743 0.80599,0.77614 1.34333,0.77614 l 0.22388,-0.0299 c 0.54728,-0.0796 1.00501,-0.39802 1.37318,-0.95525 0.36816,-0.56718 0.55225,-1.2886 0.55226,-2.16425 -10e-6,-0.89554 -0.20897,-1.57715 -0.62689,-2.04483 -0.40798,-0.47762 -0.93535,-0.71644 -1.58214,-0.71644 -0.50748,0.0597 -0.94033,0.30847 -1.29854,0.74629 -0.39803,0.49753 -0.59704,1.12939 -0.59703,1.89558"
             style="font-size:14.92582035px;font-variant:normal;font-stretch:normal;text-align:start;line-height:125%;writing-mode:lr-tb;text-anchor:start;fill:#000000;font-family:'AT*Switzerland';-inkscape-font-specification:'AT*Switzerland'"
             id="path3065" />
          <path
             d="m 945.64166,131.63792 1.34333,0 0,1.49259 -1.34333,0 0,-1.49259 m 0,2.92546 1.34333,0 0,7.77636 -1.34333,0 0,-7.77636"
             style="font-size:14.92582035px;font-variant:normal;font-stretch:normal;text-align:start;line-height:125%;writing-mode:lr-tb;text-anchor:start;fill:#000000;font-family:'AT*Switzerland';-inkscape-font-specification:'AT*Switzerland'"
             id="path3067" />
          <path
             d="m 954.27859,139.8919 1.34332,0 c -0.0498,0.31842 -0.16419,0.64181 -0.34329,0.97018 -0.25872,0.48758 -0.61197,0.88062 -1.05974,1.17914 -0.22886,0.15921 -0.46768,0.27862 -0.71644,0.35822 -0.37812,0.11941 -0.85077,0.17911 -1.41795,0.17911 -0.59703,0 -1.13436,-0.11941 -1.61199,-0.35822 -0.46767,-0.23881 -0.85077,-0.57713 -1.14929,-1.01496 -0.48757,-0.70648 -0.73136,-1.55228 -0.73136,-2.53738 0,-0.69654 0.0945,-1.33337 0.28359,-1.91051 0.19901,-0.57713 0.49255,-1.05973 0.88062,-1.4478 0.33832,-0.34827 0.73137,-0.61693 1.17914,-0.806 0.44777,-0.199 0.90052,-0.29851 1.35825,-0.29852 0.56718,1e-5 1.09953,0.1443 1.59707,0.43285 0.50747,0.28858 0.91046,0.7065 1.20899,1.25377 0.40796,0.79605 0.61195,1.79111 0.61196,2.98517 l -5.71659,0 c -10e-6,0.81594 0.18906,1.4478 0.56718,1.89558 0.38807,0.43782 0.95525,0.65673 1.70154,0.65673 0.57713,0 1.06968,-0.18408 1.47766,-0.55225 0.35821,-0.31842 0.53732,-0.64679 0.53733,-0.98511 m -4.28371,-2.07469 4.34341,0 c -10e-6,-0.67663 -0.15921,-1.21396 -0.47763,-1.61199 -0.37812,-0.47761 -0.94033,-0.71643 -1.68661,-0.71643 -0.59704,0 -1.10949,0.23384 -1.53736,0.70151 -0.42788,0.46768 -0.64182,1.00998 -0.64181,1.62691"
             style="font-size:14.92582035px;font-variant:normal;font-stretch:normal;text-align:start;line-height:125%;writing-mode:lr-tb;text-anchor:start;fill:#000000;font-family:'AT*Switzerland';-inkscape-font-specification:'AT*Switzerland'"
             id="path3069" />
          <path
             d="m 962.9899,136.77241 -1.28362,0 c -10e-6,-0.35822 -0.0945,-0.63683 -0.2836,-0.83585 -0.29852,-0.31841 -0.81594,-0.47762 -1.55228,-0.47763 -0.48758,1e-5 -0.87068,0.10449 -1.14929,0.31345 -0.27862,0.19901 -0.41792,0.4627 -0.41792,0.79106 0,0.29853 0.0995,0.51246 0.29851,0.64181 0.20896,0.12937 0.58708,0.25872 1.13437,0.38808 1.24381,0.31842 1.9901,0.53733 2.23887,0.65673 0.83584,0.38808 1.25376,0.96521 1.25377,1.7314 -10e-6,0.79604 -0.28857,1.4279 -0.8657,1.89558 -0.56719,0.46767 -1.3085,0.70151 -2.22395,0.70151 -1.35327,0 -2.29857,-0.33832 -2.8359,-1.01496 -0.34827,-0.43782 -0.52241,-1.01495 -0.52241,-1.73139 l 1.28363,0 c -10e-6,0.43783 0.10945,0.78112 0.32836,1.02988 0.32837,0.37812 0.91048,0.56718 1.74632,0.56718 0.51743,0 0.93038,-0.0945 1.23885,-0.28359 0.35821,-0.21891 0.53732,-0.53235 0.53733,-0.94033 -1e-5,-0.29851 -0.10946,-0.5224 -0.32837,-0.67166 -0.20897,-0.14925 -0.61694,-0.30349 -1.22392,-0.4627 -1.21397,-0.28856 -1.93041,-0.4826 -2.14932,-0.5821 -0.77614,-0.35822 -1.16421,-0.92043 -1.16421,-1.68662 0,-0.80599 0.29851,-1.43287 0.89555,-1.88066 0.53733,-0.39801 1.21894,-0.59702 2.04484,-0.59703 1.19406,1e-5 2.04483,0.35823 2.55231,1.07466 0.29851,0.41793 0.44777,0.87565 0.44778,1.37318"
             style="font-size:14.92582035px;font-variant:normal;font-stretch:normal;text-align:start;line-height:125%;writing-mode:lr-tb;text-anchor:start;fill:#000000;font-family:'AT*Switzerland';-inkscape-font-specification:'AT*Switzerland'"
             id="path3071" />
        </g>
        <g
           id="text2893"
           style="font-size:80.44786835px;font-style:normal;font-weight:normal;fill:#000000;fill-opacity:1;stroke:none;font-family:Bitstream Vera Sans"
           transform="matrix(0.10779996,0,0,0.10779996,844.97622,93.905656)">
          <path
             inkscape:connector-curvature="0"
             id="path3038"
             d="m 1034.6763,53.831493 c 1.7022,0.576151 3.352,1.806961 4.9495,3.692432 1.6235,1.885519 3.2472,4.478074 4.8708,7.777675 l 8.0527,16.026723 -8.5241,0 -7.5027,-15.044694 c -1.9379,-3.928099 -3.8234,-6.533749 -5.6565,-7.816956 -1.8069,-1.283161 -4.2816,-1.924753 -7.4241,-1.924778 l -8.6419,0 0,24.786428 -7.9348,0 0,-58.64681 17.9123,0 c 6.7039,5.9e-5 11.7057,1.401086 15.0054,4.203087 3.2996,2.80211 4.9494,7.03138 4.9494,12.687823 0,3.692469 -0.8642,6.756399 -2.5926,9.191797 -1.7022,2.435464 -4.19,4.124553 -7.4634,5.067273 M 1014.8,29.20219 l 0,20.819028 9.9775,0 c 3.8233,3.2e-5 6.7039,-0.877247 8.6418,-2.631839 1.964,-1.780711 2.9461,-4.386361 2.9461,-7.816956 0,-3.430512 -0.9821,-6.009974 -2.9461,-7.738394 -1.9379,-1.754508 -4.8185,-2.631787 -8.6418,-2.631839 l -9.9775,0" />
        </g>
        <path
           inkscape:connector-curvature="0"
           id="path2897"
           d="m 960.69305,99.555285 c 0,2.761595 -2.23872,5.000305 -5.00031,5.000305 -2.7616,0 -5.00031,-2.23871 -5.00031,-5.000305 0,-2.761592 2.23871,-5.000305 5.00031,-5.000305 2.76159,0 5.00031,2.238713 5.00031,5.000305 z"
           style="fill:none;stroke:#000000;stroke-width:0.47618565" />
      </g>
    </g>
  </g>
</svg>
