<?xml version="1.0" encoding="UTF-8" standalone="no"?>
<!-- Created with Inkscape (http://www.inkscape.org/) -->

<svg
   xmlns:dc="http://purl.org/dc/elements/1.1/"
   xmlns:cc="http://creativecommons.org/ns#"
   xmlns:rdf="http://www.w3.org/1999/02/22-rdf-syntax-ns#"
   xmlns:svg="http://www.w3.org/2000/svg"
   xmlns="http://www.w3.org/2000/svg"
   xmlns:sodipodi="http://sodipodi.sourceforge.net/DTD/sodipodi-0.dtd"
   xmlns:inkscape="http://www.inkscape.org/namespaces/inkscape"
   width="32"
   height="32"
   id="svg2"
   version="1.1"
   inkscape:version="0.48.4 r9939"
   sodipodi:docname="gislab_icon.svg"
   inkscape:export-filename="icon_xxxhdpi.png"
   inkscape:export-xdpi="540"
   inkscape:export-ydpi="540">
  <defs
     id="defs4">
    <inkscape:path-effect
       effect="spiro"
       id="path-effect6459"
       is_visible="true" />
    <inkscape:path-effect
       effect="spiro"
       id="path-effect6457"
       is_visible="true" />
    <inkscape:path-effect
       effect="spiro"
       id="path-effect6285"
       is_visible="true" />
    <inkscape:path-effect
       is_visible="true"
       id="path-effect6283"
       effect="spiro" />
    <inkscape:path-effect
       is_visible="true"
       id="path-effect6281"
       effect="spiro" />
    <inkscape:path-effect
       effect="spiro"
       id="path-effect6279"
       is_visible="true" />
    <inkscape:path-effect
       is_visible="true"
       id="path-effect6183"
       effect="spiro" />
    <inkscape:path-effect
       effect="spiro"
       id="path-effect6181"
       is_visible="true" />
    <inkscape:path-effect
       effect="spiro"
       id="path-effect6179"
       is_visible="true" />
    <inkscape:path-effect
       is_visible="true"
       id="path-effect6177"
       effect="spiro" />
    <inkscape:path-effect
       is_visible="true"
       id="path-effect6081"
       effect="spiro" />
    <inkscape:path-effect
       effect="spiro"
       id="path-effect6079"
       is_visible="true" />
    <inkscape:path-effect
       effect="spiro"
       id="path-effect6077"
       is_visible="true" />
    <inkscape:path-effect
       is_visible="true"
       id="path-effect6075"
       effect="spiro" />
    <inkscape:path-effect
       effect="spiro"
       id="path-effect5242"
       is_visible="true" />
    <inkscape:path-effect
       is_visible="true"
       id="path-effect5240"
       effect="spiro" />
    <inkscape:path-effect
       is_visible="true"
       id="path-effect5234"
       effect="spiro" />
    <inkscape:path-effect
       effect="spiro"
       id="path-effect5222"
       is_visible="true" />
    <inkscape:path-effect
       effect="spiro"
       id="path-effect5218"
       is_visible="true" />
    <inkscape:path-effect
       effect="spiro"
       id="path-effect5214"
       is_visible="true" />
    <inkscape:path-effect
       effect="spiro"
       id="path-effect5210"
       is_visible="true" />
    <inkscape:path-effect
       effect="spiro"
       id="path-effect5206"
       is_visible="true" />
    <inkscape:path-effect
       effect="spiro"
       id="path-effect4114"
       is_visible="true" />
    <inkscape:path-effect
       effect="spiro"
       id="path-effect4435"
       is_visible="true" />
    <inkscape:path-effect
       effect="spiro"
       id="path-effect3292"
       is_visible="true" />
    <inkscape:perspective
       sodipodi:type="inkscape:persp3d"
       inkscape:vp_x="0 : 526.18109 : 1"
       inkscape:vp_y="0 : 1000 : 0"
       inkscape:vp_z="744.09448 : 526.18109 : 1"
       inkscape:persp3d-origin="372.04724 : 350.78739 : 1"
       id="perspective10" />
    <inkscape:perspective
       id="perspective2902"
       inkscape:persp3d-origin="0.5 : 0.33333333 : 1"
       inkscape:vp_z="1 : 0.5 : 1"
       inkscape:vp_y="0 : 1000 : 0"
       inkscape:vp_x="0 : 0.5 : 1"
       sodipodi:type="inkscape:persp3d" />
    <inkscape:perspective
       id="perspective3015"
       inkscape:persp3d-origin="0.5 : 0.33333333 : 1"
       inkscape:vp_z="1 : 0.5 : 1"
       inkscape:vp_y="0 : 1000 : 0"
       inkscape:vp_x="0 : 0.5 : 1"
       sodipodi:type="inkscape:persp3d" />
    <inkscape:perspective
       id="perspective3089"
       inkscape:persp3d-origin="0.5 : 0.33333333 : 1"
       inkscape:vp_z="1 : 0.5 : 1"
       inkscape:vp_y="0 : 1000 : 0"
       inkscape:vp_x="0 : 0.5 : 1"
       sodipodi:type="inkscape:persp3d" />
    <inkscape:perspective
       id="perspective3199"
       inkscape:persp3d-origin="0.5 : 0.33333333 : 1"
       inkscape:vp_z="1 : 0.5 : 1"
       inkscape:vp_y="0 : 1000 : 0"
       inkscape:vp_x="0 : 0.5 : 1"
       sodipodi:type="inkscape:persp3d" />
    <inkscape:perspective
       id="perspective3293"
       inkscape:persp3d-origin="0.5 : 0.33333333 : 1"
       inkscape:vp_z="1 : 0.5 : 1"
       inkscape:vp_y="0 : 1000 : 0"
       inkscape:vp_x="0 : 0.5 : 1"
       sodipodi:type="inkscape:persp3d" />
    <inkscape:perspective
       id="perspective3364"
       inkscape:persp3d-origin="0.5 : 0.33333333 : 1"
       inkscape:vp_z="1 : 0.5 : 1"
       inkscape:vp_y="0 : 1000 : 0"
       inkscape:vp_x="0 : 0.5 : 1"
       sodipodi:type="inkscape:persp3d" />
    <inkscape:perspective
       id="perspective3462"
       inkscape:persp3d-origin="0.5 : 0.33333333 : 1"
       inkscape:vp_z="1 : 0.5 : 1"
       inkscape:vp_y="0 : 1000 : 0"
       inkscape:vp_x="0 : 0.5 : 1"
       sodipodi:type="inkscape:persp3d" />
    <inkscape:perspective
       id="perspective3539"
       inkscape:persp3d-origin="0.5 : 0.33333333 : 1"
       inkscape:vp_z="1 : 0.5 : 1"
       inkscape:vp_y="0 : 1000 : 0"
       inkscape:vp_x="0 : 0.5 : 1"
       sodipodi:type="inkscape:persp3d" />
    <filter
       id="filter3549"
       inkscape:label="Desaturate"
       x="0"
       y="0"
       width="1"
       height="1"
       inkscape:menu="Color"
       inkscape:menu-tooltip="Render in shades of gray by reducing saturation to zero"
       color-interpolation-filters="sRGB">
      <feColorMatrix
         id="feColorMatrix3551"
         type="saturate"
         values="0" />
    </filter>
    <inkscape:perspective
       id="perspective3729"
       inkscape:persp3d-origin="0.5 : 0.33333333 : 1"
       inkscape:vp_z="1 : 0.5 : 1"
       inkscape:vp_y="0 : 1000 : 0"
       inkscape:vp_x="0 : 0.5 : 1"
       sodipodi:type="inkscape:persp3d" />
    <inkscape:perspective
       id="perspective5246"
       inkscape:persp3d-origin="0.5 : 0.33333333 : 1"
       inkscape:vp_z="1 : 0.5 : 1"
       inkscape:vp_y="0 : 1000 : 0"
       inkscape:vp_x="0 : 0.5 : 1"
       sodipodi:type="inkscape:persp3d" />
    <inkscape:perspective
       id="perspective3967"
       inkscape:persp3d-origin="0.5 : 0.33333333 : 1"
       inkscape:vp_z="1 : 0.5 : 1"
       inkscape:vp_y="0 : 1000 : 0"
       inkscape:vp_x="0 : 0.5 : 1"
       sodipodi:type="inkscape:persp3d" />
    <filter
       id="filter3973"
       inkscape:label="Desaturate"
       x="0"
       y="0"
       width="1"
       height="1"
       inkscape:menu="Color"
       inkscape:menu-tooltip="Render in shades of gray by reducing saturation to zero"
       color-interpolation-filters="sRGB">
      <feColorMatrix
         id="feColorMatrix3975"
         type="saturate"
         values="0" />
    </filter>
    <inkscape:path-effect
       effect="spiro"
       id="path-effect5242-5"
       is_visible="true" />
    <inkscape:path-effect
       is_visible="true"
       id="path-effect5240-9"
       effect="spiro" />
    <inkscape:path-effect
       is_visible="true"
       id="path-effect5234-5"
       effect="spiro" />
    <inkscape:path-effect
       effect="spiro"
       id="path-effect5214-2"
       is_visible="true" />
    <inkscape:path-effect
       effect="spiro"
       id="path-effect5242-3"
       is_visible="true" />
    <inkscape:path-effect
       is_visible="true"
       id="path-effect5240-4"
       effect="spiro" />
    <inkscape:path-effect
       is_visible="true"
       id="path-effect5234-3"
       effect="spiro" />
    <inkscape:path-effect
       effect="spiro"
       id="path-effect5214-7"
       is_visible="true" />
    <inkscape:path-effect
       effect="spiro"
       id="path-effect5242-3-0"
       is_visible="true" />
    <inkscape:path-effect
       is_visible="true"
       id="path-effect5240-4-3"
       effect="spiro" />
    <inkscape:path-effect
       is_visible="true"
       id="path-effect5234-3-3"
       effect="spiro" />
    <inkscape:path-effect
       effect="spiro"
       id="path-effect5214-7-2"
       is_visible="true" />
    <inkscape:path-effect
       effect="spiro"
       id="path-effect5242-0"
       is_visible="true" />
    <inkscape:path-effect
       is_visible="true"
       id="path-effect5240-8"
       effect="spiro" />
    <inkscape:path-effect
       is_visible="true"
       id="path-effect5234-8"
       effect="spiro" />
    <inkscape:path-effect
       effect="spiro"
       id="path-effect5214-9"
       is_visible="true" />
  </defs>
  <sodipodi:namedview
     id="base"
     pagecolor="#ffffff"
     bordercolor="#666666"
     borderopacity="1.0"
     inkscape:pageopacity="0.0"
     inkscape:pageshadow="2"
     inkscape:zoom="9.9375604"
     inkscape:cx="26.794002"
     inkscape:cy="-0.36630655"
     inkscape:document-units="px"
     inkscape:current-layer="layer1"
     showgrid="false"
     inkscape:window-width="1920"
     inkscape:window-height="1028"
     inkscape:window-x="0"
     inkscape:window-y="25"
     inkscape:window-maximized="1"
     showguides="true"
     inkscape:guide-bbox="true"
     inkscape:snap-to-guides="false" />
  <metadata
     id="metadata7">
    <rdf:RDF>
      <cc:Work
         rdf:about="">
        <dc:format>image/svg+xml</dc:format>
        <dc:type
           rdf:resource="http://purl.org/dc/dcmitype/StillImage" />
        <dc:title></dc:title>
      </cc:Work>
    </rdf:RDF>
  </metadata>
  <g
     inkscape:groupmode="layer"
     id="layer2"
     inkscape:label="podklad"
     style="display:none"
     sodipodi:insensitive="true"
     transform="translate(0,-712.09448)">
    <rect
       style="fill:#f1caff;stroke:none"
       id="rect4470"
       width="275.03589"
       height="275.03589"
       x="225.11465"
       y="182.67262"
       ry="0"
       inkscape:export-filename="/home/rasto/Desktop/logo.png"
       inkscape:export-xdpi="7.7220421"
       inkscape:export-ydpi="7.7220421" />
  </g>
  <g
     inkscape:label="Vrstva 1"
     inkscape:groupmode="layer"
     id="layer1"
     transform="translate(0,-1020.3619)"
     style="display:inline">
    <g
       id="g3899"
       transform="matrix(0.15959055,0,0,0.16042965,0.04120149,883.57362)">
      <path
         id="path3893"
         d="m 40.911291,-17.948093 c 0,34.263645 -26.089117,62.039817 -58.271675,62.039817 -32.182557,0 -58.271675,-27.776172 -58.271675,-62.039817 0,-34.263646 26.089118,-62.039818 58.271675,-62.039818 32.182558,0 58.271675,27.776172 58.271675,62.039818 z"
         style="fill:#2ad4ff;fill-opacity:1;stroke:none;display:inline"
         transform="matrix(-1.5668914,0,0,-1.4717224,72.798144,925.94729)"
         inkscape:connector-curvature="0" />
      <path
         id="rect4056"
         d="m 926.60611,-153.85622 51.45719,0 c 15.46055,0 27.9071,12.44659 27.9071,27.90714 l 0,51.457057 c 0,15.460554 -12.44655,27.907138 -27.9071,27.907138 l -51.45719,0 c -15.46055,0 -27.90714,-12.446584 -27.90714,-27.907138 l 0,-51.457057 c 0,-15.46055 12.44659,-27.90714 27.90714,-27.90714 z"
         style="fill:#ffffff;fill-opacity:1;stroke:none;display:inline"
         transform="matrix(0,1,-1,0,0,0)"
         inkscape:connector-curvature="0" />
      <path
         inkscape:connector-curvature="0"
         id="path3123"
         d="m 100.02288,1052.1015 c 55.58856,0 100.23208,-45.0512 100.23208,-99.75519 0,-54.70395 -44.64352,-99.70919 -100.23208,-99.70919 -55.58856,0 -100.28105,45.00524 -100.28105,99.70919 0,54.70399 44.69249,99.75519 100.28105,99.75519 z m 0,-16.8788 c -45.26459,0 -82.35973,-36.7272 -82.35973,-82.87639 0,-46.14919 37.09514,-82.87637 82.35973,-82.87637 45.26458,0 82.31076,36.72718 82.31076,82.87637 0,46.14919 -37.04618,82.87639 -82.31076,82.87639 z"
         style="font-size:medium;font-style:normal;font-variant:normal;font-weight:normal;font-stretch:normal;text-indent:0;text-align:start;text-decoration:none;line-height:normal;letter-spacing:normal;word-spacing:normal;text-transform:none;direction:ltr;block-progression:tb;writing-mode:lr-tb;text-anchor:start;baseline-shift:baseline;color:#000000;fill:#00aad4;fill-opacity:1;stroke:none;stroke-width:11.45110703;marker:none;visibility:visible;display:inline;overflow:visible;enable-background:accumulate;font-family:Sans;-inkscape-font-specification:Sans" />
      <path
         sodipodi:nodetypes="sccccccccscccccccccs"
         inkscape:connector-curvature="0"
         id="path3902"
         d="m 150.26039,882.56979 c -0.93383,0.13333 -1.90792,0.47084 -2.60417,1.04167 -1.39234,1.14085 -2.215,2.99 -2.34374,4.68749 l 0,14.84375 c -0.0833,1.49083 -0.58334,2.40585 -1.04168,3.12501 -0.45834,0.71667 -0.80166,1.03249 -1.30208,1.56252 l -9.11459,8.59372 3.12501,3.38542 9.11458,-8.85417 c 0.10577,-0.10837 1.28291,-1.08956 2.08332,-2.34374 0.8,-1.25416 1.43828,-2.9325 1.56252,-5.20833 0.005,-0.0833 0.005,-0.17749 0,-0.26083 l 0,-14.58334 0,-0.26084 c 0.10003,-0.42499 0.22333,-0.79999 0.52083,-1.04165 0.35998,-0.29168 0.75167,-0.51918 1.5625,-0.26085 l 32.55208,11.71876 c -1.37558,-2.16234 -2.76392,-4.13967 -4.29683,-6.18492 l -26.95316,-9.69925 c -1.03692,-0.32084 -1.93068,-0.39416 -2.86459,-0.26083 z"
         style="fill:#000000;fill-opacity:1;stroke:none;display:inline" />
      <path
         style="fill:#000000;fill-opacity:1;stroke:none;display:inline"
         d="m 49.704307,882.56979 c 0.933914,0.13333 1.908001,0.46667 2.604175,1.04167 1.392413,1.14085 2.215075,2.99 2.343742,4.68749 l 0,14.84417 c 0.08334,1.49085 0.58334,2.40584 1.041666,3.12501 0.458336,0.71666 0.80166,1.0325 1.302076,1.5625 l 9.114601,8.59332 -3.125008,3.38584 -9.11459,-8.85417 c -0.105768,-0.10837 -1.28283,-1.08998 -2.083331,-2.34416 -0.800002,-1.25416 -1.438253,-2.9325 -1.562498,-5.20833 -0.0054,-0.0833 -0.0054,-0.175 0,-0.25834 l 0,-14.58332 0,-0.25833 c -0.100025,-0.42501 -0.223338,-0.80001 -0.520833,-1.04169 -0.360002,-0.29165 -0.75167,-0.51665 -1.562498,-0.25833 l -32.552087,11.71834 c 1.37567,-2.1625 2.763998,-4.14001 4.296911,-6.18499 l 26.953088,-9.70002 c 1.036995,-0.31665 1.930748,-0.39166 2.864586,-0.25832 z"
         id="path3935"
         inkscape:connector-curvature="0"
         sodipodi:nodetypes="sccccccccscccccccccs" />
      <path
         style="fill:#000000;fill-opacity:1;stroke:none;display:inline"
         d="m 150.26039,1022.1598 c -0.93383,-0.1333 -1.90792,-0.4667 -2.60417,-1.0417 -1.39234,-1.1408 -2.215,-2.99 -2.34374,-4.6875 l 0,-14.8441 c -0.0833,-1.4909 -0.58334,-2.40586 -1.04168,-3.12504 -0.45834,-0.71667 -0.80166,-1.03249 -1.30208,-1.56249 l -9.11459,-8.59334 3.12501,-3.38584 9.11458,8.85417 c 0.10577,0.10837 1.28291,1.09 2.08332,2.34417 0.8,1.25416 1.43828,2.9325 1.56252,5.20837 0.005,0.083 0.005,0.175 0,0.2583 l 0,14.5833 0,0.2584 c 0.10003,0.425 0.22333,0.8 0.52083,1.0416 0.35998,0.2917 0.75167,0.5167 1.5625,0.2584 l 32.55208,-11.7184 c -1.37558,2.1625 -2.76392,4.14 -4.29683,6.185 l -26.95316,9.7 c -1.03692,0.3167 -1.93068,0.3917 -2.86459,0.2584 z"
         id="path3937"
         inkscape:connector-curvature="0"
         sodipodi:nodetypes="sccccccccscccccccccs" />
      <path
         sodipodi:nodetypes="sccccccccscccccccccs"
         inkscape:connector-curvature="0"
         id="path3939"
         d="m 49.690804,1022.1598 c 0.933925,-0.1333 1.908001,-0.4667 2.604164,-1.0417 1.392424,-1.1408 2.215076,-2.99 2.343753,-4.6875 l 0,-14.8441 c 0.08334,-1.4909 0.58334,-2.40586 1.041666,-3.12504 0.458336,-0.71667 0.80166,-1.03249 1.302087,-1.56249 l 9.114579,-8.59334 -3.124986,-3.38584 -9.1146,8.85417 c -0.105769,0.10837 -1.28282,1.09 -2.083332,2.34417 -0.800002,1.25416 -1.438155,2.9325 -1.562498,5.20837 -0.0054,0.083 -0.0054,0.175 0,0.2583 l 0,14.5833 0,0.2584 c -0.100025,0.425 -0.223327,0.8 -0.520833,1.0416 -0.360002,0.2917 -0.751659,0.5167 -1.562487,0.2584 L 15.57623,1006.0081 c 1.375659,2.1625 2.763976,4.14 4.2969,6.185 l 26.953089,9.7 c 1.036995,0.3167 1.930758,0.3917 2.864585,0.2584 z"
         style="fill:#000000;fill-opacity:1;stroke:none;display:inline" />
      <rect
         transform="matrix(0,1,-1,0,0,0)"
         inkscape:export-ydpi="11.769209"
         inkscape:export-xdpi="11.769209"
         inkscape:export-filename="/home/rasto/Desktop/logo_pokus_07.png"
         style="fill:#000000;fill-opacity:1;stroke:none;display:inline"
         id="rect4797-2"
         width="83.075294"
         height="83.057175"
         x="910.79645"
         y="-141.76645"
         ry="21.607697" />
      <path
         id="rect4095"
         d="m 111.68282,919.17352 11.40548,0 c 3.02651,0 5.46301,2.43651 5.46301,5.46302 l 0,2.00405 c 0,3.02651 -2.4365,5.46301 -5.46301,5.46301 l -11.40548,0 c -3.02651,0 -5.46301,-2.4365 -5.46301,-5.46301 l 0,-2.00405 c 0,-3.02651 2.4365,-5.46302 5.46301,-5.46302 z"
         style="fill:#ffffff;fill-opacity:1;stroke:none;display:inline"
         inkscape:connector-curvature="0" />
    </g>
  </g>
</svg>
