/* XPM */
static char * gislab_web_32_xpm[] = {
"32 32 94 2",
"  	c None",
". 	c #00AAD4",
"+ 	c #00AAD5",
"@ 	c #00A9D3",
"# 	c #03ADD7",
"$ 	c #07B1DB",
"% 	c #02ACD7",
"& 	c #0FB9E4",
"* 	c #1CC6F1",
"= 	c #28D2FD",
"- 	c #2AD4FF",
"; 	c #059FC5",
"> 	c #02A8D1",
", 	c #13BDE8",
"' 	c #27D1FC",
") 	c #03A2C8",
"! 	c #147A94",
"~ 	c #245764",
"{ 	c #226171",
"] 	c #2C7081",
"^ 	c #226170",
"/ 	c #245663",
"( 	c #235966",
"_ 	c #215C6B",
": 	c #1084A0",
"< 	c #0AAFD8",
"[ 	c #26D0FB",
"} 	c #30606C",
"| 	c #11839F",
"1 	c #225C6A",
"2 	c #0994B7",
"3 	c #04A2C9",
"4 	c #05AFD9",
"5 	c #55DDFF",
"6 	c #ACEEFF",
"7 	c #D7F7FF",
"8 	c #E5FAFF",
"9 	c #D9F7FF",
"0 	c #AFEFFF",
"a 	c #5CDEFF",
"b 	c #01ABD5",
"c 	c #22CCF7",
"d 	c #496268",
"e 	c #F6F8F9",
"f 	c #FFFFFF",
"g 	c #F8F9F9",
"h 	c #4C6268",
"i 	c #54DCFF",
"j 	c #C5C6C7",
"k 	c #707070",
"l 	c #F6F6F6",
"m 	c #AFAFAF",
"n 	c #6B6B6B",
"o 	c #575757",
"p 	c #686868",
"q 	c #A7A7A7",
"r 	c #F4F4F4",
"s 	c #6F6F6F",
"t 	c #C7C8C8",
"u 	c #63DFFF",
"v 	c #A6EDFF",
"w 	c #C9C9C9",
"x 	c #4B4B4B",
"y 	c #000000",
"z 	c #282828",
"A 	c #505050",
"B 	c #0A0A0A",
"C 	c #3A3A3A",
"D 	c #CCCCCC",
"E 	c #B9F1FF",
"F 	c #D2F6FF",
"G 	c #B4B4B4",
"H 	c #EFEFEF",
"I 	c #7E7E7E",
"J 	c #A2A2A2",
"K 	c #E0F9FF",
"L 	c #DEF8FF",
"M 	c #777777",
"N 	c #888888",
"O 	c #C0C0C0",
"P 	c #BBBBBB",
"Q 	c #393939",
"R 	c #616161",
"S 	c #ECFBFF",
"T 	c #676767",
"U 	c #4F4F4F",
"V 	c #D3F6FF",
"W 	c #E1F9FF",
"X 	c #A7EDFF",
"Y 	c #5ADEFF",
"Z 	c #B0EFFF",
"` 	c #DAF8FF",
" .	c #B3F0FF",
"..	c #61DFFF",
"                        . + . . . . + .                         ",
"                  @ + . . . . . . . . . . + @                   ",
"              @ + . . . . . # $ $ # . . . . . + @               ",
"            . . . . % & * = - - - - = * & % . . . .             ",
"          . . ; > , ' - - - - - - - - - - ' , > ; . .           ",
"        ) ! ~ { ] - - - - - - - - - - - - - - ] ^ / ! )         ",
"      ( _ : < [ } - - - - - - - - - - - - - - } [ < | 1 (       ",
"    2 3 . 4 [ - } 5 6 7 8 8 8 8 8 8 8 8 9 0 a } - [ 4 . 3 2     ",
"    + . b c - - d e f f f f f f f f f f f f g h - - c b . +     ",
"  @ . . , - - i j k l m n o o o o o o p q r s t u - - , . . @   ",
"  . . % ' - - v f w x y y y y y y z A x B C D f E - - ' % . .   ",
"  . . & - - - F f G y y y y y y y H f f I y J f K - - - & . .   ",
"@ . . * - - - L f M y y y y y y y N O P Q y R f S - - - * . . @ ",
"+ . . = - - - L f T y y y y y y y y y y y y U f S - - - = . . + ",
". . # - - - - L f T y y y y y y y y y y y y U f S - - - - # . . ",
". . $ - - - - L f T y y y y y y y y y y y y U f S - - - - $ . . ",
". . $ - - - - L f T y y y y y y y y y y y y U f S - - - - $ . . ",
". . # - - - - L f T y y y y y y y y y y y y U f S - - - - # . . ",
"+ . . = - - - L f T y y y y y y y y y y y y U f S - - - = . . + ",
"@ . . * - - - L f M y y y y y y y y y y y y R f S - - - * . . @ ",
"  . . & - - - V f G y y y y y y y y y y y y J f W - - - & . .   ",
"  . . % ' - - X f w x y y y y y y y y y y C D f E - - ' % . .   ",
"  @ . . , - - i j k l m n o o o o o o p q r s t u - - , . . @   ",
"    + . b c - - d e f f f f f f f f f f f f g h - - c b . +     ",
"    2 3 . 4 [ - } Y Z 9 8 8 8 8 8 8 8 8 `  ...} - [ 4 . 3 2     ",
"      ( _ : < [ } - - - - - - - - - - - - - - } [ < | 1 (       ",
"        ) ! ~ { ] - - - - - - - - - - - - - - ] ^ / ! )         ",
"          . . ; > , ' - - - - - - - - - - ' , > ; . .           ",
"            . . . . % & * = - - - - = * & % . . . .             ",
"              @ + . . . . . # $ $ # . . . . . + @               ",
"                  @ . . . . . . . . . . . . @                   ",
"                        @ + . . . . + @                         "};
