/* XPM */
static char * icon_xpm[] = {
"32 32 296 2",
"  	c None",
". 	c #FFFFFF",
"+ 	c #FEFEFF",
"@ 	c #E7F4FA",
"# 	c #D2E9F5",
"$ 	c #D3EAF5",
"% 	c #D6EBF6",
"& 	c #E0F0F8",
"* 	c #EBF6FB",
"= 	c #FEFFFF",
"- 	c #D2EAF6",
"; 	c #9ACEE9",
"> 	c #6FBAE0",
", 	c #6AB7DF",
"' 	c #75BCE1",
") 	c #7ABFE2",
"! 	c #7FC1E3",
"~ 	c #84C4E5",
"{ 	c #93CAE8",
"] 	c #CAE6F4",
"^ 	c #AFD8EE",
"/ 	c #64B4DD",
"( 	c #5AAFDB",
"_ 	c #5FB2DD",
": 	c #64B4DE",
"< 	c #74BCE1",
"[ 	c #79BFE2",
"} 	c #89C6E5",
"| 	c #D1E9F5",
"1 	c #F5FAFD",
"2 	c #DDEFF8",
"3 	c #A2D2EB",
"4 	c #6CB8DF",
"5 	c #8FC9E7",
"6 	c #CBE6F4",
"7 	c #D0E8F5",
"8 	c #B1D9EE",
"9 	c #F1F8FC",
"0 	c #ACD7ED",
"a 	c #93CBE8",
"b 	c #CAE5F4",
"c 	c #F8FBFD",
"d 	c #8AC7E6",
"e 	c #9BCFE9",
"f 	c #C0E0F1",
"g 	c #E4F2F9",
"h 	c #FCFDFE",
"i 	c #A6D4EC",
"j 	c #83C3E4",
"k 	c #88C6E5",
"l 	c #8EC8E7",
"m 	c #B3DAEF",
"n 	c #FBFDFE",
"o 	c #FCFEFE",
"p 	c #68B6DE",
"q 	c #2F9BD2",
"r 	c #349DD3",
"s 	c #39A0D4",
"t 	c #3EA2D5",
"u 	c #62B3DD",
"v 	c #E8F4FA",
"w 	c #7CBFE3",
"x 	c #78BEE2",
"y 	c #7DC1E3",
"z 	c #8DC8E6",
"A 	c #92CBE8",
"B 	c #B8DCF0",
"C 	c #2495D0",
"D 	c #2998D1",
"E 	c #2E9AD2",
"F 	c #399FD4",
"G 	c #43A4D7",
"H 	c #4FAAD9",
"I 	c #73BBE1",
"J 	c #7DC0E3",
"K 	c #82C3E4",
"L 	c #88C5E5",
"M 	c #92CAE7",
"N 	c #D5EBF6",
"O 	c #1D92CE",
"P 	c #1E93CF",
"Q 	c #2395D0",
"R 	c #339DD3",
"S 	c #389FD4",
"T 	c #43A4D6",
"U 	c #E9F4FA",
"V 	c #B6DCEF",
"W 	c #6EB9DF",
"X 	c #72BBE1",
"Y 	c #77BEE2",
"Z 	c #87C5E5",
"` 	c #98CEE9",
" .	c #F9FCFE",
"..	c #4BA9D8",
"+.	c #138DCC",
"@.	c #1990CD",
"#.	c #1E92CE",
"$.	c #2897D1",
"%.	c #2D9AD2",
"&.	c #339CD3",
"*.	c #8BC7E6",
"=.	c #F8FCFD",
"-.	c #CEE8F4",
";.	c #70BAE0",
">.	c #77BDE2",
",.	c #7CC0E3",
"'.	c #81C2E4",
").	c #DCEEF7",
"!.	c #F3F9FC",
"~.	c #0888CA",
"{.	c #0E8BCB",
"].	c #1890CD",
"^.	c #2395CF",
"/.	c #55ADDA",
"(.	c #A4D3EB",
"_.	c #76BDE1",
":.	c #59AEDB",
"<.	c #A3D3EB",
"[.	c #FDFEFF",
"}.	c #71BBE0",
"|.	c #BBDEF0",
"1.	c #A5D3EB",
"2.	c #E2F1F9",
"3.	c #6BB8DF",
"4.	c #0385C9",
"5.	c #0D8ACB",
"6.	c #128DCC",
"7.	c #188FCD",
"8.	c #2294CF",
"9.	c #2998D0",
"0.	c #42A4D6",
"a.	c #47A6D7",
"b.	c #4CA9D8",
"c.	c #51ABDA",
"d.	c #E5F2F9",
"e.	c #CFE7F4",
"f.	c #BEDFF1",
"g.	c #86C5E5",
"h.	c #B5DBEF",
"i.	c #0084C8",
"j.	c #0285C8",
"k.	c #0788CA",
"l.	c #178FCD",
"m.	c #1C92CE",
"n.	c #F7FBFD",
"o.	c #4BA8D9",
"p.	c #379ED4",
"q.	c #3CA1D5",
"r.	c #41A3D6",
"s.	c #46A6D7",
"t.	c #51ABD9",
"u.	c #9CCFEA",
"v.	c #CFE8F5",
"w.	c #80C2E4",
"x.	c #EEF7FB",
"y.	c #0787CA",
"z.	c #0C8ACB",
"A.	c #128CCC",
"B.	c #E6F3FA",
"C.	c #90CAE7",
"D.	c #2C99D1",
"E.	c #319CD3",
"F.	c #369ED4",
"G.	c #4BA8D8",
"H.	c #ABD6ED",
"I.	c #9CCFE9",
"J.	c #75BDE1",
"K.	c #7BBFE2",
"L.	c #EFF7FC",
"M.	c #C9E5F3",
"N.	c #0788C9",
"O.	c #7CBFE2",
"P.	c #2B99D1",
"Q.	c #2696D0",
"R.	c #319BD2",
"S.	c #3BA1D5",
"T.	c #40A3D6",
"U.	c #DBEDF7",
"V.	c #BADEF0",
"W.	c #D4E8F5",
"X.	c #FDE3F9",
"Y.	c #FFCCF5",
"Z.	c #FFF5FD",
"`.	c #2094CF",
" +	c #309BD2",
".+	c #359ED4",
"++	c #3BA0D5",
"@+	c #71BBE1",
"#+	c #E3F1F9",
"$+	c #9ACDE9",
"%+	c #FCF6FD",
"&+	c #FF5DDF",
"*+	c #FF00CC",
"=+	c #FF0DCF",
"-+	c #FFA2EC",
";+	c #53ACDA",
">+	c #2093CF",
",+	c #2596D0",
"'+	c #59AFDB",
")+	c #C0E1F1",
"!+	c #69B7DE",
"~+	c #6FB9E0",
"{+	c #CEE8F5",
"]+	c #CEE7F4",
"^+	c #0F8BCB",
"/+	c #FCFCFE",
"(+	c #FF71E3",
"_+	c #FF03CD",
":+	c #FCCAF4",
"<+	c #B8D9EF",
"[+	c #2797D1",
"}+	c #6DB8E0",
"|+	c #C1E1F2",
"1+	c #50AADA",
"2+	c #5AB0DC",
"3+	c #5FB2DC",
"4+	c #69B7DF",
"5+	c #D7ECF6",
"6+	c #85C4E5",
"7+	c #FF13D0",
"8+	c #FF6CE2",
"9+	c #F9F4FC",
"0+	c #5AB0DB",
"a+	c #3FA2D6",
"b+	c #44A5D7",
"c+	c #EBF5FB",
"d+	c #5CB0DC",
"e+	c #5EB1DC",
"f+	c #63B4DD",
"g+	c #EAF5FB",
"h+	c #FF1FD2",
"i+	c #FF79E4",
"j+	c #FFF7FE",
"k+	c #2F9AD2",
"l+	c #48A7D8",
"m+	c #8CC7E6",
"n+	c #B8DDF0",
"o+	c #90C9E7",
"p+	c #BEE0F1",
"q+	c #FEFBFE",
"r+	c #FF9EEB",
"s+	c #FF12D0",
"t+	c #FEEAFB",
"u+	c #C8E4F3",
"v+	c #3FA3D6",
"w+	c #118CCB",
"x+	c #148ECC",
"y+	c #C2E1F2",
"z+	c #95CCE8",
"A+	c #FFA1EC",
"B+	c #FF27D4",
"C+	c #FF11CF",
"D+	c #FF46DA",
"E+	c #FFDAF7",
"F+	c #FEFCFE",
"G+	c #86C4E5",
"H+	c #0A89CA",
"I+	c #0988CA",
"J+	c #2898D1",
"K+	c #73BCE1",
"L+	c #4EAAD9",
"M+	c #FCFBFE",
"N+	c #3AA1D5",
"O+	c #41A4D6",
"P+	c #D4EAF6",
"Q+	c #0586C9",
"R+	c #198FCD",
"S+	c #6DB9E0",
"T+	c #EDF6FB",
"U+	c #69B6DF",
"V+	c #2295CF",
"W+	c #329CD3",
"X+	c #D8ECF7",
"Y+	c #F6FBFD",
"Z+	c #8CC8E6",
"`+	c #C7E4F3",
" @	c #94CBE8",
".@	c #2797D0",
"+@	c #2C99D2",
"@@	c #89C6E6",
"#@	c #9DCFEA",
"$@	c #50ABD9",
"%@	c #79BEE2",
"&@	c #0787C9",
"*@	c #118CCC",
"=@	c #1C91CE",
"-@	c #4DA9D8",
";@	c #0687C9",
">@	c #76BDE2",
",@	c #9ED0EA",
"'@	c #B9DDF0",
")@	c #BFE0F1",
"!@	c #CDE7F4",
"~@	c #B2DAEE",
"{@	c #9DD0EA",
"]@	c #ADD7ED",
"                        . . . . . . . .                         ",
"                  . . . + @ # $ % & * = . . .                   ",
"              . . . - ; > , > ' ) ! ~ { ] . . . .               ",
"            . . + ^ / ( _ : , > < [ } | = . . 1 . .             ",
"          . . . . . = 2 3 4 5 6 7 8 9 . . & 0 a b + .           ",
"        . c d e f g . . . h . . . . . 9 i j k l a m n .         ",
"      . o p q r s t u i v . . . . . c w x y j k z A B + .       ",
"    . . d C D E r F t G H . . . . . + > I x J K L z M N . .     ",
"    . | O P Q D E R S t T U . . . . = V W X Y J K Z `  .. .     ",
"  . . ..+.@.#.Q $.%.&.S *.. . . . =.. . -.;.X >.,.'.).. !.. .   ",
"  . b ~.{.+.].O ^.$.%./.=.. (._.'.:.<.[.. # > }.>.|.. [.1.2..   ",
"  . 3.4.~.5.6.7.O 8.9.7 . ] t 0.a.b.c.5 o . d.2.e.+ . f.g.h..   ",
". . Q i.j.k.5.6.l.m.) . n.o.p.q.r.s.b.t.u.. . . . . v.w w.l . . ",
". x.i.i.i.j.y.z.A.P B.. C.D.E.F.q.r.s.G.H.. . . . . I.J.K.w.L.. ",
". M.i.i.i.i.N.O.N x.. 9 P.Q.P.R.F.S.T.s.V . . . . . i ;.' ) U.. ",
". V.i.i.i.{.W.. X.Y.Z.. a `.Q.P. +.+++@+#+. . . . [.J , > < | . ",
". |.i.i.i.$+%+&+*+*+=+-++ ;+>+,+P.'+)+. . n.+ . . n.!+: , ~+{+. ",
". ]+i.i.^+/+(+*+*+*+*+_+:+<+[+}+|+. . = h.1+2+) #+. 1.3+: 4+5+. ",
". o v.M 6+. 7+*+*+*+*+*+8+9+ .. . = f.0+r s a+b+l . c+d+e+f+g+. ",
". . . . . . h+*+*+*+*+*+i+j+. B.; s.C D k+r s t l+9 . m+'+!+= . ",
"  . n+o+p+q+r+*+*+*+*+s+t+u+v+w+x+@.P C D E R F t h.. y+;+z+.   ",
"  . N i.i.X . A+B+C+D+E+F+G+H+I+{.+.@.#.Q J+E R S K+. !.L+v..   ",
"  . . b+i.j.(.. . . . M+. . ).N+I+{.+.].#.Q $.%.&.O+o . *.= .   ",
"    . P+Q+i.i.i . P+x R+S+T+. =.U+~.5.+.].O V+$.%.W+X+. Y+.     ",
"    . . ! i.i.z+. Z+i.i.i.#.`+. .  @I+5.6.l.O 8..@+@n+. . .     ",
"      . [.;+i.@@. z+i.i.i.i.Q+M . . 5 k.5.6.l.m.8..@#@. .       ",
"        . 1 $@%@. 3 i.i.i.i.i.i.J . . K &@z.*@l.=@t.9 .         ",
"          . [.M.. )+i.i.i.i.i.i.i.I . = -@;@z.A.>@n..           ",
"            . . . v i.i.i.i.i.i.i.i.,@. c+O D '@. .             ",
"                . . )@( x+i.i.i.i.i.~.!@. #+o . .               ",
"                  . . . [.).~@{@; ]@N o . . .                   ",
"                        . . . . . . . .                         "};
