<?xml version="1.0" encoding="UTF-8" standalone="no"?>
<!-- Generator: Adobe Illustrator 16.0.0, SVG Export Plug-In . SVG Version: 6.00 Build 0)  -->

<svg
   xmlns:dc="http://purl.org/dc/elements/1.1/"
   xmlns:cc="http://creativecommons.org/ns#"
   xmlns:rdf="http://www.w3.org/1999/02/22-rdf-syntax-ns#"
   xmlns:svg="http://www.w3.org/2000/svg"
   xmlns="http://www.w3.org/2000/svg"
   xmlns:xlink="http://www.w3.org/1999/xlink"
   xmlns:sodipodi="http://sodipodi.sourceforge.net/DTD/sodipodi-0.dtd"
   xmlns:inkscape="http://www.inkscape.org/namespaces/inkscape"
   version="1.1"
   id="Capa_1"
   x="0px"
   y="0px"
   width="92px"
   height="92.001px"
   viewBox="0 0 92 92.001"
   style="enable-background:new 0 0 92 92.001;"
   xml:space="preserve"
   inkscape:version="0.48.3.1 r9886"
   sodipodi:docname="gislab_webgis_icon_03.svg"><metadata
   id="metadata39"><rdf:RDF><cc:Work
       rdf:about=""><dc:format>image/svg+xml</dc:format><dc:type
         rdf:resource="http://purl.org/dc/dcmitype/StillImage" /><dc:title></dc:title></cc:Work></rdf:RDF></metadata><defs
   id="defs37"><linearGradient
     inkscape:collect="always"
     id="linearGradient3846"><stop
       style="stop-color:#0084c8;stop-opacity:1;"
       offset="0"
       id="stop3848" /><stop
       style="stop-color:#ffffff;stop-opacity:1"
       offset="1"
       id="stop3850" /></linearGradient><linearGradient
     inkscape:collect="always"
     xlink:href="#linearGradient3846"
     id="linearGradient3902"
     gradientUnits="userSpaceOnUse"
     gradientTransform="matrix(1.0032906,0,0,1.0075861,-128.06011,-2.3055415)"
     x1="163.49959"
     y1="62.451508"
     x2="235.10745"
     y2="-15.232608" /><linearGradient
     inkscape:collect="always"
     xlink:href="#linearGradient3846"
     id="linearGradient3908"
     gradientUnits="userSpaceOnUse"
     gradientTransform="matrix(0.89614305,0,0,0.89997981,-109.48225,3.1815313)"
     x1="163.49959"
     y1="62.451508"
     x2="235.10745"
     y2="-15.232608" /><linearGradient
     inkscape:collect="always"
     xlink:href="#linearGradient3846"
     id="linearGradient3914"
     gradientUnits="userSpaceOnUse"
     gradientTransform="matrix(1.0032906,0,0,1.0075861,354.51796,-15.243291)"
     x1="163.49959"
     y1="62.451508"
     x2="235.10745"
     y2="-15.232608" /><linearGradient
     inkscape:collect="always"
     xlink:href="#linearGradient3846"
     id="linearGradient2992"
     gradientUnits="userSpaceOnUse"
     gradientTransform="matrix(0.89614305,0,0,0.89997981,-109.48225,3.1815313)"
     x1="163.49959"
     y1="62.451508"
     x2="235.10745"
     y2="-15.232608" /></defs><sodipodi:namedview
   pagecolor="#ffffff"
   bordercolor="#666666"
   borderopacity="1"
   objecttolerance="10"
   gridtolerance="10"
   guidetolerance="10"
   inkscape:pageopacity="0"
   inkscape:pageshadow="2"
   inkscape:window-width="1920"
   inkscape:window-height="1151"
   id="namedview35"
   showgrid="true"
   inkscape:zoom="3.7153558"
   inkscape:cx="29.080645"
   inkscape:cy="67.054922"
   inkscape:window-x="0"
   inkscape:window-y="25"
   inkscape:window-maximized="1"
   inkscape:current-layer="Capa_1" />
















<g
   id="g3764"
   inkscape:export-filename="/media/sshfs.gista.lan/vedenie_firmy/grafika/ikony/outputs/wegis_icon_v2.png"
   inkscape:export-xdpi="72"
   inkscape:export-ydpi="72"><path
     transform="matrix(0.78940583,0,0,0.74145931,59.704388,59.30878)"
     d="m 40.911291,-17.948093 a 58.271675,62.039818 0 1 1 -116.54335,0 58.271675,62.039818 0 1 1 116.54335,0 z"
     sodipodi:ry="62.039818"
     sodipodi:rx="58.271675"
     sodipodi:cy="-17.948093"
     sodipodi:cx="-17.360384"
     id="path2994"
     style="fill:#ffffff;fill-opacity:1;stroke:none"
     sodipodi:type="arc" /><path
     inkscape:connector-curvature="0"
     style="fill:url(#linearGradient2992);fill-opacity:1"
     id="path3906"
     d="m 67.30358,32.128929 c -0.899724,0 -1.768991,0.136803 -2.587165,0.390598 -3.089905,-3.477529 -6.51586,-6.640953 -10.22589,-9.449793 0.155034,-0.657881 0.246444,-1.340065 0.246444,-2.046553 0,-0.975575 -0.164894,-1.912457 -0.457034,-2.78994 4.155416,-2.995127 8.676457,-5.507871 13.484261,-7.450928 4.5085,2.798032 8.439875,6.445654 11.572796,10.720553 -2.326394,4.136312 -5.091887,7.994524 -8.234661,11.505351 -1.150652,-0.557994 -2.436615,-0.879288 -3.798751,-0.879288 z m 8.770547,8.807205 c 0,-1.23657 -0.257189,-2.413741 -0.715117,-3.48112 2.815683,-3.103133 5.364315,-6.452853 7.598396,-10.021274 2.80224,5.588875 4.389312,11.897735 4.389312,18.581883 0,7.74163 -2.120279,14.981968 -5.803423,21.179222 -1.315537,-7.449133 -3.812194,-14.48607 -7.261453,-20.940727 1.121078,-1.477771 1.792285,-3.316431 1.792285,-5.317984 z M 45.966413,12.214181 c -2.316533,0 -4.41709,0.908076 -5.984439,2.381344 -4.575714,-1.977259 -9.395165,-3.49282 -14.408192,-4.462098 6.051653,-3.5018239 13.064867,-5.5159808 20.551246,-5.5159808 5.102642,0 9.98752,0.9386769 14.4987,2.6423472 C 57.042739,9.0345448 53.631129,11.1081 50.421142,13.445355 49.114564,12.667768 47.594706,12.214181 45.966413,12.214181 z M 32.850464,53.700553 c -0.545747,-1.141175 -1.320914,-2.150058 -2.278893,-2.952834 2.588067,-8.001722 6.689713,-15.318563 11.971576,-21.613917 1.051175,0.448192 2.208098,0.696583 3.423266,0.696583 1.902515,0 3.658054,-0.615587 5.095469,-1.648765 3.178618,2.426344 6.120662,5.146989 8.795647,8.116016 -0.835209,1.347273 -1.325399,2.934836 -1.325399,4.638498 0,0.920678 0.141591,1.806263 0.401477,2.63964 -7.692495,5.16229 -16.545494,8.701012 -26.083143,10.124779 z M 21.474825,65.590186 c -0.120984,1.667656 -0.184607,3.350622 -0.184607,5.047987 0,2.98883 0.189984,5.93267 0.548436,8.824301 C 14.849637,74.334394 9.5256508,67.054451 6.8425999,58.589236 c 3.1786181,0.772193 6.4414741,1.323871 9.7697481,1.645166 0.78234,2.41015 2.568345,4.360407 4.862477,5.355784 z m 13.431393,-5.969567 c 10.174807,-1.692863 19.6103,-5.591573 27.821657,-11.178652 1.332562,0.820783 2.89633,1.304069 4.574812,1.304069 0.616542,0 1.216954,-0.06574 1.798555,-0.187189 3.931383,7.485129 6.443269,15.833343 7.165558,24.684646 -3.925104,4.226301 -8.714097,7.630926 -14.09364,9.916876 C 55.495103,73.844802 46.157291,65.312087 34.906218,59.620619 z M 18.452134,15.332606 c 6.605466,0.639891 12.91521,2.30485 18.789428,4.807697 -0.03135,0.290693 -0.04573,0.584084 -0.04573,0.881976 0,1.390467 0.329779,2.700842 0.900626,3.870814 -5.867947,6.919043 -10.426628,14.982861 -13.304138,23.809868 -3.565759,0.06386 -6.615327,2.258055 -7.926389,5.373783 C 12.897817,53.672649 9.0336562,52.910371 5.3110768,51.810596 5.0476084,49.917031 4.9015339,47.98478 4.9015339,46.015623 c 0,-12.167732 5.2281011,-23.108783 13.5505821,-30.683017 z m 12.041478,48.994009 c 10.502791,4.940883 19.284102,12.550221 25.644026,21.853306 -3.205503,0.803687 -6.557974,1.236578 -10.01261,1.236578 -6.218333,0 -12.110469,-1.39137 -17.396825,-3.867215 -0.849544,-4.17321 -1.299406,-8.48951 -1.299406,-12.911111 0,-1.597469 0.07172,-3.178734 0.190878,-4.745593 1.059241,-0.341096 2.030663,-0.875679 2.873937,-1.565965 z"
     inkscape:export-filename="/home/rasto/Desktop/icon_test.png"
     inkscape:export-xdpi="72"
     inkscape:export-ydpi="72" /><path
     inkscape:export-ydpi="72"
     inkscape:export-xdpi="72"
     inkscape:export-filename="/home/rasto/Desktop/icon_test.png"
     transform="matrix(0.85374904,0,0,1.1291519,-245.7323,-3.2477808)"
     d="m 332.50018,50.923645 a 13.261193,10.026756 0 1 1 -26.52239,0 13.261193,10.026756 0 1 1 26.52239,0 z"
     sodipodi:ry="10.026756"
     sodipodi:rx="13.261193"
     sodipodi:cy="50.923645"
     sodipodi:cx="319.23898"
     id="path3918"
     style="fill:#ff00cc;fill-opacity:1;stroke:#ffffff;stroke-width:4.2853241;stroke-miterlimit:4;stroke-dasharray:none"
     sodipodi:type="arc" /></g></svg>